<svg xmlns="http://www.w3.org/2000/svg" viewBox="0 0 3395.91 2409.45" id="man-trading-stocks">
  <g id="Layer_2">
    <path d="M2567.31 1274.62c0 188.44-56.61 363.66-153.76 509.57a925.72 925.72 0 0 1-59.48 79.7c-1.63 1.94-3.26 3.89-4.9 5.82q-11.13 13.15-22.77 25.86-6.09 6.69-12.35 13.25a924 924 0 0 1-202.7 160.77H1181.9a924.07 924.07 0 0 1-181.18-138.85q-11.07-10.89-21.76-22.16-6.24-6.55-12.33-13.24-6.07-6.61-12-13.35l-.1-.12a923.3 923.3 0 0 1-74.87-97.67c-97.15-145.91-153.76-321.13-153.76-509.57 0-508.48 412.22-920.69 920.7-920.69s920.71 412.2 920.71 920.68Z" style="fill:#fefefe;opacity:.5"></path>
    <path d="M2797.49 463.48H478.33a2 2 0 1 1 0-4h2319.16a2 2 0 0 1 0 4ZM2797.49 642.61H478.33a2 2 0 0 1 0-4h2319.16a2 2 0 0 1 0 4ZM2797.49 821.73H478.33a2 2 0 1 1 0-4h2319.16a2 2 0 0 1 0 4ZM2797.49 1000.85H478.33a2 2 0 0 1 0-4h2319.16a2 2 0 0 1 0 4ZM2797.49 1180H478.33a2 2 0 1 1 0-4h2319.16a2 2 0 0 1 0 4ZM2797.49 1359.09H478.33a2 2 0 1 1 0-4h2319.16a2 2 0 0 1 0 4ZM2797.49 1538.21H478.33a2 2 0 1 1 0-4h2319.16a2 2 0 0 1 0 4Z" style="fill:#d3d3d3"></path>
    <path d="M654.91 1686.2a2 2 0 0 1-2-2V341.86a2 2 0 0 1 4 0V1684.2a2 2 0 0 1-2 2ZM1048 1686.2a2 2 0 0 1-2-2V341.86a2 2 0 1 1 4 0V1684.2a2 2 0 0 1-2 2ZM1441.1 1686.2a2 2 0 0 1-2-2V341.86a2 2 0 0 1 4 0V1684.2a2 2 0 0 1-2 2ZM1834.19 1686.2a2 2 0 0 1-2-2V341.86a2 2 0 0 1 4 0V1684.2a2 2 0 0 1-2 2ZM2227.29 1686.2a2 2 0 0 1-2-2V341.86a2 2 0 0 1 4 0V1684.2a2 2 0 0 1-2 2ZM2620.38 1686.2a2 2 0 0 1-2-2V341.86a2 2 0 0 1 4 0V1684.2a2 2 0 0 1-2 2Z" style="fill:#d3d3d3"></path>
    <rect width="58.29" height="153.36" x="1665.72" y="520.41" rx="29.15" style="fill:#ec685b"></rect>
    <path d="M1694.86 496.74v196.42" style="stroke-width:6px;stroke-miterlimit:10;stroke:#828282;fill:none;stroke-linecap:round"></path>
    <path d="M900.11 717.36v267.17M1059.06 775.72v381.9M1218.01 609.03v399.54M1376.96 705.38v268.7M1853.81 436.56v261.95M2012.76 581.38V840.1M2171.72 683.33v134.8M2330.67 550.54v177.35" style="fill:none;stroke-linecap:round;stroke:#828282;stroke-miterlimit:10;stroke-width:4px"></path>
    <path d="m677.71 1556.88 88.38-55.89 33.65 29.18 30.28-29.18 11.78 5.7 30.46-26.19 18.71 8.09 37.48-105.3 33.41 57.99 49.87-201.38 37.25 39.68 31.73-43.79 20.19 21.4 10.1-13.76 52.16 64.43 44.98-109.43 95.22 9.63 21.31 43.09 16.83-15.36 42.06 39.65 86.02-52.33 160.71 56.47 40.54-56.47 61.01 78.41 47.11-58.09 11.77 12.76 73.46-99.33 30.86 34.67 53.84-58.71 26.92 29.68 55.52-52.73 99.27 93.03h116.09l47.11 76.78 28.6-39.68 16.83 17.29 20.19-34.08 18.5 20.32 40.38-64.78 26.92 32.54 172.08-190.73" style="stroke-linejoin:round;stroke-width:14px;stroke:#eb685b;fill:none;stroke-linecap:round"></path>
    <path d="m647.82 1287.98 116.66 81.94 31.4-26.25h47.11l112.17 93.04 83-118.37 49.36 40.83 90.64-197.45 17.03 31.38 65.06-145.21 67.3 65.45 34.77-30.7 102.77 110.46h188.58l95.62-121.37 47.11 55.63 98.71-170.94 26.92 42.2 65.06-102.5 89.73 102.5 67.3.98 24.67 41.57 17.95-23.23 33.65 60.59 26.92-44.26 74.03 187 56.08-83.72 17.95 13.06 60.57-91.27 33.65 19.19 116.65-231.12" style="stroke:#ffb523;stroke-linejoin:round;stroke-width:14px;fill:none;stroke-linecap:round"></path>
    <rect width="58.29" height="184.45" x="870.96" y="771.96" rx="29.15" style="fill:#ec685b"></rect>
    <rect width="58.29" height="184.45" x="1347.81" y="751.96" rx="29.15" style="fill:#ec685b"></rect>
    <rect width="58.29" height="154.56" x="1029.91" y="864.19" rx="29.15" style="fill:#ffb523"></rect>
    <rect width="58.29" height="247.78" x="1188.86" y="664.87" rx="29.15" style="fill:#ffb523"></rect>
    <rect width="58.29" height="178.62" x="1983.62" y="593.34" rx="29.15" style="fill:#ffb523"></rect>
    <rect width="58.29" height="94.96" x="1824.67" y="469.18" rx="29.15" style="fill:#ec685b"></rect>
    <rect width="58.29" height="70.03" x="2142.57" y="711.38" rx="29.15" style="fill:#ec685b"></rect>
    <rect width="58.29" height="115.36" x="2301.52" y="579.39" rx="29.15" style="fill:#ffb523"></rect>
    <path d="M1969.18 1767.73c-34.84 21.46-59.52 36-59.52 36l15.14-205.32 50.52-79.68-1.76-4.69-43.71-116.57-75.79 288-218.35-17.65-218.33 17.65-75.79-288-45.48 121.26 13.87 21.89 26.41 41.64 10.25 16.14 11.27 120.9 3.1 33.22 1.7 18.16s-6.24-3-16.88-8.13c-62.12-30.13-273.81-135.12-269.49-164.14 5.06-34 131.36-494 179.36-554.63 26.79-33.83 142.2-56.65 239-70.22-1.75 4.92 129.7 423.91 129.7 423.91l30.16 35.36 117.06-460c97.79 13.46 216.9 36.49 244.17 70.94 48 60.63 174.33 520.63 179.38 554.63 3.51 24.11-141.29 117.15-225.99 169.33Z" style="fill:#2c4a5b"></path>
    <path d="m1969.18 1767.73 47.23-81.57c5.69-3.42 162.23-126.59 178.7-87.74 3.57 24.09-141.23 117.13-225.93 169.31ZM1296.11 1518.74l13.87 21.89h-54.51s23.89-64.42 47.58-143.15 7.28-181.58 18.46-150.63 20.08 150.63 20.08 150.63ZM2025.89 1529.27l-52.33-15.22-43.71-116.57s9-79.15 20.09-134.23 11.26 48.66 11.4 101.44 64.55 164.58 64.55 164.58ZM1389.25 1733.9l-28.25 18.64-15.18 10c-62.12-30.13-273.81-135.12-269.49-164.14 0 0 21.14-33.15 85.57 14.21 46.77 34.39 145.46 82.76 196 106.69 19.1 9.05 31.35 14.6 31.35 14.6Z" style="fill:#222c38"></path>
    <path d="m1771.55 972.85-77.82 353.89-69.4 70.74s-131.44-419-129.69-423.91h.16l19.5-3 1 .24 120.38 28.56Z" style="fill:#e5e5e5"></path>
    <path d="M1499 970.63s62.64 194.52 106.22 259.1h77.88s71.39-198.91 87.23-256.16l-51.42 306.54-60 26.42-88.74-43.28L1492 999.32l-4-26.47Z" style="fill:#c6c6c6"></path>
    <path d="M1627 1105.73s-19.9-4.67-29-37.52l-20.52 42.32-78.48-139.9 128 26.64 31.91-2.47s110.23-20.51 111.42-21.23-66.58 132.16-66.58 132.16l-27.06-38.15s-5 30.32-25 41.05Z" style="fill:#c6c6c6"></path>
    <path d="M1805.93 766.55c-3.27 21.15-17.63 36.49-32.11 34.27a20.23 20.23 0 0 1-2.91-.7s10.41-32.78 8.52-75.81a18.57 18.57 0 0 1 6.18-.1c14.48 2.23 23.57 21.18 20.32 42.34ZM1500.5 800.12a19.65 19.65 0 0 1-2.89.7c-14.48 2.22-28.87-13.12-32.12-34.27s5.85-40.11 20.33-42.34a18.45 18.45 0 0 1 6.16.1 345.2 345.2 0 0 0 8.52 75.81Z" style="fill:#ec685b"></path>
    <path d="M2898.89 2069.59h-2378c-18.57 0-27.7-22.64-14.3-35.52l239.94-230.79a116.66 116.66 0 0 1 80.88-32.58H2585.7a116.66 116.66 0 0 1 79.73 31.49L2913 2033.88c13.66 12.79 4.62 35.71-14.11 35.71Z" style="fill:#bfa195"></path>
    <path d="m864 1919.12 113.44 13s241.57-72.37 238.73-71.24-78.21-25.93-78.21-25.93Z" style="fill:#222c38"></path>
    <ellipse cx="2323.48" cy="1877.81" rx="148.5" ry="26.82" style="fill:#222c38"></ellipse>
    <path d="m1362.72 1853.28-115.22 93.94a11.05 11.05 0 0 0 9.15 17.35l812-4.92a11.05 11.05 0 0 0 9.49-16.6l-125.85-82.18Z" style="fill:#222c38"></path>
    <path d="M1688.85 1213.73s-32.87 107.12-40.44 105.43-47-95-47.5-96.18c9.62-72.17 30.71-131.18 30.71-131.18h18.22c17.44 36.63 30.09 81.34 39.01 121.93Z" style="fill:#ec685b"></path>
    <path d="M1539.08 844.17h193.26v150.01h-193.26z" style="fill:#f7ac84"></path>
    <path d="M1538.08 870.53c0 3.08 56.42 108.35 114.56 83.71s79.7-83.71 79.7-83.71Z" style="fill:#ec685b"></path>
    <path d="M1770.91 800.12c-20.23 71.39-73.12 122.32-135.21 122.32s-115-50.93-135.2-122.32a345.2 345.2 0 0 1-8.52-75.81c4.57-97.79 67.16-175.31 143.72-175.31s139.18 77.47 143.73 175.26c1.89 43.08-8.52 75.86-8.52 75.86Z" style="fill:#f7ac84"></path>
    <path d="M1629.51 863a63.27 63.27 0 0 1-17.64-2.48c-15.47-4.47-24.41-13.28-24.78-13.65a2 2 0 0 1 2.83-2.83 58.37 58.37 0 0 0 23.25 12.69c19.46 5.56 39.79 1.21 60.42-12.92a2 2 0 0 1 2.26 3.3c-17.71 12.15-33.53 15.89-46.34 15.89ZM1634.12 809.58h-.21c-13-1.4-21.68-7.19-23.12-15.47-1.3-7.48 3.74-15.17 12.84-19.58 15.35-7.44 9.35-23.32 9.09-24a2 2 0 1 1 3.72-1.47c.08.2 7.65 20-11.06 29.06-7.45 3.61-11.63 9.62-10.65 15.29 1.12 6.43 8.45 11 19.6 12.18a2 2 0 0 1-.21 4Z" style="fill:#222c38"></path>
    <path d="M1539.08 732.42s25.11-13.26 49.43 0M1682.91 732.42s25.11-13.26 49.43 0" style="fill:none;stroke-linecap:round;stroke-miterlimit:10;stroke-width:4px;stroke:#365973"></path>
    <path d="M1577.69 735.74a13.9 13.9 0 1 1-25.4-7.81 55.61 55.61 0 0 1 22.71-.41 13.83 13.83 0 0 1 2.69 8.22ZM1721.52 735.74a13.9 13.9 0 1 1-25.38-7.82 55.71 55.71 0 0 1 22.69-.4 13.76 13.76 0 0 1 2.69 8.22Z" style="fill:#365973"></path>
    <path d="M1516.82 708.42s31-21.22 76-6.26c5.62 1.87 11.7-2.12 11.66-8 0-4.41-3.42-9-15.66-11-27.16-4.42-58.73 13.26-72 25.26ZM1751.45 708.42s-31-21.22-76-6.26c-5.62 1.87-11.7-2.12-11.66-8 0-4.41 3.41-9 15.65-11 27.17-4.42 58.75 13.26 72.01 25.26ZM1492.82 780.69c-.14 0-13.93-.4-16.48-18.3-.85-6 .26-10.76 3.31-14.28 4.88-5.62 12.86-5.69 13.19-5.69a2 2 0 0 1 0 4c-.09 0-6.54.1-10.19 4.33-2.25 2.61-3 6.33-2.36 11.08 2.06 14.41 12.15 14.85 12.58 14.86a2 2 0 0 1 0 4ZM1779.34 780.69a2 2 0 0 1 0-4c.42 0 10.52-.45 12.58-14.86.67-4.75-.12-8.47-2.36-11.08-3.67-4.24-10.13-4.33-10.2-4.33a2 2 0 0 1 0-4c.34 0 8.31.07 13.19 5.69 3 3.52 4.17 8.32 3.31 14.28-1.31 9.24-5.65 13.72-9 15.86a15.81 15.81 0 0 1-7.42 2.44Z" style="fill:#222c38"></path>
    <circle cx="1532.3" cy="786.42" r="20.53" style="fill:#ec685b"></circle>
    <circle cx="1736.87" cy="786.42" r="20.53" style="fill:#ec685b"></circle>
    <ellipse cx="1563.8" cy="754.85" rx="45.16" ry="38.21" style="fill:#365973;opacity:.18"></ellipse>
    <ellipse cx="1703.45" cy="754.85" rx="45.16" ry="38.21" style="fill:#365973;opacity:.18"></ellipse>
    <ellipse cx="1563.8" cy="754.85" rx="45.16" ry="38.21" style="fill:none;stroke-linecap:round;stroke-miterlimit:10;stroke-width:4px;stroke:#eee"></ellipse>
    <ellipse cx="1703.45" cy="754.85" rx="45.16" ry="38.21" style="fill:none;stroke-linecap:round;stroke-miterlimit:10;stroke-width:4px;stroke:#eee"></ellipse>
    <path d="M1609 752s27-22.94 49.35 2.85M1518.64 754.85l-33.21-33.79M1748.61 754.85l32.84-33.79" style="fill:none;stroke-linecap:round;stroke-miterlimit:10;stroke-width:4px;stroke:#eee"></path>
    <path d="M1680.41 1016s-.48 6.53-1.84 16.07c-2.16 15.19-6.56 38-14.73 54.23v.07c-2.87 5.67-6.2 10.52-10.08 14a20.89 20.89 0 0 1-9.06 4.94 17.33 17.33 0 0 1-2.9.43 21.6 21.6 0 0 1-13.48-3.74c-4.83-3.19-9-8.14-12.56-13.94a96.24 96.24 0 0 1-6.46-12.74c-.54-1.26-1-2.52-1.52-3.78-.12-.29-.24-.58-.34-.87-.49-1.28-.95-2.55-1.41-3.82a200.66 200.66 0 0 1-8-30.83l32.91-38.53 2.74-3.19Z" style="fill:#ec685b"></path>
    <path d="m1658.94 1444.62-4.46 7.75-8.13-11.31-33.56-46.65L1436 1148.63l58.66-63.15-65-20.21 65-91.7s54.52 154.95 102.25 291.68c21.3 61 41.25 118.47 54.39 156.84 2.88 8.51 5.45 16.07 7.64 22.53Z" style="fill:#222c38"></path>
    <path d="m1770.39 1085.48 58.65 63.15-140.13 243.86-30 52.13-4.46 7.75-5.47 9.51-13.8 24c-.14-.52 2.75-12.28 7.8-31.92 1-4 2.13-8.31 3.34-12.92 1.52-5.86 3.16-12.2 4.93-19 11.55-44.28 28-106.64 45.07-170.81 35.79-134.85 74-277.71 74-277.71l65 91.7ZM1362.72 1285.05h121.26v21.47h-121.26zM1328.09 1280.06q-5.25-28.82-12-57.32t-15.09-56.87q-8.24-28.11-17.94-55.75t-20.83-54.73c-.93-2.26-1.86-4.51-2.81-6.76a2.07 2.07 0 0 0-2.46-1.4 2 2 0 0 0-1.39 2.46q11.29 27 21.19 54.59t18.23 55.37q8.38 27.91 15.31 56.25t12.43 57.23q5.43 28.63 9.36 57.53l1 7.27a2.07 2.07 0 0 0 2 2 2 2 0 0 0 2-2q-3.77-29.05-9-57.87ZM1990.36 1064.54q-7.35 28.71-14.19 57.53t-13.23 58q-6.32 28.94-12.13 58t-11.11 58.2q-5.33 29.28-10.12 58.67-.6 3.6-1.17 7.2c-.41 2.52 3.45 3.6 3.85 1.06q4.73-29.23 10-58.4t11-58.51q5.74-29.07 12-58t13-57.79q6.8-29 14.12-57.84.9-3.54 1.81-7.07c.66-2.48-3.19-3.54-3.83-1.05Z" style="fill:#222c38"></path>
    <path d="m2107.08 1513.92-112.14 374.78a44.46 44.46 0 0 1-42.6 31.72h-600.71a44.48 44.48 0 0 1-42.63-31.72l-6-20-106.16-354.83a21.78 21.78 0 0 1 20.86-28h868.5a21.79 21.79 0 0 1 20.88 28.05Z" style="fill:#e5e5e5"></path>
    <path d="M1216.05 1508.18a1.77 1.77 0 0 1 1.7-2.28h239.07" style="fill:none;stroke-linecap:round;stroke-miterlimit:10;stroke-width:4px;stroke:#fff"></path>
    <path d="M1752.4 1900.42h-24.63M1952.34 1900.42h-150.68" style="fill:none;stroke-linecap:round;stroke-miterlimit:10;stroke-width:4px;stroke:#365973"></path>
    <path d="M1530.72 1505.9h36" style="fill:none;stroke-linecap:round;stroke-miterlimit:10;stroke-width:4px;stroke:#fff"></path>
    <path d="M1009.78 1746.57h34.11v245.05h-34.11z" style="fill:#bf7d13" transform="rotate(-107.08 1026.86 1869.101)"></path>
    <path d="m881.9 1905.79 6.39 2-3.77 4.78 5.92 2.19-3.59 5.38-22.83-1.02 17.41-12.99.47-.34z" style="fill:#365973"></path>
    <path d="m904.7 1888.79 10.02 32.6-27.87-1.25 3.59-5.38-5.92-2.19 3.77-4.78-6.39-2 22.8-17z" style="fill:#f5f5f5"></path>
    <path d="M1015.7 1738.35h17.21v245.05h-17.21z" style="fill:#ffb523" transform="rotate(-107.08 1024.339 1860.877)"></path>
    <path d="M2421.31 1851c0 4-6 7.8-16.48 11-21.29 6.61-61.09 11-106.68 11s-85.39-4.44-106.68-11c-10.48-3.25-16.48-7-16.48-11 0-12.21 55.14-22.11 123.16-22.11s123.16 9.9 123.16 22.11Z" style="fill:#fff"></path>
    <path d="M2370.72 1672.89c0 7.33-35.63 13.27-79.58 13.27s-79.58-5.94-79.58-13.27 35.63-13.26 79.58-13.26 79.58 5.94 79.58 13.26Z" style="fill:#bf7d13"></path>
    <path d="m2211.56 1839 1 2a3 3 0 0 1-1-2ZM2370.72 1839a3 3 0 0 1-.95 2Z" style="fill:#8298a8"></path>
    <path d="M2370.72 1672.89V1839l-.95 2c-1.83 2-6.25 3.79-12.67 5.38-14.31 3.52-38.51 5.84-66 5.84s-51.65-2.32-66-5.84c-6.42-1.59-10.84-3.41-12.67-5.38l-1-2v-166.1c0 7.33 35.63 13.27 79.58 13.27s79.71-5.95 79.71-13.28Z" style="fill:#ffb523"></path>
    <path d="m2369.77 1841-5.18 11.22c0 7.32-32.88 13.26-73.45 13.26s-73.45-5.94-73.45-13.26l-5.18-11.22c1.83 2 6.25 3.79 12.67 5.38 14.31 3.52 38.51 5.84 66 5.84s51.65-2.32 66-5.84c6.34-1.55 10.76-3.38 12.59-5.38Z" style="fill:#e09819"></path>
    <path d="M2370.72 1823.1v-20c19 0 34.52-16.32 34.52-36.37s-15.48-36.38-34.52-36.38v-20c30.06 0 54.52 25.29 54.52 56.38s-24.46 56.37-54.52 56.37Z" style="fill:#ffb523"></path>
    <path d="M2421.31 1851v22.1c0 12.21-55.14 22.11-123.16 22.11s-123.15-9.9-123.15-22.11V1851c0 4 6 7.8 16.48 11 21.29 6.61 61.09 11 106.68 11s85.39-4.44 106.68-11c10.47-3.2 16.47-7 16.47-11Z" style="fill:#d3d3d3"></path>
    <path d="M1779.93 740.18c-.94 6.36-7.46 34.53-10.25 20.9 0 0 6.51-30-4.67-53.61s-21.89-46.91-10.71-66c0 0-1.39-38.51-44.24-31.24s-92.24-5.45-107.15-7.27-37.27 61.79-89.44 69.06c0 0-16.77 52.71-14 74.51s6.53 31.81 6.53 31.81-11.18 5.45-16.78-27.26-11.2-48.66-19.57-97.23c0 0-28-23.62 18.65-76.33 34.18-38.63 23.45-57.95 78.25-67.24 0 0 21.92-56.07 127.63-10.91 80.57 34.43 71.74 78.15 71.74 78.15s17.71-2.73 26.09 30.9-11.15 125.4-12.08 131.76Z" style="fill:#222c38"></path>
    <path d="M1756.37 579.21a43.44 43.44 0 0 1-24.09 19.25c-2.44.78-1.4 4.64 1.06 3.86a47.63 47.63 0 0 0 26.48-21.09c1.31-2.23-2.15-4.23-3.45-2.02ZM1511.78 667.22a108.82 108.82 0 0 1-36.85-8.77 2.07 2.07 0 0 0-2.74.72 2 2 0 0 0 .72 2.74 114.46 114.46 0 0 0 38.87 9.31c2.57.16 2.56-3.85 0-4ZM1695.73 606a68.08 68.08 0 0 0-35.2-30.68 55.1 55.1 0 0 0-44.93 3 48.48 48.48 0 0 0-18.66 17.43c-1.34 2.2 2.11 4.21 3.45 2 7.42-12.19 20.95-19.93 35-21.58 14.67-1.73 29.31 3.29 40.69 12.53a66.81 66.81 0 0 1 16.2 19.29c1.25 2.31 4.72.29 3.45-1.99Z" style="fill:#fff"></path>
    <path d="M1693.47 583.32c-6-14.59-19.83-23.67-33.24-30.76a97.21 97.21 0 0 0-24-9.35 65.36 65.36 0 0 0-25.39-.56c-16.83 2.87-32 11.7-44.77 22.76a179.18 179.18 0 0 0-17.78 18c-5.47 6.28-10.51 12.92-16 19.23-10.08 11.71-24 23.59-40.6 21.47a27.6 27.6 0 0 1-5.58-1.38c-2.43-.87-3.47 3-1.06 3.85 15.62 5.57 31.9-2.83 43-13.56 5.91-5.7 11-12.22 16.12-18.58a248.11 248.11 0 0 1 16.7-18.79c11.68-11.7 25.32-21.79 41.24-26.82a65.73 65.73 0 0 1 24.35-3.09 72.15 72.15 0 0 1 24.32 6.6 129.88 129.88 0 0 1 20.94 11.74c6 4.19 11.67 9.23 15.49 15.56a35.12 35.12 0 0 1 2.38 4.7 2.07 2.07 0 0 0 2.46 1.4 2 2 0 0 0 1.42-2.42Z" style="fill:#fff"></path>
    <path d="m2107.08 1513.92-112.14 374.78a44.46 44.46 0 0 1-42.6 31.72h-600.71a44.48 44.48 0 0 1-42.63-31.72l-6-20c63.84-5.37 271.36-50.81 666.48-382.85h116.72a21.79 21.79 0 0 1 20.88 28.07Z" style="fill:#d3d3d3"></path>
    <ellipse cx="1651.98" cy="1701.27" rx="52.47" ry="41.68" style="fill:#fff"></ellipse>
    <path d="M1710.06 610.24c-23.3 7.93-75.13 5.76-88.38 5.13s-25 13-25 13c-45.9 52.49-83.17 43.64-83.17 43.64 52.17-7.27 74.53-70.87 89.44-69.06s64.24 14.56 107.11 7.29Z" style="fill:#ec685b"></path>
    <path d="M1696.35 1251.28c-17 64.17-33.52 126.53-45.07 170.81-13.14-38.37-33.09-95.79-54.39-156.84.77-14.36 2.19-28.55 4-42.27.52 1.21 40 94.51 47.5 96.18s40.44-105.43 40.44-105.43c2.89 13.08 5.37 25.73 7.52 37.55ZM1644.18 1099.17l-.09-1.1c.03.32.05.69.09 1.1ZM1659.78 1163c-5.65 3.47-9.14-1.74-17-52.89 0 0-1.11 57.1-11.29 54.57-8-2 6-55 6-55s-5-1.34-9.18-7.71a21.6 21.6 0 0 0 13.48 3.74 17.33 17.33 0 0 0 2.9-.43 20.89 20.89 0 0 0 9.06-4.94l-6.15 8.31s16.81 51.46 12.18 54.35Z" style="fill:#cc5650"></path>
    <path d="m1736.87 919.17-101.67 70.31-97.12-70.31-39.04 51.47 77.84 108.84 23.48-32 35.34-48.15 40.35 47.72 27.4 32.43 68.11-106.63-34.69-53.68z" style="fill:#f9f9f9"></path>
    <path d="M1676.05 1047.05c-2.55 13-6.43 27.8-12.21 39.25v.07c3.9-11.85 4.92-24.47 2.39-30.16s-30.49-37.89-30.49-37.89-26 34.42-27 42.95c-.92 8.27 6.5 25.66 6.94 26.67a96.24 96.24 0 0 1-6.46-12.74c-.54-1.26-1-2.52-1.52-3.78-.12-.29-.24-.58-.34-.87-.49-1.28-.95-2.55-1.41-3.82a193.53 193.53 0 0 1-5.57-19.25l35.34-48.15Z" style="fill:#cc5650"></path>
  </g>
</svg>
