<svg xmlns="http://www.w3.org/2000/svg" viewBox="0 0 3395.36 2409.45" id="man-examines-his-brokerage-account">
  <g id="Layer_2">
    <ellipse cx="814.83" cy="2048.06" rx="114.19" ry="21.98" style="fill:#d3d3d3"></ellipse>
    <ellipse cx="1580.36" cy="1215.75" rx="633.32" ry="1107.57" style="opacity:.55;fill:#d3d3d3" transform="rotate(-55.94 1580.276 1215.732)"></ellipse>
    <path d="M1627.57 2026.08s-532.88 6.71-467 51.51q-24.84-.49-50.83-.5c-180.16 0-326.22 18.57-326.22 41.48S929.54 2160 1109.7 2160c144 0 266.2-11.86 309.46-28.32C1767.74 2182 2380 2256.58 2464 2183.42c108.35-94.42-836.43-157.34-836.43-157.34Z" style="fill:#d3d3d3"></path>
    <path d="M2780.82 617.9H548.47a1.93 1.93 0 0 1 0-3.85h2232.35a1.93 1.93 0 0 1 0 3.85ZM2780.82 744.1H548.47a1.93 1.93 0 0 1 0-3.85h2232.35a1.93 1.93 0 0 1 0 3.85ZM2780.82 870.3H548.47a1.93 1.93 0 0 1 0-3.85h2232.35a1.93 1.93 0 0 1 0 3.85ZM2780.82 996.5H548.47a1.93 1.93 0 0 1 0-3.85h2232.35a1.93 1.93 0 0 1 0 3.85ZM2780.82 1122.7H548.47a1.93 1.93 0 0 1 0-3.85h2232.35a1.93 1.93 0 0 1 0 3.85ZM2780.82 1248.9H548.47a1.93 1.93 0 0 1 0-3.85h2232.35a1.93 1.93 0 0 1 0 3.85ZM2780.82 1375.1H548.47a1.93 1.93 0 0 1 0-3.85h2232.35a1.93 1.93 0 0 1 0 3.85Z" style="fill:#fff"></path>
    <path d="M718.44 1479.36a1.92 1.92 0 0 1-1.92-1.93V531.69a1.93 1.93 0 0 1 3.85 0v945.74a1.93 1.93 0 0 1-1.93 1.93ZM1096.82 1479.36a1.92 1.92 0 0 1-1.92-1.93V531.69a1.93 1.93 0 0 1 3.85 0v945.74a1.93 1.93 0 0 1-1.93 1.93ZM1475.2 1479.36a1.93 1.93 0 0 1-1.93-1.93V531.69a1.93 1.93 0 0 1 3.86 0v945.74a1.93 1.93 0 0 1-1.93 1.93ZM1853.58 1479.36a1.93 1.93 0 0 1-1.93-1.93V531.69a1.93 1.93 0 0 1 3.85 0v945.74a1.92 1.92 0 0 1-1.92 1.93ZM2232 1479.36a1.93 1.93 0 0 1-1.93-1.93V531.69a1.93 1.93 0 0 1 3.85 0v945.74a1.92 1.92 0 0 1-1.92 1.93ZM2610.34 1479.36a1.93 1.93 0 0 1-1.93-1.93V531.69a1.93 1.93 0 0 1 3.86 0v945.74a1.93 1.93 0 0 1-1.93 1.93Z" style="fill:#fff"></path>
    <path d="M1275.99 826.25v267.17M1434.94 884.6v381.91M1593.89 717.92v399.54M1752.84 814.26v268.71" style="fill:none;stroke-miterlimit:10;stroke:#828282;stroke-linecap:round;stroke-width:4px"></path>
    <rect width="58.29" height="184.45" x="1246.84" y="880.85" rx="29.15" style="fill:#ec685b"></rect>
    <rect width="58.29" height="184.45" x="1723.69" y="860.85" rx="29.15" style="fill:#ec685b"></rect>
    <rect width="58.29" height="154.56" x="1405.79" y="973.07" rx="29.15" style="fill:#ffb523"></rect>
    <rect width="58.29" height="247.78" x="1564.74" y="773.76" rx="29.15" style="fill:#ffb523"></rect>
    <path d="M2342.82 753.66v261.94M2501.77 898.47v258.73M2660.72 1000.43v134.79M2819.67 867.63v177.36" style="fill:none;stroke-miterlimit:10;stroke:#828282;stroke-linecap:round;stroke-width:4px"></path>
    <rect width="58.29" height="178.62" x="2472.62" y="910.44" rx="29.15" style="fill:#ffb523"></rect>
    <rect width="58.29" height="94.96" x="2313.67" y="786.28" rx="29.15" style="fill:#ec685b"></rect>
    <rect width="58.29" height="70.03" x="2631.57" y="1028.48" rx="29.15" style="fill:#ec685b"></rect>
    <rect width="58.29" height="115.36" x="2790.52" y="896.49" rx="29.15" style="fill:#ffb523"></rect>
    <path d="M2432 325.66c-16.24-28.63-45-49.54-77.59-53l-725.21-76.78c-46.9-5-84.77 32-84.77 82.59v1652.94c0 50.57 37.87 99 84.77 108.18l725.21 142.14c50.52 9.91 91.64-24.84 91.64-77.65V378a106.12 106.12 0 0 0-14.05-52.34ZM2409 2097c0 31.4-24.52 52.18-54.58 46.34l-725.21-140.82c-28-5.44-50.66-34.39-50.66-64.56V282.23c0-30.18 22.69-52.28 50.66-49.27l318.31 34.28c1.39 23 19.24 42.95 41.09 45.34s39.84-13.73 41.24-36.47l324.57 34.95c30.06 3.24 54.58 31.42 54.58 62.83Z" style="fill:#b2b2b2"></path>
    <path d="M2379.7 640.82v1456.3c0 31.41-24.52 52.19-54.58 46.36l-725.27-140.84c-28-5.43-50.66-34.39-50.66-64.56V538.72Z" style="fill:#f7f7f7"></path>
    <path d="M2379 373.89v266.84l-830.48-102.09V282.23c0-30.18 22.69-52.28 50.66-49.27l318.31 34.28c1.39 23 19.24 42.95 41.09 45.34s39.84-13.73 41.24-36.47l324.57 34.95c30.06 3.24 54.61 31.42 54.61 62.83Z" style="fill:#ffb523"></path>
    <path d="m1917.49 267.24 82.33 8.87c-1.4 22.74-19.35 38.87-41.24 36.47s-39.7-22.38-41.09-45.34Z" style="fill:#fff"></path>
    <path d="M2402 325.66c-16.24-28.63-45-49.54-77.59-53l-725.21-76.78c-46.9-5-84.77 32-84.77 82.59v1652.94c0 50.57 37.87 99 84.77 108.18l725.21 142.14c50.52 9.91 91.64-24.84 91.64-77.65V378a106.12 106.12 0 0 0-14.05-52.34ZM2379 2097c0 31.4-24.52 52.18-54.58 46.34l-725.21-140.82c-28-5.44-50.66-34.39-50.66-64.56V282.23c0-30.18 22.69-52.28 50.66-49.27l318.31 34.28c1.39 23 19.24 42.95 41.09 45.34s39.84-13.73 41.24-36.47l324.57 34.95c30.06 3.24 54.58 31.42 54.58 62.83Z" style="fill:#222c38"></path>
    <path d="M1978.37 274c0 11.17-8.53 19.29-19 18.15s-19-11.1-19-22.24 8.51-19.27 19-18.15 19 11.04 19 22.24Z" style="fill:#fff"></path>
    <path d="m2316.26 399.08-34.78-3.89c-11.19-1.26-20.24-11.74-20.24-23.43 0-11.68 9.05-20.16 20.24-18.93l34.78 3.82c11.23 1.24 20.35 11.74 20.35 23.47 0 11.73-9.12 20.21-20.35 18.96Z" style="stroke:#fff;stroke-width:2px;fill:none;stroke-miterlimit:10"></path>
    <path d="M2281.48 389.44c-8.14-.91-14.75-8.57-14.75-17.07s6.61-14.69 14.75-13.79l34.78 3.83c8.17.9 14.82 8.57 14.82 17.1s-6.65 14.72-14.82 13.81ZM2142.54 337.56l11.43 1.26v42.1l-11.43-1.28v-42.08zM2125.88 342.61l11.41 1.26v35.18l-11.41-1.27v-35.17zM2109.24 348.36l11.4 1.26v27.57l-11.4-1.27v-27.56zM2092.63 353.07l11.38 1.26v21l-11.38-1.27v-20.99zM2076.05 358.44l11.36 1.27v13.76l-11.36-1.27v-13.76zM2214.62 377.89l-6.11 8.16-6.11-9.52a7.94 7.94 0 0 1 6.11-1.81 10 10 0 0 1 6.11 3.17ZM2208.51 342.8a34.89 34.89 0 0 0-24 5.9l4.16 6.47a28.61 28.61 0 0 1 19.82-4.94 35 35 0 0 1 19.85 9.32l4.17-5.57a42.75 42.75 0 0 0-24-11.18ZM2208.51 358.89a21.35 21.35 0 0 0-15 3.83l4.16 6.47a15 15 0 0 1 10.82-2.87 18.52 18.52 0 0 1 10.82 5.27l4.17-5.55a26.21 26.21 0 0 0-14.97-7.15ZM1718.79 291l-112.49-12.36c-10.48-1.15-19 7.09-19 18.4 0 11.31 8.49 21.43 19 22.6l112.49 12.59c10.6 1.19 19.21-7.09 19.21-18.48 0-11.4-8.61-21.58-19.21-22.75Z" style="fill:#fff"></path>
    <path d="m1763.78 1135.63-69.78 43.79q-60.76-99.26-60.74-210.33l85.91 12.32v.21c.02 55.04 16.54 108.38 44.61 154.01Z" style="fill:#bfa195"></path>
    <path d="m1905.79 1256-18.19 88.24c-82.21-31.75-144.79-85.14-193.58-164.83l69.76-43.79c33.53 54.54 83.69 98.18 142.01 120.38Z" style="fill:#2c4a5b"></path>
    <path d="M2158.82 1320.89c-79.42 52.79-174.37 60.76-271.22 23.36l18.19-88.24a244.89 244.89 0 0 0 49.67 13.24c55.67 8.67 107.18-3.52 148.25-31.15Z" style="fill:#bf7d13"></path>
    <path d="m2158.82 1320.89-55.11-82.79c56.83-38.2 93.51-105.78 93.51-187.91q0-9.14-.61-18.21l90.38 6.25c8.17 123.12-36.75 221.86-128.17 282.66Z" style="fill:#ffb523"></path>
    <path d="m2287 1038.23-90.38-6.25c-7.35-111.77-81.35-213-179.2-253.47l23-88c138.9 57.09 236.38 193.9 246.58 347.72Z" style="fill:#fb957c"></path>
    <path d="m2040.44 690.56-23 88a244.62 244.62 0 0 0-62-16.72c-131.08-17.21-236.16 81.2-236.27 219.62l-85.91-12.32c0-188.89 143-323.9 322.13-301.19 31.87 3.98 54.12 9.92 85.05 22.61Z" style="fill:#ec685b"></path>
    <path d="m2131.21 1918.87 58.45 10.83M2131.21 1844.09l58.45 10.62M2131.21 1769.31l58.45 10.41M2131.21 1694.53l58.45 10.2M2131.21 1619.75l58.45 10M2131.21 1544.97l58.45 9.79" style="fill:none;stroke-miterlimit:10;stroke:#000"></path>
    <path d="m1894.26 1478.67 183.79 30.54c13.94 2.32 25.25 16.13 25.25 30.85v.47c0 14.72-11.31 24.74-25.25 22.39l-183.79-31c-13.67-2.3-24.75-16-24.75-30.52v-.47c0-14.57 11.08-24.53 24.75-22.26Z" style="fill:#ec685b"></path>
    <path d="M2078.27 1563.19 1894 1532.1c-13.67-2.3-24.75-16-24.75-30.52v-.94c0-14.56 11.08-24.51 24.75-22.24l184.27 30.6c13.94 2.32 25.25 16.13 25.25 30.85v1c0 14.67-11.31 24.7-25.25 22.34Zm-183.79-31.48 183.34 30.93c13.94 2.36 25.25-7.67 25.25-22.38 0-14.72-11.31-28.53-25.25-30.85l-183.34-30.47c-13.67-2.27-24.74 7.69-24.74 22.24 0 14.55 11.07 28.22 24.74 30.53Z" style="fill:#06826d"></path>
    <path d="m1894.26 1552.61 105.47 17.9c13.83 2.35 25.06 16.14 25.06 30.8v.47c0 14.67-11.23 24.62-25.06 22.23l-105.47-18.17c-13.67-2.36-24.75-16.06-24.75-30.61v-.47c0-14.56 11.08-24.47 24.75-22.15Z" style="fill:#fb957c"></path>
    <path d="m1894.26 1626.54 74.3 12.88c13.79 2.39 25 16.2 25 30.84v.47c0 14.64-11.2 24.54-25 22.11l-74.3-13.06c-13.67-2.41-24.75-16.15-24.75-30.71v-.47c0-14.55 11.08-24.43 24.75-22.06Z" style="fill:#ffb523"></path>
    <path d="m1894.48 1700.52 58.31 10.31c13.9 2.46 25.17 16.42 25.17 31.18 0 14.76-11.27 24.7-25.17 22.2l-58.31-10.46c-13.79-2.47-25-16.38-25-31.06.03-14.69 11.21-24.61 25-22.17Z" style="fill:#bf7d13"></path>
    <path d="m1894.26 1774.41 43.23 7.8c13.75 2.48 24.91 16.35 24.91 31v.47c0 14.62-11.16 24.42-24.91 21.91l-43.23-7.91c-13.67-2.51-24.75-16.33-24.75-30.88v-.47c0-14.58 11.08-24.33 24.75-21.92Z" style="fill:#2c4a5b"></path>
    <path d="m1937.71 1835.83-43.67-8c-13.67-2.5-24.75-16.32-24.75-30.88v-.95c0-14.55 11.08-24.35 24.75-21.88l43.67 7.88c13.75 2.48 24.91 16.34 24.91 31v.94c0 14.6-11.16 24.41-24.91 21.89Zm-43.23-8.38 42.79 7.83c13.75 2.52 24.91-7.29 24.91-21.91 0-14.62-11.16-28.48-24.91-31l-42.79-7.72c-13.67-2.47-24.74 7.33-24.74 21.88 0 14.6 11.07 28.47 24.74 30.92Z" style="fill:#bf7d13"></path>
    <path d="m1894.26 1848.35 27.73 5.1c13.73 2.53 24.87 16.42 24.87 31v.47c0 14.6-11.14 24.37-24.87 21.81l-27.73-5.18c-13.67-2.55-24.75-16.41-24.75-31v-.47c0-14.49 11.08-24.25 24.75-21.73Z" style="fill:#bfa195"></path>
    <path d="m1765.67 1500-142.8-24c-9-1.51-16.28-10.61-16.28-20.31 0-9.71 7.29-16.36 16.28-14.86l142.8 23.78c9.13 1.52 16.54 10.69 16.54 20.48 0 9.7-7.41 16.39-16.54 14.91ZM1765.67 1574.94l-142.8-24.55c-9-1.54-16.28-10.66-16.28-20.37 0-9.7 7.29-16.33 16.28-14.8l142.8 24.3c9.13 1.56 16.54 10.75 16.54 20.54s-7.41 16.45-16.54 14.88ZM1765.67 1648.42l-142.8-25.06c-9-1.58-16.28-10.72-16.28-20.43 0-9.7 7.29-16.3 16.28-14.74l142.8 24.81c9.13 1.59 16.54 10.81 16.54 20.6 0 9.78-7.41 16.4-16.54 14.82ZM1765.67 1721.89l-142.8-25.56c-9-1.61-16.28-10.78-16.28-20.49 0-9.7 7.29-16.28 16.28-14.68l142.8 25.32c9.13 1.62 16.54 10.86 16.54 20.65s-7.41 16.4-16.54 14.76ZM1765.67 1795.37l-142.8-26.07c-9-1.64-16.28-10.84-16.28-20.55 0-9.7 7.29-16.25 16.28-14.62l142.8 25.82c9.13 1.66 16.54 10.93 16.54 20.72s-7.41 16.33-16.54 14.7ZM1765.67 1868.85l-142.8-26.58c-9-1.68-16.28-10.9-16.28-20.61 0-9.7 7.29-16.22 16.28-14.56l142.8 26.33c9.13 1.68 16.54 11 16.54 20.77 0 9.8-7.41 16.35-16.54 14.65Z" style="fill:#e5e5e5"></path>
    <path d="M2125.39 1044.38 1927.52 1016c-15-2.15-27.11-16.8-27.11-32.71 0-15.92 12.13-27.12 27.11-25l197.87 27.88c15.29 2.15 27.7 17 27.7 33.07 0 16.06-12.41 27.33-27.7 25.14ZM1839.34 1003.28l-49.72-7.14c-14.78-2.12-26.75-16.66-26.75-32.47 0-15.81 12-26.95 26.75-24.86l49.72 7c14.88 2.1 27 16.68 27 32.57-.05 15.89-12.12 27.04-27 24.9Z" style="fill:#284151"></path>
    <path d="m1957.63 1081.35-120.87-17.72c-9.19-1.35-16.63-10.39-16.63-20.2 0-9.8 7.44-16.67 16.63-15.34l120.87 17.51c9.3 1.34 16.85 10.45 16.85 20.33 0 9.88-7.55 16.78-16.85 15.42ZM2076.94 1098.84l-50.4-7.39c-9.36-1.37-16.94-10.51-16.94-20.4 0-9.9 7.58-16.83 16.94-15.47l50.4 7.3c9.41 1.37 17 10.53 17 20.46.06 9.94-7.59 16.87-17 15.5Z" style="fill:#e5e5e5"></path>
    <path d="m1714.68 518.81-118.07-14.29c-9-1.08-16.25-9.82-16.25-19.51 0-9.7 7.27-16.69 16.25-15.62l118.07 14.09c9.08 1.08 16.46 9.87 16.46 19.64 0 9.76-7.38 16.79-16.46 15.69Z" style="fill:#bf7d13"></path>
    <path d="m1915.62 543.12-120.38-14.57c-9.15-1.1-16.56-9.93-16.56-19.72s7.41-16.84 16.56-15.75l120.38 14.36c9.27 1.11 16.78 10 16.78 19.85 0 9.86-7.51 16.95-16.78 15.83Z" style="fill:#284151"></path>
    <path d="m2120.53 567.91-122.76-14.86c-9.33-1.12-16.89-10-16.89-19.93 0-9.89 7.56-17 16.89-15.88l122.76 14.64C2130 533 2137.64 542 2137.64 552c0 9.9-7.64 17.05-17.11 15.91ZM2329.52 593.19 2204.3 578c-9.51-1.15-17.22-10.17-17.22-20.15 0-10 7.71-17.16 17.22-16l125.22 14.93C2339.16 558 2347 567 2347 577.09c0 10.06-7.84 17.26-17.48 16.1Z" style="fill:#bf7d13"></path>
    <path d="m2296.27 1589.22-58.1-9.77c-9.54-1.61-17.28-11-17.28-21s7.74-16.81 17.28-15.22l58.1 9.67c9.6 1.6 17.4 11 17.4 21.08 0 10.02-7.8 16.86-17.4 15.24ZM2296.27 1666.14l-58.1-10c-9.54-1.64-17.28-11.08-17.28-21.07 0-10 7.74-16.79 17.28-15.16l58.1 9.88c9.6 1.64 17.4 11.11 17.4 21.15 0 10.06-7.8 16.86-17.4 15.2ZM2296.27 1741.51l-58.1-10.19c-9.54-1.68-17.28-11.14-17.28-21.13 0-10 7.74-16.76 17.28-15.1l58.1 10.09c9.6 1.67 17.4 11.17 17.4 21.21 0 10.04-7.8 16.81-17.4 15.12ZM2296.27 1816.88l-58.1-10.4c-9.54-1.71-17.28-11.2-17.28-21.19 0-10 7.74-16.73 17.28-15l58.1 10.3c9.6 1.7 17.4 11.23 17.4 21.27 0 10-7.8 16.74-17.4 15.02ZM2296.27 1892.25l-58.1-10.61c-9.54-1.74-17.28-11.26-17.28-21.25 0-10 7.74-16.71 17.28-15l58.1 10.51c9.6 1.74 17.4 11.28 17.4 21.33 0 10.06-7.8 16.77-17.4 15.02ZM2296.27 1967.62l-58.1-10.82c-9.54-1.78-17.28-11.32-17.28-21.31 0-10 7.74-16.68 17.28-14.92l58.1 10.72c9.6 1.77 17.4 11.34 17.4 21.39 0 10.04-7.8 16.72-17.4 14.94ZM1956.16 576.84l-206.78-25.31v11.8l206.78 25.42v-11.91z" style="fill:#284151"></path>
    <path d="M927.36 619.54c2 1.42 14.59 7.09 14.59 7.09l19.86 32-34.45-19.53Z" style="fill:#feecec"></path>
    <path d="M1193.39 820.44c-1 10.2-5.62 17.85-7.45 25.4-2.74 11.31-10.28 48.08-22.36 70.31-4 7.37-8.51 13.15-13.5 15.87-20.06 11-45.74 0-53.26-11.55-1.66-2.54-6.2-7-12.52-12.82-22.36-20.57-67-58-85-87.18-23.1-37.39-52.07-168.1-52.07-168.1s32-9.06 61.19 50.19 97.27 106.86 97.27 106.86-3.65-42.72 4.25-45.79c-.3.37-7.34 9.16 0 20.67.21.33.44.67.7 1 8.7 12.23 41.39 38 60.29 42.74q1.72.43 3.3.69c12.57 2.27 17.77-2.51 19.16-8.29Z" style="fill:#222c38"></path>
    <path d="M1163.57 916.15c-4 7.37-8.51 13.15-13.5 15.87-20.06 11-45.74 0-53.26-11.55-1.66-2.54-6.2-7-12.52-12.82l-13.14-81.79c1.15 2.14 40.57 120.93 92.42 90.29Z" style="fill:#222c38"></path>
    <path d="m1005.16 2083.34-5.2 7.34c-95.62-2.91-204.9-106.76-204.9-106.76l-4.86 6.86c-14.69-12.35-58.17-37-54.75-43.27s12.8-16.79 12.8-16.79c3.17 6.27 10.47 15.43 27.27 25.63 31.15 18.9 55.26 45.54 82 66.19s141.54 73.76 145.17 53.2a9.36 9.36 0 0 1 2.47 7.6Z" style="fill:#2c4a5b"></path>
    <path d="M857.57 2022.52c-26.78-20.65-50.89-47.29-82-66.19-16.8-10.2-24.1-19.36-27.27-25.63 4.71-12.31 42.8-50.94 42.8-50.94-1.7 3.71-2.51 5.9-2.82 6.79-1.63 4.51-6.25 46.33 65 47.26 37.43.48 56 .77 65.74 2.76 3.66 9.64 3.7 28 9.08 44.93 6.9 21.69 43.78 57.33 64 70.89s10.68 23.33 10.68 23.33c-3.67 20.56-118.43-32.54-145.21-53.2Z" style="fill:#222c38"></path>
    <path d="M1118.7 1214.94c-4.68 77.6-86.16 395.9-97 448.38-6.06 29.18-19.37 96.4-30.26 154.26-9.52 50.64-17.2 94.11-16.54 98.64 1.42 9.73 9.93 13.38 8.51 26.75s-24.1 18.24-7.09 24.32 19.85 42.56 19.85 42.56c-5.38-4.62-8.84-6.77-18-4.26-10.1 2.8-27.14 11.31-61.41 28.57-65.23 32.83-87.91-7.29-89.33-12.15-.29-1-1-3.33-1.8-7.5-2.19-10.79-5.51-33.63-6.09-75.54-.33-23.21.2-52.29 2.21-88.41.85-15 2.17-30.8 3.88-47 12.56-119.9 45.51-262.1 54.25-291 3.89-12.84 3.07-46.34.62-82.65-3.82-56.53-11.64-119.9-12-122.84-5.24-49.61 32.65-125.4 48.94-155.26 4.37-8 7.19-12.74 7.19-12.74l85.46-7.07 67.91-5.64 9.81-.8s28.79 22.23 31 80.8a85.22 85.22 0 0 1-.11 8.58Z" style="fill:#2c4a5b"></path>
    <path d="m1133.72 1563.67-142.32 254c10.9-57.86 24.21-125.08 30.26-154.26 10.88-52.48 92.35-370.78 97-448.38.08 3.07 3.87 150.11 15 229.52 11.34 80.21.06 119.12.06 119.12ZM1123.25 1164.56s-54.23 8.2-69 39.21-34.86 73.36-34.86 73.36-52.88 6.89-56.53 52.48-66.17-1.79-82.33 100.33c-3.82-56.53-11.64-119.9-12-122.84-5.24-49.61 32.65-125.4 48.94-155.26l73.91-26.25 84.16-7.56h28.37Z" style="fill:#222c38"></path>
    <path d="M970.73 685.2c0 1.82 81.35 118.55 93 130.1s21.25 44.58 24.94 58.16 17.87 126.65 22 146.11 39.42 172 19.36 206.09c0 0-48-138-52.89-172.05s-40.14-212.77-49.87-233.14-56.54-135.27-56.54-135.27Z" style="fill:#2c4a5b"></path>
    <path d="M1179.86 780a53.38 53.38 0 0 0-16.86-16.13c-20.86-12.24-44.07-3.7-51.81-.71l-1.19.46c-.3.37-7.34 9.16 0 20.67.21.33.44.67.7 1l2.66-5.35c0 .61.06 1.24.08 1.88 0 0 28 26.35 51.87 15.4 0 0-.75-12.29-1.69-25.23 0 0 8.18 1.73 7.78 13.48l2.89 43.25c12.56 2.24 17.79-2.54 19.15-8.32.99-10.12-1.44-22.78-13.58-40.4Z" style="fill:#222c38"></path>
    <path d="M938.51 640.82S1056.45 879.74 1082 944.18s10.34 164.75 10.34 164.75-78.31-5.68-117.58 18.44l-26.53-133.95-131.31-311.87v-62S919.66 642 938.51 640.82Z" style="fill:#e5e5e5"></path>
    <path d="m934.33 637.17-128.28-14.59s-.86-11-1.87-24.65c-.32-4.37-.65-9-1-13.63-1.25-17.6-2.38-35.06-2.09-37.1l4.94-42 83 57 39.14 26.88 4.83 37.55Z" style="fill:#f7ac84"></path>
    <path d="M933 626.63c-74.46-15.06-87.66-67.88-87.66-67.88l43.66 3.51 39.13 26.89Z" style="fill:#ec685b"></path>
    <path d="m986.85 496.16-4.1.63c10.7 39.52 16.62 77.91-15.58 93.79-45.46 22.43-120.9-4.34-147.79-58.84l-.09-.18C792.53 477.1 807.61 414.85 853 392.44c22.69-11.19 48.14-11.87 69.72-2.39a75.65 75.65 0 0 1 15.73 9.27 77.36 77.36 0 0 1 10.4 9.58c9.31 10.26 16.52 23.6 20.51 39.94 2.28 9.36 5.14 19.22 8 29.22l6.45-1a9.3 9.3 0 0 1 1.48-.11 9.65 9.65 0 0 1 1.46 19.19Z" style="fill:#f7ac84"></path>
    <path d="M934.33 468.76a1 1 0 0 1-.81-1.48c10.29-16.34 21.59-16.69 22.07-16.7a1 1 0 0 1 1 .95 1 1 0 0 1-.94 1 16.74 16.74 0 0 0-6.54 2.05c-3.56 1.82-8.86 5.69-13.93 13.75a1 1 0 0 1-.85.43Z" style="fill:#222c38"></path>
    <path d="M950.45 467.3c-3.18 1.23-7.22-1.6-9-6.3a11.76 11.76 0 0 1-.48-1.57 29.15 29.15 0 0 1 9.76-6.66 12.55 12.55 0 0 1 2.27 3.81c1.77 4.71.64 9.51-2.55 10.72ZM925.37 457.08c-.27.53 11.88-18 28.22-20.61a3.94 3.94 0 0 0 3.14-5c-.73-2.57-2.41-4.94-6.24-3.32-7.21 3.03-16.88 12.61-25.12 28.93ZM978.71 529.86c-20.93-.37-25.19-11.34-25.36-11.81a1 1 0 0 1 1.81-.67c.05.13 4.09 10.21 23.58 10.55a1 1 0 0 1 0 1.93ZM893.06 504.12s1.13 2.72-.32-.06ZM940.92 400.14s-.89-.35-2.42-.81c-5.43-1.64-18.91-4.65-29.65 1.73-6 3.55-9.25 10.15-10.42 16.78-.06.37-.12.74-.16 1.1a32.09 32.09 0 0 0-.32 4.43c0 6.54 2 12.2 5.32 13.76 7.57 3.53-14.33 13.65-16.69 25.91s-3.84 20.34 2.5 33.5c1.92 4 3.05 6.26 3.69 7.48l-16.52-3.3s-8.33-20.94-27.89-24.5c-16.89-3.08-24.21 23.42-27.17 40.55-.47 2.7-.83 5.16-1.1 7.24s-.51 4.63-.77 7.52c-1.61 18.46-3.66 50.32-16.09 52.74-2.66.52-7.12-3.73-12.38-11.18-23.2-32.78-61.78-127.71-28.85-150.35 0 0 7.49-62.81 73.19-59.25s89 25.09 90.64 5.58c0 0 15.64 4.62 17.81 17.09.7 3.84.08 8.5-2.72 13.98Z" style="fill:#222c38"></path>
    <path d="M866.89 495.89c9 12.11 10.63 22.54 3 31.89-9.52 11.65-28.28 5.8-37.3-6.32s-8.49-27.79 1.2-35 24.08-2.69 33.1 9.43Z" style="fill:#ec685b"></path>
    <path d="M857.67 525.06c-5.75 0-12.57-3.76-16.59-9.15-6.05-8.12-6.31-18.6-.56-22.89a8.79 8.79 0 0 1 5.45-1.74 16 16 0 0 1 8.2 2.57 1 1 0 0 1-1 1.64 14.15 14.15 0 0 0-7.2-2.28 6.9 6.9 0 0 0-4.3 1.36c-4.91 3.66-4.47 12.9 1 20.19 3.67 4.93 9.86 8.37 15 8.37a1 1 0 1 1 0 1.93Z" style="fill:#222c38"></path>
    <path d="M975 1124.91q-1.53 12.28-3.15 24.2c-.16 1.16-.31 2.31-.47 3.46-1.37 10-2.77 19.72-4.18 29.15-4.13 27.66-8.31 52.65-12 73.37-6.62 37.38-11.59 60.84-11.59 60.84S812.36 1328.7 772.24 1305c0 0 2.64-51.92 5-121.82 1-29.11 2-61.34 2.68-94.24 2.3-105.87 2-218.61-7.72-256.3-20.06-77.52-41-128.58-41-128.58s30.09-43.48 65.65-66.88l7.82-32.63s101.63 54.82 161.8 187.05a186.7 186.7 0 0 1 11.32 34.28v.12c0 .06 0 .14.06.23 6.11 26 9.22 57 10.16 90.58 1.88 65.4-4.51 140.67-13.01 208.1Z" style="fill:#2c4a5b"></path>
    <path d="M804.43 752.82s38 48.8 49 103.51-4.55 167.8 6.39 222.51-55.36-62.92-55.36-62.92ZM967.24 1181.72a2666.6 2666.6 0 0 1-12 73.37c-16.61 19.58-34.79 38.19-37.12 39s-101.31-80.46-140.86-110.87c1-29.12 2-61.35 2.68-94.25Z" style="fill:#222c38"></path>
    <path d="M956.16 653c0 2.56-2 4.1-5.19 4.9-.2.06-.4.1-.6.15a40.81 40.81 0 0 1-10.07.55c-8.67-.41-19-2.35-25.85-3.84l-1.14-.25 6.35-24s36.5 9.69 36.5 22.49Z" style="fill:#ec685b"></path>
    <path d="M1088.06 992.21s-.91-1.6-2.44-4.26l-.08-.14c-.08-.15-.17-.3-.26-.45-7-12.17-24.93-43.4-28.83-49.24C1051.58 930.8 991.1 751.53 973 729c-14.52-18.08-28-56.12-32.71-70.42-.39-1.19-.73-2.22-1-3.05-.53-1.64-.81-2.55-.81-2.55a21.13 21.13 0 0 1 4.06-2.64c3.81-1.9 9.51-3.22 13.6 2.63s63.2 88.15 84.48 152 43.18 155.03 47.44 187.24Z" style="fill:#ec685b"></path>
    <ellipse cx="936.49" cy="689.72" rx="5.67" ry="3.39" style="fill:#f9f9f9" transform="rotate(-70.68 936.452 689.724)"></ellipse>
    <ellipse cx="981" cy="768.68" rx="5.67" ry="3.39" style="fill:#f9f9f9" transform="rotate(-70.68 980.955 768.68)"></ellipse>
    <ellipse cx="1013.28" cy="845.84" rx="5.67" ry="3.39" style="fill:#f9f9f9" transform="rotate(-70.68 1013.246 845.833)"></ellipse>
    <ellipse cx="1046.66" cy="935.91" rx="5.67" ry="3.39" style="fill:#f9f9f9" transform="rotate(-70.68 1046.61 935.91)"></ellipse>
    <ellipse cx="1080.33" cy="1015.36" rx="5.67" ry="3.39" style="fill:#f9f9f9" transform="rotate(-70.68 1080.283 1015.357)"></ellipse>
    <path d="M947.24 836.32 869 827.66v-18.24l78.24 8.67v18.23z" style="fill:#222c38"></path>
    <path d="M1150.75 698.34c-3.77 15-11.81 23.21-14.66 23.53-3.65.41-6.08 4.46-17.84 16.21s-21.44 4.06-21.44 4.06l4.12-7.27a14.5 14.5 0 0 1 1.64-2.32c3.75-4.25 17.57-20 21.77-25.27 4.86-6.08-12.57 9.32-12.57 9.32l-12.16 14.19c-3.62 7.24-7.5 10.91-11 12.63a12 12 0 0 1-11.3-.07l2.49-8.48 2.38-8.13 7.33-14.67a15.37 15.37 0 0 1 .8-1.43l10.51-16.74-7.3 6.9-7.7 12.15c-3 8.79-6.69 13.61-10.27 16.15a12.91 12.91 0 0 1-12.83 1.69l4-19.75 1.36-6.8a12.65 12.65 0 0 1 1.13-3.23c2-3.82 7-13.68 8.94-17.23 2.43-4.47-4.87 3.23-4.87 3.23-2.68 10.2-6.25 15.56-9.58 18.3-5 4.16-9.46 2.38-9.46 2.38v-17.51a9.44 9.44 0 0 1 .07-1.2 11.53 11.53 0 0 1 1.92-5.31l10.52-15.67.65-1a11.7 11.7 0 0 1 8.22-5.08c5.25-.68 13.31-1.53 19.13-1.27 9.31.4 9.31 5.26 9.31 5.26 20.28-7.3 21.89 8.91 21.89 8.91 11 .41 14.19 13.38 14.19 13.38 4.46-.4 10 7.3 10 7.3s.2 1.07.61 2.84Z" style="fill:#f7ac84"></path>
    <path d="m1066.75 668-10.54 15.66a11.53 11.53 0 0 0-1.92 5.31 69.62 69.62 0 0 0-4.53-6.42c-7.7-9.31-18.23-26.75-18.23-26.75s13-10.53 25.93 2.84c4.16 4.3 7.14 7.29 9.29 9.36ZM1078.13 683.79c-1.94 3.55-7 13.41-8.94 17.23a12.65 12.65 0 0 0-1.13 3.23l-1.36 6.8c-.9-1.73-1.91-3.67-3-5.73 3.33-2.74 6.9-8.1 9.58-18.3-.02-.02 7.28-7.7 4.85-3.23ZM1100.83 693.91l-10.51 16.74a15.37 15.37 0 0 0-.8 1.43l-7.33 14.67-2.38 8.13a56.27 56.27 0 0 1-4.25-5.77c3.58-2.54 7.3-7.36 10.27-16.15l7.7-12.15ZM1165.26 797.26c-23.91 11-51.87-15.4-51.87-15.4 0-.64-.05-1.27-.08-1.88a84.58 84.58 0 0 0-2.17-16.82c-2-7.94-4.52-9.66-4.52-9.66a67.88 67.88 0 0 1-18-10.07c3.49-1.72 7.37-5.39 11-12.63l12.16-14.19s17.43-15.4 12.57-9.32c-4.2 5.24-18 21-21.77 25.27a14.5 14.5 0 0 0-1.64 2.32l-4.12 7.27s9.69 7.7 21.44-4.06 14.19-15.8 17.84-16.21c2.85-.32 10.89-8.54 14.66-23.53 2.08 9.3 8.7 38.88 10.06 45 .61 2.76 1.39 11.15 2.14 20.51.22 2.68.42 5.43.62 8.16.93 12.98 1.68 25.24 1.68 25.24Z" style="fill:#ec685b"></path>
    <path d="M1171.35 785.51c-.41 11.75-6.09 11.75-6.09 11.75s-.75-12.29-1.69-25.23c0-.03 8.18 1.73 7.78 13.48Z" style="fill:#bcb5b5"></path>
    <path d="M1174.24 828.76q-1.58-.25-3.3-.69c-18.9-4.71-51.59-30.51-60.29-42.74l2.66-5.35c0 .61.06 1.24.08 1.88 0 0 28 26.35 51.87 15.4 0 0 5.68 0 6.09-11.75Z" style="fill:#e5e5e5"></path>
    <path d="M1106.42 1157.41c-41.64-21.56-98.43-15.25-129.45-9.31-1.78.34-3.48.68-5.08 1q1.61-11.89 3.15-24.2c12.47-6.68 27.93-10.82 43.53-13.31 37.23-6 75.27-2.67 75.27-2.67ZM821.76 1850.61c-2 36.12-2.55 65.2-2.23 88.41-16.51-8.47-30.1-23.67-36-49.5 0 0 21.27-32.82 22.69-41.33s-19.39-21.85 0-32.84c6-3.37 12.83-7.55 19.46-11.72-1.76 16.18-3.08 31.95-3.92 46.98Z" style="fill:#222c38"></path>
    <path d="M1123.25 1215" style="stroke:#8c4c4c;fill:none;stroke-miterlimit:10"></path>
    <path d="M1150.68 2098.05v9.12c-88.61 42.55-254.49 0-254.49 0v8.51c-21.27-4.26-76.55-6.08-77.47-13.37s.81-21.29.81-21.29c6.91 4.19 19.42 9.05 41.22 10.36 40.4 2.43 79.4 15.2 117 21.27s175.8 0 165.88-20.35a12.12 12.12 0 0 1 7.05 5.75Z" style="fill:#2c4a5b"></path>
    <path d="M977.71 2112.63c-37.56-6.07-76.56-18.84-117-21.27-21.8-1.31-34.31-6.17-41.22-10.36-3.63-13.4 6.1-66.44 6.1-66.44.84 4.17 1.51 6.53 1.81 7.5 1.41 4.86 24.09 45 89.32 12.15 34.26-17.26 51.31-25.77 61.41-28.57 9.51 7 21.37 23.69 37.11 36.48 20.2 16.41 76.56 31.31 103.63 34s24.68 16.12 24.68 16.12c9.96 20.4-128.27 26.48-165.84 20.39Z" style="fill:#222c38"></path>
    <path d="m896.78 2096.68-.84-1.73c.53-.26 53.84-26 98.19-10.3 1.35-4.24 6.32-22.6-3.52-37.1-11.18-16.48-57.29-20.47-57.75-20.51l.16-1.92a193.45 193.45 0 0 1 25 4.09c17.72 4.17 29.21 10 34.14 17.26 11.71 17.26 3.77 38.85 3.43 39.76l-.34.89-.9-.33c-43.71-16.08-97.03 9.63-97.57 9.89Z" style="fill:#2c4a5b"></path>
    <circle cx="919.82" cy="502.7" r="11.7" style="fill:#ec685b"></circle>
    <path d="M784.3 430.29a19.83 19.83 0 0 0-15.41-6.81 1 1 0 0 0 0 1.93 18 18 0 0 1 14.05 6.24c.81.94 2.17-.43 1.36-1.36ZM905.69 393.67a40.6 40.6 0 0 0-30.91 15.86c-2.8 3.64-4.66 7.78-6.55 11.94a47.84 47.84 0 0 1-6.73 11.33 41.66 41.66 0 0 1-9.36 8.16 44.91 44.91 0 0 1-23.91 7 54.81 54.81 0 0 1-29.61-8.89c-1-.67-2 1-1 1.66 15.05 9.61 34.46 12.4 50.84 4.47a42.89 42.89 0 0 0 17.92-15.94c2.57-4.18 4.2-8.83 6.47-13.17a37.84 37.84 0 0 1 7.69-10.09 38.64 38.64 0 0 1 25.15-10.42 1 1 0 0 0 0-1.91ZM933.41 373.66c-.41-1.16-2.27-.66-1.86.51a10.92 10.92 0 0 1-7.21 13.7 1 1 0 0 0 .51 1.86c6.63-1.73 10.82-9.56 8.56-16.07ZM776.64 512.11A84.11 84.11 0 0 1 764 458.28a81.09 81.09 0 0 1 3.21-15.57c.37-1.19-1.49-1.69-1.85-.51a85.78 85.78 0 0 0 2.27 56.45 83.21 83.21 0 0 0 7.37 14.43c.65 1.04 2.31.08 1.64-.97ZM794.14 544.21c-.31-1.22-.61-2.43-.91-3.65a1 1 0 0 0-1.86.51c.3 1.22.61 2.43.91 3.65a1 1 0 0 0 1.19.67 1 1 0 0 0 .67-1.18ZM902.1 382a44.85 44.85 0 0 0-38.12.61c-6.38 3.16-11.56 8.15-17.61 11.84a42.79 42.79 0 0 1-20.44 5.83c-8.1.4-16.18-.68-24.18-1.83-1.21-.18-1.73 1.68-.51 1.85 13.53 2 28.13 3.93 41.11-1.61 6.56-2.8 11.82-7.65 17.7-11.56a42.59 42.59 0 0 1 41.08-3.47c1.12.49 2.1-1.17.97-1.66Z" style="fill:#fff"></path>
    <path d="M917.77 897.93q-.85-26.46-3.08-52.85c-.1-1.23-2-1.24-1.92 0q3.91 46.63 3.57 93.49t-5 93.44q-2.6 26.22-6.54 52.27c-.18 1.21 1.67 1.74 1.86.51q7-46.39 9.81-93.31 2.8-46.71 1.3-93.55Z" style="fill:#222c38"></path>
    <path d="M1121 854.39a191.77 191.77 0 0 1-13.91-42.48c-.25-1.21-2.11-.7-1.86.52.18.88.38 1.76.58 2.64a1 1 0 0 0-.78.87 161.41 161.41 0 0 0 2.54 52.65c1.06 4.94 2.37 9.83 3.89 14.64.38 1.18 2.23.68 1.86-.51a160.18 160.18 0 0 1-7.42-51.9q.15-6 .75-12a193.85 193.85 0 0 0 12.69 36.55c.5 1.11 2.16.14 1.66-.98Z" style="fill:#2c4a5b"></path>
    <path d="M952.08 1214.94s26.75 50 67.28 62.19c0 0 34.45-23.51 39.32-49.85s-13.78-49.45-13.78-49.45 39.72 21.08 46.61-6.08l-30.4-13-22.29-4.41-60 12.52Z" style="fill:#f7ac84"></path>
    <path d="M731.2 704.05s-34.65 21-34.65 135.87-4.56 209.74 30.09 250.77 197 167.8 197 167.8 51.07-35.21 61.1-96.94c0 0-145-114.63-166-150.19 0 0 28.49-177.82-17.67-265.37 0 .01-19.71-52.89-69.87-41.94Z" style="fill:#2c4a5b"></path>
    <path d="M803.93 745.31a135 135 0 0 0-51.74-35 131.86 131.86 0 0 0-16.92-5.13c-1.21-.28-1.72 1.57-.52 1.85a133 133 0 0 1 55.19 27.55 131.33 131.33 0 0 1 12.63 12.11c.84.89 2.2-.47 1.36-1.38ZM964.34 1148.48q-21.18-17.3-41.43-35.68t-39.5-37.8q-10.81-10.9-21.3-22.14c-.85-.91-2.21.46-1.36 1.36q18.66 20 38.36 39t40.35 36.88q11.61 10.07 23.52 19.79c.95.72 2.32-.63 1.36-1.41ZM1008.12 1290.2c-9 23.18-11.62 48-14 72.59-2.47 25.79-5.5 51.13-14.11 75.71s-20.24 47.93-28 72.79c-7.89 25.14-12.79 51.12-16.36 77.19s-5.94 52.46-8.52 78.72q-4.11 41.73-8.2 83.46t-8.21 83.46q-2 20.87-4.1 41.73c-1.34 13.71-3.07 27.45-4 41.2a64.68 64.68 0 0 0 .94 18 68 68 0 0 0 5.64 14.69c4.29 8.88 11.63 20.19 8.23 30.46-3.29 10-15.39 12.36-19.56 21.71-3.08 6.9-1.72 15.48 2.81 21.44a19 19 0 0 0 8.07 6.12c1.14.47 1.64-1.39.51-1.86-8.77-3.6-13.23-14.6-10.2-23.47 3.31-9.71 15.23-12.18 19.43-21.37 3.65-8 .5-16.77-2.91-24.26-4.87-10.69-10.72-20.44-11.2-32.52-.53-13.22 1.82-26.75 3.11-39.89l4-41 8-81.26c5.28-53.76 9.7-107.68 16.2-161.31 3.14-25.84 7.27-51.62 14-76.78 6.7-24.88 17.09-48.19 26.57-72.06a267.43 267.43 0 0 0 11.94-36.15 288.5 288.5 0 0 0 5.83-35.55c2.75-24.65 3.88-49.66 10.17-73.76a158.29 158.29 0 0 1 5.67-17.52c.55-1.15-1.31-1.65-1.75-.51Z" style="fill:#222c38"></path>
    <path d="m874.76 670.42 35.99 8.7 8.91-27.25h-48.03l3.13 18.55z" style="fill:#c6c6c6"></path>
    <path d="m919.66 630.48-6.35 24-4.59 17.33-48.94-16.41s-54.06-36.69-55.11-50.87c-.28-3.81 114.99 25.95 114.99 25.95Z" style="fill:#f9f9f9"></path>
    <path d="M988.05 916.81C962.19 766.64 845.33 684 845.33 684l14.45-14-33.78-2.43-29.18-30.4 7.82-32.63s101.62 54.83 161.8 187.05c13.94 30.55 20.2 74.97 21.61 125.22Z" style="fill:#222c38"></path>
    <path d="M1088.06 992.21s-26.75-46.82-31.62-54.11S991.1 751.53 973 729c-14.52-18.08-28-56.12-32.71-70.42-9.16-.43-20.18-2.58-27-4.09l6.35-24s3.88 17.11 11.86 21.39a61.22 61.22 0 0 0 7.79 3.66c4.28 1.56 8 1.8 12.18-.1a5.81 5.81 0 0 0-1.12 2.6c-.82 3.5-.81 11.07 5.79 25.81 10.18 22.74 21.66 39.37 45.24 93.69s54.75 151.56 60.62 161.67 26.06 53 26.06 53Z" style="fill:#cc5650"></path>
    <path d="M1152.21 749.8c-5.19 4.23-12.31 2.84-18 .7a9.43 9.43 0 0 0-4.84-.67 21.3 21.3 0 0 0-4.88 1.66 19.12 19.12 0 0 1-11.18 1.16c-1.26-.26-1.8 1.67-.54 1.93a20.64 20.64 0 0 0 11.23-.76 38.14 38.14 0 0 1 5.35-2c2.12-.42 3.94.48 5.89 1.17 6 2.14 13.23 2.43 18.43-1.81.95-.78-.48-2.18-1.46-1.38Z" style="fill:#f7ac84"></path>
    <path d="M898.25 418.93c0-.19.11-.38.17-.57 0 5-.06 8.05-.49 5.11v-.07a11.72 11.72 0 0 1 .32-4.43s0 .03 0-.04ZM948.9 408.91c-.61-.27-15.89-7.14-29.08-6.63-10.84.43-19.19 8.67-21.4 16.08v-.53c1.17-6.63 4.44-13.23 10.42-16.78 10.74-6.38 24.22-3.37 29.65-1.73a77.36 77.36 0 0 1 10.41 9.59ZM821.16 516.8c0 1.54-.47 38.05-4.24 60.3-2.51 14.84-8.73 19.43-12.74 20.83-.32-4.37-.65-9-1-13.63 12.43-2.42 14.48-34.28 16.09-52.74.26-2.89.5-5.45.77-7.52s.65-4.54 1.12-7.24Z" style="fill:#ec685b"></path>
    <path d="M1085.27 987.34c-2.22-3.81-14.53-24.69-24.25-36.34-10.73-12.87-16.42-33.69-20.21-45.48s-35.37-92.63-43.37-114.94-19-41.27-35.63-66.11-23.31-61.89-23.31-61.89c-11.87 4.55-25.19 0-25.19 0l1.14-7.84c6.85 1.49 17.18 3.43 25.85 3.84 4.7 14.3 18.19 52.34 32.7 70.42 18.09 22.53 78.57 201.8 83.43 209.1 3.91 5.84 21.87 37.07 28.84 49.24ZM975 1124.91c8.46-67.43 14.85-142.7 13-208.1-.94-33.6-4-64.59-10.16-90.58 1.71 6.08 24.3 88 22.8 173.73-1.49 84.43-.83 108 17.88 111.65-15.52 2.48-31.01 6.62-43.52 13.3ZM1134.81 807.9s29 16.06 38 0l1.4 20.86s-11.93 1.1-39.4-20.86Z" style="fill:#c6c6c6"></path>
  </g>
</svg>
