<svg xmlns="http://www.w3.org/2000/svg" viewBox="0 0 3107.7 2409.45" id="online-shopping">
  <g id="Layer_9">
    <ellipse cx="1456.05" cy="1126.79" rx="616.34" ry="1036.65" style="fill:#fff" transform="matrix(.36 -.93 .93 .36 -117.08 2083.36)"></ellipse>
    <ellipse cx="1666.5" cy="2063.38" rx="465.29" ry="32.67" style="fill:#2c4a5b"></ellipse>
    <path d="M2111.83,549.78V1962.71a55.3,55.3,0,0,1-55.24,55.25h-762a55.31,55.31,0,0,1-55.25-55.25V549.78Z" style="fill:#fff"></path>
    <path d="M2111.09,290.88v258.9H1238.56V290.88a55.31,55.31,0,0,1,55.26-55.25h341a43.34,43.34,0,0,0,86.5,0h334.5A55.3,55.3,0,0,1,2111.09,290.88Z" style="fill:#f58674"></path>
    <path d="M1634.85,235.63h86.5a43.34,43.34,0,0,1-86.5,0Z" style="fill:#fff"></path>
    <path d="M2134.3,241.68a92.51,92.51,0,0,0-78.45-43.4h-762a92.6,92.6,0,0,0-92.61,92.6V1962.71a92.6,92.6,0,0,0,92.61,92.6h762a92.6,92.6,0,0,0,92.6-92.6V290.88A92.13,92.13,0,0,0,2134.3,241.68Zm-23.21,1721a55.3,55.3,0,0,1-55.24,55.25h-762a55.31,55.31,0,0,1-55.26-55.25V290.88a55.31,55.31,0,0,1,55.26-55.25h341a43.34,43.34,0,0,0,86.5,0h334.5a55.3,55.3,0,0,1,55.24,55.25Z" style="fill:#2c4a5b"></path>
    <circle cx="1678.89" cy="235.79" r="19.99" style="fill:#fff"></circle>
    <rect width="76.67" height="41.28" x="1991.57" y="280.85" rx="20.64" style="fill:none;stroke-miterlimit:10;stroke:#fff;stroke-width:2px"></rect>
    <path d="M2012.21,316.53a15,15,0,1,1,0-30.08h35.39a15,15,0,0,1,0,30.08Z" style="fill:#fff"></path>
    <rect width="11.8" height="41.28" x="1869.71" y="280.85" style="fill:#fff"></rect>
    <rect width="11.8" height="34.53" x="1852.49" y="287.6" style="fill:#fff"></rect>
    <rect width="11.8" height="27.08" x="1835.28" y="295.05" style="fill:#fff"></rect>
    <rect width="11.8" height="20.64" x="1818.06" y="301.49" style="fill:#fff"></rect>
    <rect width="11.8" height="13.54" x="1800.85" y="308.59" style="fill:#fff"></rect>
    <path d="m1943.87 312.54-6.27 8.64-6.27-8.64a9.28 9.28 0 0 1 12.54 0ZM1937.6 278.88a40.32 40.32 0 0 0-24.62 8.35l4.27 5.89a33.15 33.15 0 0 1 40.7 0l4.28-5.9A40.4 40.4 0 0 0 1937.6 278.88ZM1937.6 294.62a24.66 24.66 0 0 0-15.37 5.36l4.27 5.89a17.43 17.43 0 0 1 22.2 0L1953 300A24.71 24.71 0 0 0 1937.6 294.62Z" style="fill:#fff"></path>
    <rect width="163.14" height="35.39" x="1273.33" y="474.08" rx="17.69" style="fill:#fff"></rect>
    <rect width="163.14" height="35.39" x="1487.42" y="474.08" rx="17.69" style="fill:#2c4a5b"></rect>
    <rect width="163.14" height="35.39" x="1701.51" y="474.08" rx="17.69" style="fill:#fff"></rect>
    <rect width="163.14" height="35.39" x="1915.6" y="474.08" rx="17.69" style="fill:#fff"></rect>
    <rect width="219.51" height="11.79" x="1456.05" y="537.99" style="fill:#2c4a5b"></rect>
    <rect width="378.87" height="396.77" x="1280.92" y="603.03" rx="23.83" style="fill:#ebf7fa"></rect>
    <rect width="378.87" height="396.77" x="1689.37" y="603.03" rx="23.83" style="fill:#ebf7fa"></rect>
    <rect width="223.14" height="35.39" x="1316.18" y="882.7" rx="17.69" style="fill:#2c4a5b"></rect>
    <rect width="123.14" height="35.39" x="1316.18" y="934.81" rx="17.69" style="fill:#fff"></rect>
    <rect width="223.14" height="35.39" x="1723.71" y="882.7" rx="17.69" style="fill:#2c4a5b"></rect>
    <rect width="123.14" height="35.39" x="1723.71" y="934.81" rx="17.69" style="fill:#bf7d13"></rect>
    <rect width="378.87" height="396.77" x="1280.92" y="1053.05" rx="23.83" style="fill:#ebf7fa"></rect>
    <rect width="378.87" height="396.77" x="1689.37" y="1053.05" rx="23.83" style="fill:#ebf7fa"></rect>
    <rect width="223.14" height="35.39" x="1316.18" y="1332.72" rx="17.69" style="fill:#2c4a5b"></rect>
    <rect width="123.14" height="35.39" x="1316.18" y="1384.82" rx="17.69" style="fill:#fff"></rect>
    <rect width="223.14" height="35.39" x="1723.71" y="1332.72" rx="17.69" style="fill:#2c4a5b"></rect>
    <rect width="123.14" height="35.39" x="1723.71" y="1384.82" rx="17.69" style="fill:#fff"></rect>
    <rect width="378.87" height="396.77" x="1280.92" y="1503.06" rx="23.83" style="fill:#ebf7fa"></rect>
    <rect width="378.87" height="396.77" x="1689.37" y="1503.06" rx="23.83" style="fill:#ebf7fa"></rect>
    <rect width="223.14" height="35.39" x="1316.18" y="1782.73" rx="17.69" style="fill:#2c4a5b"></rect>
    <rect width="123.14" height="35.39" x="1316.18" y="1834.84" rx="17.69" style="fill:#fff"></rect>
    <rect width="223.14" height="35.39" x="1723.71" y="1782.73" rx="17.69" style="fill:#222c38"></rect>
    <rect width="123.14" height="35.39" x="1723.71" y="1834.84" rx="17.69" style="fill:#fff"></rect>
    <circle cx="1674.83" cy="1034.36" r="249.47" style="fill:#ffcc73"></circle>
    <path d="M1814.35,923.61h-22.22a14,14,0,0,0-13.85,11.7l-24.44,144.18a14,14,0,0,1-13.85,11.7H1597.53" style="fill:none;stroke-miterlimit:10;stroke:#fff;stroke-linecap:round;stroke-width:10px"></path>
    <path d="M1775.61,951.08H1582.05a11.65,11.65,0,0,0-11.48,13.66l13,74.2a11.65,11.65,0,0,0,11.48,9.65h164.06" style="fill:none;stroke-miterlimit:10;stroke:#fff;stroke-linecap:round;stroke-width:10px"></path>
    <line x1="1647.08" x2="1647.08" y1="951.08" y2="1048.59" style="fill:none;stroke-miterlimit:10;stroke:#fff;stroke-linecap:round;stroke-width:10px"></line>
    <line x1="1702.94" x2="1702.94" y1="951.08" y2="1048.59" style="fill:none;stroke-miterlimit:10;stroke:#fff;stroke-linecap:round;stroke-width:10px"></line>
    <line x1="1767.34" x2="1576.7" y1="999.83" y2="999.83" style="fill:none;stroke-miterlimit:10;stroke:#fff;stroke-linecap:round;stroke-width:10px"></line>
    <circle cx="1731.24" cy="1141.37" r="21.14" style="fill:#fff"></circle>
    <circle cx="1605.41" cy="1141.37" r="21.14" style="fill:#fff"></circle>
    <circle cx="1675.56" cy="1034.42" r="204.33" style="fill:none;stroke-miterlimit:10;stroke:#fff;stroke-linecap:round;stroke-width:10px"></circle>
    <path d="M1453.32 2086.51s42.15 22.19 22.21 49h0l381.28 72.14s785 22.32 787.88-84.14S1894.39 2027.12 1896 2041 1453.32 2086.51 1453.32 2086.51ZM2389.83 1824.23a2 2 0 0 1-2-1.6c-.27-1.3-26.86-130.13-68.18-133.27-10.21-.78-19 1.94-26.06 8.06-16.89 14.58-19.14 43.76-19.16 44.06a2 2 0 0 1-2.13 1.85 2 2 0 0 1-1.86-2.14c.09-1.26 2.4-31.15 20.53-46.8 7.93-6.84 17.68-9.88 29-9 44.32 3.37 70.7 131 71.8 136.47a2 2 0 0 1-1.56 2.35A1.87 1.87 0 0 1 2389.83 1824.23Z" style="fill:#2c4a5b"></path>
    <polygon points="2443.17 2119.16 2311.76 2098.45 2286.07 1810.16 2438.86 1815.55 2442.24 2053.73 2443.17 2119.16" style="fill:#f58674"></polygon>
    <polygon points="2500.51 2096.05 2468.5 2106.72 2443.17 2119.16 2442.24 2053.73 2500.51 2096.05" style="fill:#ef9792"></polygon>
    <polygon points="2500.51 2096.05 2442.24 2053.73 2438.86 1815.55 2464.51 1816.45 2500.51 2096.05" style="fill:#ec685b"></polygon>
    <path d="M1985.46,1496.65a2,2,0,0,1-2-2c0-.35-.18-34.93,5.86-70,8.22-47.84,23.53-73.86,45.48-77.32s43.92,17.73,65.13,63c15.57,33.22,25,67.88,25.13,68.23a2,2,0,1,1-3.86,1c-.37-1.36-37.41-136-85.77-128.34-25,4-36.73,42.42-42.16,74-6,34.76-5.81,69-5.81,69.38a2,2,0,0,1-2,2Z" style="fill:#2c4a5b"></path>
    <path d="M2226.26,2136.94l-44.09-6.42-33.71-397.69-44.09,6.11-1.25.17-18.66-10.87s-92.86-2.48-131.56-1.43l-1.8-20.37h-54.67l-21.34-4.66-85.37,2.22,19.59-184,382.26-55Z" style="fill:#87cfd8"></path>
    <path d="M1972,1760.23h-.11a2,2,0,0,1-1.89-2.1c0-.51,2.61-51.39-1.33-102.34-5.16-66.52-18.84-103-39.58-105.37-26.33-3.06-50.86,40.36-66.81,77.33-17.52,40.62-28.7,82.57-28.81,83a2,2,0,0,1-3.87-1c1.83-6.93,45.55-169.64,100-163.28,23.2,2.71,37.7,39.41,43.1,109.07,4,51.21,1.36,102.32,1.33,102.83A2,2,0,0,1,1972,1760.23Z" style="fill:#2c4a5b"></path>
    <path d="M2035.11 1734.83a2 2 0 0 1-1.93-1.49c-.34-1.29-.83-3.2-1.45-5.63-4.36-17.11-15.94-62.57-31.7-103-19.22-49.31-38.44-75.06-55.65-74.46-17.9.62-32.46 27.61-42.09 78-7.4 38.75-9.18 77.85-9.2 78.24a2 2 0 1 1-4-.18c.28-6.47 7.49-158.44 55.14-160.1 19.31-.66 39.34 25.24 59.52 77 15.84 40.65 27.47 86.29 31.85 103.47.61 2.41 1.1 4.3 1.44 5.59a2 2 0 0 1-1.42 2.44A1.86 1.86 0 0 1 2035.11 1734.83ZM1910.66 1532.64a2 2 0 0 1-2-2.41c.09-.46 9.77-46 26.57-91.63 22.78-61.84 47.18-94.36 72.54-96.64 14.28-1.29 26 7.1 34.85 25 6.62 13.36 15.19 39.77 18.4 89.72 1 15.64 1.21 29.6 1.21 38.55 0 9.75-.09 13.82-.28 15.63a2.45 2.45 0 0 1 0 .27H2062c-.13 1-.28 1.17-.48 1.38l-.92 1-2.55-1v-1.4a2.09 2.09 0 0 1 0-.25c.19-4.13 4.16-124.29-29.25-157.08-6.07-6-12.81-8.51-20.6-7.81-57 5.14-95.18 183.31-95.56 185.11A2 2 0 0 1 1910.66 1532.64ZM2354.27 1835.79a2 2 0 0 1-2-1.94c-2.74-92.24-24.63-147.12-43.83-151.92-19.64-4.91-41.14 30.73-41.35 31.09a2 2 0 1 1-3.44-2c.94-1.57 23.24-38.55 45.76-32.92 24.66 6.17 44.36 71.64 46.86 155.68a2 2 0 0 1-1.94 2.06ZM1840.42 1722.44a2 2 0 0 1-1.94-1.53c-.14-.58-14.22-58.57-34.72-114.66-33.85-92.64-58.48-109.06-73.14-106.53-21.06 3.63-32.9 42.66-34.24 112.88-1 53.76 4.62 107.1 4.68 107.63a2 2 0 0 1-4 .43c0-.54-5.73-54.09-4.7-108.1 1.39-73.44 14-112.73 37.56-116.78s49.65 32.65 77.59 109.13c20.57 56.29 34.7 114.48 34.84 115.06a2 2 0 0 1-1.48 2.42A2.5 2.5 0 0 1 1840.42 1722.44Z" style="fill:#2c4a5b"></path>
    <polygon points="1875.09 1701.78 1873.94 1729.19 1872.03 1774.77 1870 1823.36 1868.09 1868.95 1866.05 1917.53 1864.14 1963.12 1862.11 2011.7 1860.2 2057.3 1858.16 2105.88 1856.25 2151.47 1854.22 2200.05 1853.75 2211.17 1835.3 2207.6 1754.71 2191.98 1679.08 2177.33 1598.49 2161.71 1522.86 2147.06 1468.38 2136.5 1470.26 2120.27 1475.71 2073.27 1481.52 2023.18 1486.98 1976.17 1492.79 1926.09 1498.24 1879.09 1504.05 1829 1509.5 1782 1515.31 1731.91 1517.72 1711.11 1570.92 1709.72 1699.05 1706.37 1789.72 1704 1819.27 1703.23 1875.09 1701.78" style="fill:#ffcc73"></polygon>
    <polygon points="1896.43 1706.44 1896.43 2113.82 1884.94 2140.02 1859.56 2197.92 1853.75 2211.17 1854.22 2200.05 1856.25 2151.47 1858.16 2105.88 1860.2 2057.3 1862.11 2011.7 1864.14 1963.12 1866.05 1917.53 1868.09 1868.95 1870 1823.36 1872.03 1774.77 1873.94 1729.19 1875.09 1701.78 1896.43 1706.44" style="fill:#e0972d"></polygon>
    <polygon points="1992.19 2171.17 1965.96 2155.46 1918.09 2126.79 1896.43 2113.82 1896.43 1706.44 1951.1 1706.44 1952.9 1726.81 1954.24 1741.98 1958.32 1788.12 1962.15 1831.42 1966.23 1877.56 1970.06 1920.86 1974.14 1967 1977.97 2010.31 1982.05 2056.45 1985.88 2099.75 1989.96 2145.89 1990.56 2152.73 1992.19 2171.17" style="fill:#f9b546"></polygon>
    <polygon points="1992.19 2171.17 1915.1 2185.84 1853.75 2211.17 1896.43 2113.82 1992.19 2171.17" style="fill:#ffcc73"></polygon>
    <path d="M1605.73,1747.78h-.23a2,2,0,0,1-1.76-2.22c.07-.61,7.22-62.54,24.73-123.84,10.31-36.08,22.15-64.92,35.19-85.71,16.56-26.39,35.2-39.94,55.38-40.25h.31l.29.09c2.08.62,50.69,17.67,32.1,238.12a2,2,0,0,1-4-.34c5.25-62.23,8.15-147.26-7.83-198.94-5-16.12-10.58-24.8-14.39-29.24-3.41-4-6-5.33-6.81-5.68-82.34,2-110.73,243.81-111,246.25A2,2,0,0,1,1605.73,1747.78Z" style="fill:#2c4a5b"></path>
    <path d="M2084.46,1728.24l-4,442.93-89.9-18.44-37.66-425.92C1991.6,1725.76,2084.46,1728.24,2084.46,1728.24Z" style="fill:#f9c1bb"></path>
    <polygon points="2183.13 2141.83 2103.12 2087.16 2104.37 1738.94 2148.46 1732.83 2182.17 2130.52 2183.13 2141.83" style="fill:#ef9792"></polygon>
    <polygon points="2183.13 2141.83 2124.46 2153.83 2080.46 2171.17 2103.12 2087.16 2183.13 2141.83" style="fill:#f9c1bb"></polygon>
    <polygon points="2104.37 1738.94 2103.12 2087.16 2080.46 2171.17 2084.46 1728.24 2103.12 1739.11 2104.37 1738.94" style="fill:#d37d7a"></polygon>
    <path d="M2312.49,2106.71l-16-10.66-61.34-40.9c0-4-31.11-567.18-31.11-567.18h53.34l28.7,322.19,25.68,288.29Z" style="fill:#569aad"></path>
    <path d="M2235.14,2055.15c0,4-8.88,81.79-8.88,81.79L2191.57,1465l12.46,23S2235.14,2051.16,2235.14,2055.15Z" style="fill:#3f7f8e"></path>
    <path d="M2312.49,2106.71l-51.56,7.11-34.67,23.12s8.88-77.79,8.88-81.79Z" style="fill:#b0e1ea"></path>
    <path d="M959.21 509.5c-16.25 58.19-52.66 68.37-85.31 48.77-.63 4.66-1.48 12.06-2.13 21 5.3 7.89 13.82 16.26 27 18.18 1.52-1.91 3.14-3.92 4.81-6 1.13-1.38 2.28-2.78 3.44-4.17-19.94 2.28-23.67-8.18-23.67-8.18L920 572.71c3.56-3.65 6.62-6.3 8.57-7.11 3.65-1.5 9.18-1.81 15.28-1.5 4.65.23 9.64.82 14.36 1.52.9-12.14 1.27-24.74 1.28-37.17C959.46 522.06 959.37 515.72 959.21 509.5ZM938 717.07c11.27 1.34 18.5-3.76 23-12.17h0c0-.43 0-.85 0-1.27 0-.85-.06-1.67-.09-2.47a.76.76 0 0 1 0-.15c0-.85-.08-1.68-.12-2.48 0-.65-.07-1.29-.11-1.91l0-.42c-.07-1.13-.15-2.21-.24-3.23l0-.38c-.05-.55-.1-1.09-.15-1.6l-.09-1c0-.3-.06-.61-.1-.91a.45.45 0 0 0 0-.11c-.09-.83-.19-1.62-.28-2.37a.11.11 0 0 1 0 0c-.13-1-.27-1.9-.4-2.75 0-.08 0-.15 0-.22 0-.23-.07-.45-.11-.67-.07-.44-.15-.86-.23-1.26 0-.2-.08-.39-.11-.59-.12-.61-.25-1.18-.37-1.7l-.29-1.2a1.54 1.54 0 0 1 0-.17c-.06-.25-.13-.48-.19-.7l0-.05-.11-.38c0-.12-.07-.24-.11-.35s-.07-.23-.11-.33a16.68 16.68 0 0 0-.7-1.84l-.16-.34a4.74 4.74 0 0 0-.28-.52l-.06-.1a2.71 2.71 0 0 0-.33-.47s-2.08-2.86-4.94-7.36c-.28-.45-.58-.91-.88-1.4l-.74-1.2-1.13-1.86c-2.21-3.71-4.61-8-6.77-12.54-11.15 6.26-18.73 1.81-18.73 1.81 5.88-1.57 10.87-5.18 15.09-10.4-.12-.33-.24-.65-.35-1s-.23-.65-.34-1-.24-.69-.34-1-.19-.6-.28-.9c-.2-.64-.38-1.29-.54-1.93s-.3-1.15-.43-1.72-.27-1.29-.38-1.92c-.06-.32-.11-.63-.16-.95s-.09-.57-.12-.86c-.1-.7-.16-1.4-.2-2.08s0-1.07 0-1.59a21.07 21.07 0 0 1 .17-2.78c1.75-13.4 2.79-23 1.38-26l-2.63-.38h0c-4.71 3.26-7.93 1-8.82 8.22s1.39 21.45-8.33 25l-.1-4.67s-9.87 11.45-17 7.65L907 608.55s-10.3 8.36-19.16 3c0 0 4.66-6.18 10.91-14-13.13-1.92-21.65-10.29-27-18.18-.18 2.4-.34 4.92-.48 7.53-.79 15.22-.83 33.56 1.49 50.65 8.86.77 17.11-3.12 20.1-4.73a122.81 122.81 0 0 1-19.44 9.16c4.07 25.09 13.67 46.58 34 50.06 0 0-21.45 9.83-30.67 0 0 0-3.46 29.2 23.34 36.84 0 0-22 4.09-38.87-7.31 1.32 4.85 3 10.46 5 16.6 15.16 7.4 47.94 20.85 86.81 17.28q4.07-5.22 8-11h0c0-6.8 0-13.06 0-18.54A81 81 0 0 1 938 717.07Zm-15.15 28.27c-26.15.57-9.84-17.62-15.39-23.93s-1.4-12 7.89-21.85-5.5-14.78-13.73-29.25 22.85-7.39 22.85-7.39C942.61 664.4 949 683.51 938 695.51s-7.94 20.84-6.12 25.27S949 744.78 922.86 745.34Z" style="fill:#ec685b"></path>
    <path d="M938,695.51c-11,12-7.94,20.84-6.12,25.27s17.13,24-9,24.56-9.84-17.62-15.39-23.93-1.4-12,7.89-21.85-5.5-14.78-13.73-29.25,22.85-7.39,22.85-7.39C942.61,664.4,949,683.51,938,695.51Z" style="fill:#f7ac84"></path>
    <path d="M1120.56 687.24c-17-57.51-90.57-77.36-90.57-77.36l-39.7-5.76c2.92 28.44 14.49 87.23 22.87 124.34 3.12-5.78 6.2-11.35 9.19-16.63l1.1-2 1.22-2.13 2.16-3.76 1.24-2.12c.27-.47.54-.92.8-1.38l.16-.28.08-.13.06-.1h0q1.56-2.65 3-5.15.49-.84 1-1.65l1-1.61 1-1.58c2.31-3.8 4.45-7.24 6.4-10.27.2-.32.41-.63.61-.94s.45-.71.68-1.06l.74-1.13c2-3 3.63-5.39 5-7.21l.43-.59.41-.53.48-.6c.43-.53.8-1 1.13-1.3.1-.11.21-.21.3-.3l.12-.12.13-.11c2.84-2.31 2.89 10.89 2.79 30.84 0 1.21 0 2.44 0 3.7 0 .54 0 1.08 0 1.63v.78c0 1.39 0 2.81 0 4.26 0 3.54 0 7.21 0 11 0 1.39 0 2.79 0 4.2v.11c0 1.87 0 3.76 0 5.67 0 1 0 2 0 3 0 1.89.08 3.8.12 5.71s.11 3.9.17 5.87c0 .08 0 .17 0 .25.06 1.88.13 3.76.22 5.65 0 .85.07 1.7.11 2.54.06 1.13.11 2.25.18 3.37 0 .51 0 1 .09 1.51.07 1.24.14 2.48.23 3.72s.17 2.4.25 3.6c0 .22 0 .44 0 .66.06.75.12 1.51.19 2.26.08 1 .17 2 .26 3 .14 1.57.3 3.12.47 4.67.09.94.2 1.89.31 2.82l0 .23c.06.52.12 1 .19 1.55.1.87.21 1.73.33 2.59s.2 1.5.31 2.25.18 1.3.29 2l.24 1.56v0c.1.64.2 1.27.31 1.9.15.89.31 1.78.47 2.66s.31 1.65.47 2.47l0 .14c.13.7.28 1.41.42 2.1l.3 1.35a0 0 0 0 0 0 0c.11.54.23 1.07.36 1.6s.22.94.34 1.41.23 1 .36 1.46c.17.67.34 1.33.52 2a71.49 71.49 0 0 1 9.88 3.38l1.63.72.85.39.86.41 1.5.75 1 .54c1 .55 2.08 1.14 3.13 1.76l1 .64c.36.21.71.43 1.06.66 1.23.78 2.47 1.62 3.72 2.5l.84.62c.59.43 1.17.87 1.76 1.33 1.81 1.4 3.63 2.93 5.44 4.58 29.24 26.65 28.25 48.51 28.25 48.51S1137.53 744.75 1120.56 687.24ZM1120.93 1164s-4.46 4-13.49 6.44-22.48 3.3-40.59-2.88c-36.31-12.39-113-6.4-190 31.51-59.38 29.21-104.29 14.79-121.8 6.63a63.2 63.2 0 0 1-8-4.32c23.29-37.46 20.3-127.31 16.71-179.48-1.23-17.87-2.11-41.24-2.73-64.26 52.46 57.49 122.08 13.08 168.52 12.47 28.47-.37 55.94 5.63 77.17 13.35l0 0c14.69 5.34 26.4 11.5 33.36 16.94 9.08 7.09 22.22 15.42 32.5 21.65 13.91 51.94 35.71 109.61 44.5 132.15C1119.5 1160.49 1120.93 1164 1120.93 1164ZM963.18 852.72a46 46 0 0 1-5.24 11.1c-6.51 10-16.45 16.27-28 19.75-30 9.1-70.57-.41-88.71-9.42-28.68-14.25-43.77-22.47-59.69-60.5-15.74-37.58 5.6-114.08 6.09-115.83-10.84 22-17.08 77.61-17.08 77.61s-20.68-12.5-52.61-25a57.55 57.55 0 0 0-22.82-4.14l-.73 0-1.28.07H693q-.9.06-1.77.15l-1.7.2-.11 0h-.1c-.52.07-1 .15-1.54.24s-1.12.19-1.66.3l-1.31.28-.85.2h0c-.28.06-.55.13-.82.21h0l-.28.08-.23.06-.75.2-.21.06-.55.16c-.36.1-.71.22-1.06.33l-.94.31-.13 0-.36.12q-.67.23-1.32.48l-.83.32-.86.35c-1.16.48-2.25 1-3.26 1.47l-1 .48c-.34.17-.67.35-1 .53s-.64.34-.94.52l-.86.5c-.19.1-.36.21-.53.31a37.59 37.59 0 0 0-4.71 3.29s11-37 45.21-120.6c23.12-56.42 62.33-63.44 85.34-62a85.27 85.27 0 0 1 10 1.2c0 1.11-.07 2.17-.1 3.21s-.07 2-.11 3c-.08 1.91-.16 3.67-.24 5.27-.43 8.46 2.29 24.93 10.88 38.27a173.57 173.57 0 0 0-3.58 36.3c0 .53 0 1 0 1.57s0 1.23.06 1.84 0 1.18.09 1.76c0 .79.1 1.57.16 2.34 0 .47.07.93.12 1.39s.09 1 .14 1.51c.06.66.14 1.31.22 2 .16 1.34.34 2.64.55 3.92.11.69.23 1.38.35 2 .08.46.16.91.26 1.36s.17.84.26 1.26.21 1 .33 1.5.2.86.3 1.28c.62 2.53 1.32 4.9 2.09 7.14l.33.95c.31.86.62 1.7 1 2.52.21.52.42 1 .63 1.51s.35.83.54 1.24q1.08 2.43 2.27 4.59c.19.36.38.71.58 1.05s.45.79.68 1.17c.49.83 1 1.63 1.51 2.4l.75 1.11c7.07 10.2 14.94 14.7 18 16.16.83.4 1.3.57 1.3.57a17.62 17.62 0 0 1-1.52-2.27c-.15-.25-.29-.51-.42-.76s-.26-.52-.39-.78a21.11 21.11 0 0 1-1.22-3.24c-.08-.27-.16-.54-.22-.81a.08.08 0 0 1 0 0c-.08-.28-.14-.55-.2-.83s-.18-.82-.24-1.23-.11-.66-.16-1-.1-.8-.14-1.2c0-.22 0-.43-.06-.65 0-.44-.06-.87-.08-1.3 0-.22 0-.43 0-.64-.26-11.28 4.68-22.31 4.68-22.31 2.27 16.52 9.53 26.38 18.14 32.2 1.32 4.85 3 10.46 5 16.6.43 1.34.89 2.71 1.36 4.1 6.27 18.58 15.59 41.3 28.32 62.39 12.52-6.59 32.65-19.75 52.48-43.46l.05-.06 0 0q2.29-2.73 4.57-5.66 4.07-5.22 8-11c0 3.25 0 6.61 0 10.08 0 6.4 0 13.15 0 20.09 0 1.39 0 2.8 0 4.21 0 2.25 0 4.53.05 6.81 0 .73 0 1.47 0 2.2 0 .49 0 1 0 1.46 0 1 0 2.07 0 3.11 0 1.28 0 2.57.05 3.85l.06 4.17 0 1.9q.06 4 .15 7.9c0 1.52.07 3 .1 4.55s.09 3.26.13 4.88c.26 9.73.62 19.23 1.1 28.13C963 849.38 963.08 851.06 963.18 852.72Z" style="fill:#e5e5e5"></path>
    <ellipse cx="609.82" cy="2142.36" rx="137.18" ry="22.74" style="fill:#2c4a5b"></ellipse>
    <ellipse cx="987.76" cy="2147.15" rx="118.75" ry="24.34" style="fill:#2c4a5b"></ellipse>
    <path d="M1062,803.82l-1.24-.31-.93-.22-.28-.06-1.2-.26-1.17-.23-.69-.13-.11,0-.12,0h0c-1.31-.23-2.58-.41-3.79-.55l-1-.11-.82-.07-.44,0-1.23-.09-.59,0-.58,0-.58,0h-2.09l-1.71,0-.77,0h-.26l-.63,0-1.42.1-.73.07c-.75.07-1.39.15-1.93.23l-.49.07-.93.16-.24.05-.16,0-.09,0s.52,2.83,1.43,7.87c-7.91-24.58-14.69-45.31-17.17-53.75-1.65-5.61-4.1-15.62-6.91-28.07,3.12-5.78,6.2-11.35,9.19-16.63l1.1-2,1.22-2.13,2.16-3.76,1.24-2.12c.27-.47.54-.92.8-1.38l.16-.28.08-.13.06-.1h0q1.56-2.65,3-5.15.49-.84,1-1.65l1-1.61,1-1.58c2.31-3.8,4.45-7.24,6.4-10.27.2-.32.41-.63.61-.94s.45-.71.68-1.06l.74-1.13c2-3,3.63-5.39,5-7.21l.43-.59.41-.53.48-.6c.43-.53.8-1,1.13-1.3.1-.11.21-.21.3-.3l.12-.12.13-.11c2.84-2.31,2.89,10.89,2.79,30.84,0,1.21,0,2.44,0,3.7,0,.54,0,1.08,0,1.63v.78c0,1.39,0,2.81,0,4.26,0,3.54,0,7.21,0,11,0,1.39,0,2.79,0,4.2v.11c0,1.87,0,3.76,0,5.67,0,1,0,2,0,3,0,1.89.07,3.79.12,5.71s.11,3.9.17,5.87c0,.08,0,.17,0,.25.06,1.88.13,3.76.22,5.65,0,.85.07,1.7.11,2.54.06,1.13.11,2.25.18,3.37,0,.51,0,1,.09,1.51.07,1.24.14,2.48.23,3.72s.17,2.4.25,3.6c0,.22,0,.44,0,.66.06.75.12,1.51.19,2.26.08,1,.17,2,.26,3,.14,1.57.3,3.12.47,4.67.09.94.2,1.89.31,2.82l0,.23c.06.52.12,1,.19,1.55.1.87.21,1.73.33,2.59s.2,1.5.31,2.25.18,1.3.29,2l.24,1.56v0c.1.64.2,1.27.31,1.9.15.89.31,1.78.47,2.66s.31,1.65.47,2.47l0,.14c.13.7.28,1.41.42,2.1l.3,1.35a0,0,0,0,0,0,0c.11.54.23,1.07.36,1.6s.22.94.34,1.41.23,1,.36,1.46C1061.69,802.5,1061.86,803.16,1062,803.82Z" style="fill:#c6c6c6"></path>
    <path d="M959.2,509.49h0a143.08,143.08,0,0,1-5.33,15.73c-18,44.17-50.53,50.72-80,33a100.4,100.4,0,0,1-23.42-20q-1.65-1.89-3.27-3.88c-20.88-25.79-31.81-62-37.44-89.75,0-2.87,0-5.65.19-8.32q.18-3,.5-5.86c0-.44.1-.88.16-1.32.29-2.32.66-4.56,1.08-6.72.11-.56.23-1.13.35-1.68.44-2.07,1-4.07,1.5-6,.11-.38.22-.76.34-1.14a77.94,77.94,0,0,1,13.74-26.44c.18-.23.36-.45.55-.67,1.18-1.44,2.37-2.77,3.54-4,.15-.17.31-.33.47-.49,1.54-1.59,3.06-3,4.49-4.22l.62-.52a61.46,61.46,0,0,1,6.37-4.7,16.33,16.33,0,0,0,1.58,2.06c11.81,13.12,50.9,51.07,107.74,50.7C953,425.35,958,464.09,959.2,509.49Z" style="fill:#f7ac84"></path>
    <path d="M877.91 531.1c-10.13 0-15.28-4.51-15.66-4.86a1 1 0 0 1-.07-1.41 1 1 0 0 1 1.42-.07c.21.2 16.26 14 48.49-9.41a1 1 0 0 1 1.18 1.62C898 528 886.27 531.1 877.91 531.1ZM870.27 505.79a12.58 12.58 0 0 1-5.52-1.1 5.29 5.29 0 0 1-3.14-3.93c-.69-4.3 1.15-6.39 3.09-8.6a16.83 16.83 0 0 0 3.74-5.86c2.75-7.79-1.45-14.72-1.49-14.79a1 1 0 1 1 1.7-1.06c.19.32 4.76 7.79 1.68 16.51a18.64 18.64 0 0 1-4.13 6.52c-1.83 2.08-3.16 3.59-2.62 7a3.38 3.38 0 0 0 2 2.46c3.44 1.7 9.88.91 15-1.83a1 1 0 1 1 .94 1.76A24.6 24.6 0 0 1 870.27 505.79ZM825.17 470.15a.92.92 0 0 1-.53-.16 1 1 0 0 1-.32-1.37c.08-.14 8.8-13.69 26.87-6.29a1 1 0 0 1-.75 1.85c-16.48-6.74-24.11 5-24.42 5.5A1 1 0 0 1 825.17 470.15ZM886.76 459.76a1 1 0 0 1-.56-.17 1 1 0 0 1-.26-1.39c.09-.14 9.62-13.74 30.27-4a1 1 0 0 1-.85 1.81c-19.06-9-27.42 2.82-27.77 3.33A1 1 0 0 1 886.76 459.76Z" style="fill:#222c38"></path>
    <path d="M847.8 463.94a6 6 0 1 1-12 0 6.15 6.15 0 0 1 .46-2.32 22 22 0 0 1 11.25.48A5.91 5.91 0 0 1 847.8 463.94ZM910.35 455.09a6 6 0 1 1-12 0 5.91 5.91 0 0 1 1-3.25 25.69 25.69 0 0 1 10.6 1A5.79 5.79 0 0 1 910.35 455.09Z" style="fill:#222c38"></path>
    <circle cx="834.11" cy="497.9" r="11.6" style="fill:#ec685b"></circle>
    <circle cx="925.59" cy="481.25" r="14" style="fill:#ec685b"></circle>
    <path d="M816.48 454.19s9.36-3.53 18.6-1.15 10-2.49 8-4.08S828 443.65 816.48 454.19ZM1066.85 728.5a38 38 0 0 1-12.46 2.46c-22.4.18-25-27.26-25.23-31h0c0-.27 0-.41 0-.41a76.27 76.27 0 0 1-18.47 17.72 61.2 61.2 0 0 1-39.07 10 75.15 75.15 0 0 1-10.46-1.52A81 81 0 0 1 938 717.07c11.27 1.34 18.5-3.76 23-12.17h0c13.56-25.29 2.52-80.48 2.52-80.48-8 13.49-15.57 20.6-22 24.18-11.15 6.26-18.73 1.81-18.73 1.81 5.88-1.57 10.87-5.18 15.09-10.4 6-7.45 10.5-18.17 13.74-30.9s5.33-27.8 6.48-43.48c.74-10 1.12-20.31 1.24-30.58.1-8.61 0-17.19-.21-25.54h0C958 464.09 953 425.35 953 425.35c-56.84.37-95.93-37.58-107.74-50.7a16.33 16.33 0 0 1-1.58-2.06 17.12 17.12 0 0 1-2.88-9.58 42.17 42.17 0 0 1 .61-6.89c.07-.41.15-.83.23-1.26 2.41-11.95 11-28.53 37.88-41q3.76-1.75 7.41-3.09c43.12-16 73.14 9.62 104 56.85 32.62 49.9 45.69 126.32 40.68 163-4.41 32.27 1.55 62.8 11.26 83.75 1.31 2.83 2.69 5.49 4.12 7.95 11.85 20.37 17.87 45.85 7.34 74.39q-.22.65-.48 1.29c-4.81 12.49-3.09 19.88.44 24.26C1059 728 1066.85 728.5 1066.85 728.5ZM872.78 637.49c-7.29-.63-15-4.42-20.51-15.22-.26-.51-.51-1-.75-1.57s-.38-.83-.56-1.26c-.27-.65-.53-1.32-.77-2s-.48-1.36-.71-2.07-.43-1.42-.63-2.15-.35-1.32-.52-2-.25-1.06-.36-1.6-.26-1.22-.38-1.84c0-.14-.06-.29-.08-.44-.12-.64-.23-1.29-.34-2s-.18-1.14-.26-1.72-.17-1.19-.24-1.79c0-.21-.06-.42-.08-.64-.07-.61-.14-1.23-.2-1.85a145.76 145.76 0 0 1-.66-16.27c0-3.08.15-6.14.32-9.15.06-1.14.13-2.27.21-3.38.06-.84.12-1.68.19-2.51.12-1.45.25-2.89.38-4.29 0-.16 0-.32 0-.48.06-.57.11-1.14.17-1.69l.21-1.91q.22-2 .45-3.81c.1-.75.19-1.48.29-2.2.26-2 .53-3.85.8-5.57.46-3 .9-5.59 1.26-7.6.05-.27.09-.52.14-.77.1-.55.2-1 .28-1.49a100.4 100.4 0 0 0 23.42 20c-.63 4.66-1.48 12.06-2.13 21-.18 2.4-.34 4.92-.48 7.53C870.5 602.06 870.46 620.4 872.78 637.49Z" style="fill:#222c38"></path>
    <path d="M953 425.35s-7.48-42.25-54.81-66.18M980.92 453.43s19.09 36.91 14.92 82.94-6.89 94.06 2.74 118.34 3.84 52.81-9.68 60M1020.63 557.94s-7.41 23.4-.44 40.65" style="fill:none;stroke-miterlimit:10;stroke:#fff;stroke-width:2px;stroke-linecap:round"></path>
    <path d="M953.06,755.39c-21.28,27.37-43.62,42.1-57.12,49.21-13.69-22.67-23.43-47.22-29.69-66.49C881.41,745.51,914.19,759,953.06,755.39Z" style="fill:#f9f9f9"></path>
    <path d="M900.14,728.82s-14.55,2.7-29-2.41a42.7,42.7,0,0,1-9.82-4.9c-8.61-5.82-15.87-15.68-18.14-32.2,0,0-9.45,21.1-1.52,34.78a17.62,17.62,0,0,0,1.52,2.27s-.47-.17-1.3-.57c-7.31-3.5-42.42-24.52-27.62-99.87-8.59-13.34-11.31-29.81-10.88-38.27.16-3.19.32-7,.45-11.47a59,59,0,0,1,8.43,2.08l10,1.45,23.54,3.42c0,1.87,0,3.74,0,5.6,0,.51,0,1,0,1.54a2.26,2.26,0,0,0,0,.26c0,.6,0,1.19.07,1.79s0,1.11.08,1.66c.1,1.82.24,3.63.43,5.42,0,.55.11,1.08.17,1.62,0,.29.07.58.11.87.07.6.15,1.2.24,1.79,0,.19.05.39.08.58l.15.94c.16,1,.33,2,.53,3,.09.49.19,1,.3,1.45.15.71.32,1.42.49,2.12l.39,1.47c.2.73.41,1.45.63,2.15s.46,1.39.71,2.07.5,1.35.77,2c.18.42.36.85.56,1.26s.49,1.06.75,1.57c5.52,10.8,13.22,14.59,20.51,15.22,8.86.77,17.11-3.12,20.1-4.73a122.81,122.81,0,0,1-19.44,9.16c4.07,25.09,13.67,46.58,34,50.06,0,0-21.45,9.83-30.67,0C876.8,692,873.34,721.18,900.14,728.82Z" style="fill:#222c38"></path>
    <path d="M961.15,725.79A81,81,0,0,1,938,717.07c11.27,1.34,18.5-3.76,23-12.17,0,1.89.08,3.89.1,6,0,.57,0,1.17,0,1.79C961.17,716.28,961.17,720.7,961.15,725.79Z" style="fill:none;stroke-miterlimit:10;stroke:#000"></path>
    <path d="M1079.42,1018.57a11.21,11.21,0,0,1-8-.71c-10.74-4.79-19.2-23.19-19.9-24.55-.88-1.69-14.29-11.37-36.12-18.45s-43.85-30-43.85-30S884.39,954,815,956.82a380.37,380.37,0,0,1-54.11-1.67c-39.4-4-64.28-12.76-64.28-12.76-16.69-37.32-16-115.76-13.1-164,.79-13.07,1.74-23.92,2.54-31.12.54-.11,1.1-.21,1.66-.3s1-.17,1.54-.24h.1l.11,0,1.7-.2q.87-.09,1.77-.15h.2l1.28-.07.73,0a55,55,0,0,1,12.24,1l.26.06a60.23,60.23,0,0,1,10.32,3c31.93,12.52,52.61,25,52.61,25s-.75,8.17-1.89,19.76c-2.48,25.25-6.79,66.74-9.2,75.48,0,0,0,.34,0,1,19.76,3.72,77.84,17.46,109.78,21,34.13,3.79,79.55,6.74,99.54,2.94s50.75,8.43,63.06,11.81c6.23,1.71,14.88,2.91,21.89,3.67,5,.55,9.25.89,11.1,1l1,.07a15.28,15.28,0,0,1-10.26,11.67,15.49,15.49,0,0,1-2.86.76s1,.42,3.42,3.27a84.38,84.38,0,0,1,7.41,10.86c7.7,12.87,5.26,24.33,5.26,24.33a48.78,48.78,0,0,1-1.82,15.27,25.8,25.8,0,0,1,1.39,17.09Z" style="fill:#f7ac84"></path>
    <path d="M686.08 747.3c-.8 7.2-1.75 18.05-2.54 31.12-22.36-10.23-20.27-20.8-20.27-20.8a37.59 37.59 0 0 1 4.71-3.29l.52-.31.87-.5c.3-.18.62-.35.94-.52s.66-.36 1-.53l1-.48c1-.5 2.1-1 3.26-1.47l.86-.35.83-.32q.64-.26 1.32-.48l.36-.12.13 0 .94-.31c.35-.11.7-.23 1.06-.33l.55-.16.21-.06.75-.2.22-.06L683 748h0c.27-.08.54-.15.82-.21h0l.85-.2ZM1123.05 870.61s-15.19 18.86-45 1c4.85-19.72 8.91-41 11.27-54.13 1.81 1.4 3.63 2.93 5.44 4.58C1124 848.75 1123.05 870.61 1123.05 870.61Z" style="fill:#c6c6c6"></path>
    <path d="M1056.2,927.88c-2.37-2.85-3.42-3.27-3.42-3.27a15.49,15.49,0,0,0,2.86-.76C1055.83,925.2,1056,926.54,1056.2,927.88Z" style="fill:#ffb523"></path>
    <path d="M968.84 895.61c-20 3.8-65.41.85-99.54-2.94-31.94-3.54-90-17.28-109.78-21 0-.66 0-1 0-1 2.41-8.74 6.72-50.23 9.2-75.48 1.14-11.59 1.89-19.76 1.89-19.76s6.24-55.64 17.08-77.61c-.49 1.75-21.83 78.25-6.09 115.83 15.92 38 31 46.25 59.69 60.5 25.1 12.46 93.17 25.9 116.67-10.33a46 46 0 0 0 5.24-11.1C964.34 871.61 966.12 887.24 968.84 895.61ZM1072.58 1022.11c-10.28-6.23-23.42-14.56-32.5-21.65-17-13.29-62.36-30.94-110.58-30.31-46.43.61-116 45-168.51-12.47 0-.84 0-1.69-.07-2.53A380.37 380.37 0 0 0 815 956.82c69.37-2.82 156.56-11.93 156.56-11.93s22 22.88 43.85 30 35.24 16.76 36.12 18.45c.7 1.36 9.16 19.76 19.9 24.55C1071.82 1019.27 1072.2 1020.69 1072.58 1022.11Z" style="fill:#c6c6c6"></path>
    <path d="M1089.36,817.52c-2.36,13.17-6.42,34.41-11.27,54.13-3.41,13.84-7.21,26.94-11.09,36-.7,1.64-1.41,3.14-2.11,4.49-1.85-.13-6.05-.47-11.1-1-3.57-24.21-7.45-48-10.68-67-2.48-14.61-4.58-26.5-5.87-33.77-.91-5-1.43-7.87-1.43-7.87l.09,0,.16,0,.24-.05.93-.16.49-.07c.54-.08,1.18-.16,1.93-.23l.73-.07,1.42-.1.63,0h.26l.77,0,1.71,0h2.09l.58,0,.58,0,.59,0,1.23.09.44,0,.82.07,1,.11c1.21.14,2.48.32,3.79.55h0l.12,0,.11,0,.69.13,1.17.23,1.2.26.28.06.93.22,1.24.31a71.49,71.49,0,0,1,9.88,3.38l1.63.72.85.39.86.41,1.5.75,1,.54c1,.55,2.08,1.14,3.13,1.76l1,.64c.36.21.71.43,1.06.66,1.23.78,2.47,1.62,3.72,2.5l.84.62C1088.19,816.62,1088.77,817.06,1089.36,817.52Z" style="fill:#ec685b"></path>
    <path d="M1068.72,1481.53c-15.65,92.26-1.14,174.2-5.53,215.49s-38.66,328.83-38.66,328.83a54.3,54.3,0,0,1-20.87,12.4c-.71.23-1.43.45-2.15.66-25.56,7.32-54.61-2.33-68.66-8.2-5.34-2.23-8.52-3.91-8.52-3.91,0-3.43.54-10.69,1.36-20.78,5.56-68.74,26.21-269.13,25.9-291.12-.35-25.21-.51-118.25-3.51-160.58-3-41.66-17.83-280.94-18.3-288.41a1.09,1.09,0,0,0,0-.18c-13.39,52.42-89.33,196.2-133.79,275.66s-68.18,160.36-80,198.27c-10,32-66,208.43-83.12,262.3l-5,15.63a78.73,78.73,0,0,1-10.86,2.88,77.54,77.54,0,0,1-11.92,1.3,81.44,81.44,0,0,1-13.37-.7c-19-2.52-34.71-11.1-44.26-17.54a90.66,90.66,0,0,1-9.94-7.59S548.71,1914,572.89,1815s63.07-176.17,71.53-187.76,15.89-44,29.36-105.35c11.33-51.57,62.28-244.7,78.26-305,21.57.7,65.73,2.73,85.85,8.1,27.19,7.25,108.42,12.61,156.74-19.44a104.83,104.83,0,0,1,12.08-6.88h0c37.15-18.17,84.91-17.09,104.83-15.64C1136.67,1273,1083.25,1395.8,1068.72,1481.53Z" style="fill:#2c4a5b"></path>
    <path d="M982.91,2020.38c-34.63,0-57.42-13.31-57.73-13.49a1,1,0,0,1,1-1.72c.41.24,41.88,24.41,98,6.77a1,1,0,1,1,.6,1.9A139.21,139.21,0,0,1,982.91,2020.38Z" style="fill:#3f7f8e"></path>
    <path d="M605.09,2021.77c-7.53,15.08-27.3,53.55-43.71,75.61-19.93,26.79-46.4,22.08-48.42,21.68l-.12,0s5.19-32.47,9.72-51.35c3.3-13.71,16.12-44,22.9-59.57l2-4.58C559.18,2011.43,580.25,2022.55,605.09,2021.77Z" style="fill:#f7ac84"></path>
    <path d="M603.51,2066.34q-.78.76-1.62,1.53c-14.32,13.07-27.21,52.38-32.66,70.86-1.77,6-2.76,9.8-2.76,9.8-36.7,15-83.72-2.81-83.72-2.81,6.31-21.89,30.1-26.69,30.1-26.69s27.81,6.22,48.54-21.65c16.41-22.06,36.18-60.53,43.71-75.61a77.54,77.54,0,0,0,11.92-1.3C621.3,2034,618.93,2051.3,603.51,2066.34Z" style="fill:#e5e5e5"></path>
    <path d="M594.75,2140.25l-25.52-1.52c5.45-18.48,18.34-57.79,32.66-70.86q.84-.76,1.62-1.53C600.53,2084.89,594.44,2122.54,594.75,2140.25Z" style="fill:#a5a5a5"></path>
    <path d="M1001.51,2038.91c-.19,5.25-.52,13.74-1,23.52-7.95,11.77-20.15,25.68-33.69,35.08-10.87,7.56-22.61,12.22-33.68,10.53-12.31-1.88-16.32-9.75-17-17.79,5.12-19.2,11.48-41.39,15.14-54,.61-2.14,1.15-4,1.6-5.53C946.9,2036.58,976,2046.23,1001.51,2038.91Z" style="fill:#f7ac84"></path>
    <path d="M1000.53,2062.43c-1.14,23.55-3.14,54.55-6.1,65.47-5,18.5-50.63,31.72-64.66,24.52s-24.19-11.52-21.34-30c.93-6,4-18.32,7.69-32.19.72,8,4.73,15.91,17,17.79C958,2111.83,986.2,2083.66,1000.53,2062.43Z" style="fill:#e5e5e5"></path>
    <path d="M937.65,2131.76a44.27,44.27,0,0,1-20.23-5.4,1,1,0,0,1,1-1.73c.14.08,13.6,7.77,26.85,4.13a1,1,0,0,1,1.23.71,1,1,0,0,1-.7,1.22A30.65,30.65,0,0,1,937.65,2131.76Z" style="fill:#fff"></path>
    <path d="M1068.44 996.43a1 1 0 0 1-1-.66c-1.09-3.1-4.49-11.65-7-13.93-3.11-2.81-13-7.42-13.07-7.47a1 1 0 0 1 .85-1.81c.42.19 10.23 4.78 13.56 7.8s7.38 14.27 7.55 14.74a1 1 0 0 1-.61 1.28A1 1 0 0 1 1068.44 996.43ZM1067.05 979.34a1 1 0 0 1-.92-.59c-.07-.17-8.06-17.66-21.62-24.88a1 1 0 1 1 .94-1.76c14.17 7.54 22.17 25.08 22.51 25.82a1 1 0 0 1-.5 1.33A1 1 0 0 1 1067.05 979.34ZM1068.87 964.07a1 1 0 0 1-1-.72c0-.11-3.12-10.63-11.26-16.55-8.51-6.19-11.41-9.27-11.53-9.4a1 1 0 1 1 1.46-1.36s2.93 3.09 11.25 9.14c8.71 6.34 11.88 17.16 12 17.62a1 1 0 0 1-.69 1.24ZM841.39 356.12a42.17 42.17 0 0 0-.61 6.89 17.12 17.12 0 0 0 2.88 9.58c-9.32 6-31.38 24.11-33.71 63.74-.16 2.67-.22 5.45-.19 8.32 5.63 27.7 16.56 64 37.44 89.75q1.62 2 3.27 3.88a271.71 271.71 0 0 0-4.75 44.85c0 1.87 0 3.74 0 5.6 0 .52 0 1 0 1.54a2.26 2.26 0 0 0 0 .26c0 .6 0 1.19.07 1.79s0 1.11.08 1.66c.1 1.82.24 3.63.43 5.42 0 .54.11 1.09.17 1.62 0 .29.07.58.11.87.07.6.15 1.2.24 1.79 0 .19.05.39.08.58l.15.94c.16 1 .33 2 .53 3 .09.49.19 1 .3 1.45.15.71.32 1.42.49 2.12q.18.74.39 1.47c.2.72.41 1.44.63 2.15s.46 1.39.71 2.07.5 1.35.77 2c.18.42.36.85.56 1.26s.49 1.06.75 1.57c5.52 10.8 13.22 14.59 20.51 15.22.2 1.48.42 3 .66 4.43a78.26 78.26 0 0 1-13.68 3.66c-22.73 3.76-37-6.41-45.54-19.66s-11.31-29.81-10.88-38.27c.16-3.19.32-7 .45-11.47.09-3.19.17-6.68.21-10.43.34-24.41-.44-59.87-5.23-96.59-6.54-50.18-5.92-92.06 25.41-125.37 21.94-23.32 48.68-30.69 62.74-33q-3.64 1.34-7.41 3.09c-26.88 12.47-35.47 29.05-37.88 41C841.54 355.29 841.46 355.71 841.39 356.12Z" style="fill:#222c38"></path>
    <path d="M953.33 851.73a210.8 210.8 0 0 1-45.53-34.61q-5.73-5.73-11-11.88c-.84-1-2.25.44-1.41 1.41a212.93 212.93 0 0 0 43 38.21q6.81 4.56 14 8.6A1 1 0 0 0 953.33 851.73ZM772.09 607.21a85.25 85.25 0 0 0-12.93-14.81c-.95-.87-2.37.54-1.41 1.41a87.39 87.39 0 0 1 28 60.72A81.93 81.93 0 0 1 784.3 674c-.25 1.26 1.68 1.8 1.93.53A89.39 89.39 0 0 0 772.09 607.21ZM1086.27 646.78A73.18 73.18 0 0 0 1064 661.22c-.93.89.48 2.3 1.41 1.42a70.53 70.53 0 0 1 21.37-13.93C1088 648.22 1087.46 646.28 1086.27 646.78Z" style="fill:#fff"></path>
    <path d="M1057.35,930.32a1,1,0,0,1-.84-.46h0c0-.08-5.69-8.54-25.22-14.65a1,1,0,0,1-.66-1.25,1,1,0,0,1,1.25-.66c20.33,6.36,26.08,15.12,26.32,15.49a1,1,0,0,1-.31,1.38A1,1,0,0,1,1057.35,930.32Z" style="fill:#222c38"></path>
    <path d="M768.71,795.19c-2.48,25.25-6.79,66.74-9.2,75.48,0,0,0,.34,0,1-13.77-2.81-8.35-33.52-7.41-74.07.92-39.11-40.7-49.4-44.44-50.24a60.23,60.23,0,0,1,10.32,3c31.93,12.52,52.61,25,52.61,25S769.85,783.6,768.71,795.19Z" style="fill:#ec685b"></path>
    <rect width="100.42" height="62.26" x="830.47" y="586.57" rx="6.32" style="fill:#fff"></rect>
    <rect width="100.42" height="13.56" x="830.47" y="623.47" style="fill:#222c38"></rect>
    <circle cx="847.52" cy="602.72" r="9.68" style="fill:#569aad"></circle>
    <path d="M1029.15,699.56s15.79-23.64-3.2-69.79" style="fill:none;stroke-miterlimit:10;stroke:#fff;stroke-width:2px;stroke-linecap:round"></path>
    <path d="M941.6,648.59c-11.15,6.26-18.73,1.81-18.73,1.81,5.88-1.57,10.87-5.18,15.09-10.4.26.72.54,1.44.82,2.16l.51,1.25C940,645.15,940.79,646.88,941.6,648.59Z" style="fill:none;stroke-miterlimit:10;stroke:#000"></path>
    <path d="M1053.78,911.09c-7-.76-15.66-2-21.89-3.67-12.31-3.38-43.07-15.61-63.06-11.81-.35-1.07-.68-2.26-1-3.56h0c-2.17-8.86-3.65-22.85-4.65-39.32-.1-1.66-.2-3.34-.29-5-.48-8.9-.84-18.4-1.1-28.13,0-1.62-.09-3.25-.13-4.88s-.07-3-.1-4.55q-.09-3.95-.15-7.9l0-1.9-.06-4.17c0-1.28,0-2.57-.05-3.85l0-3.11c0-.49,0-1,0-1.46,0-.73,0-1.47,0-2.2,0-2.28,0-4.56-.05-6.81,0-1.41,0-2.82,0-4.21,0-6.94,0-13.69,0-20.09,0-3.47,0-6.83,0-10.08h0c0-6.8,0-13.06,0-18.54,0-5.09,0-9.51,0-13.1,0-.62,0-1.22,0-1.79,0-2.11-.06-4.11-.1-6h0c0-.43,0-.85,0-1.27,0-.85-.06-1.67-.09-2.47a.76.76,0,0,1,0-.15c0-.85-.08-1.68-.12-2.48,0-.65-.07-1.29-.11-1.91l0-.42c-.07-1.13-.15-2.21-.24-3.23l0-.38c-.05-.55-.1-1.09-.15-1.6l-.09-1c0-.3-.06-.61-.1-.91a.45.45,0,0,0,0-.11c-.09-.83-.19-1.62-.28-2.37a.11.11,0,0,1,0,0c-.13-1-.27-1.9-.4-2.75,0-.08,0-.15,0-.22,0-.23-.07-.45-.11-.67-.07-.44-.15-.86-.23-1.26,0-.2-.08-.39-.11-.59-.12-.61-.25-1.18-.37-1.7l-.29-1.2a1.54,1.54,0,0,1,0-.17c-.06-.25-.13-.48-.19-.7l0-.05-.11-.38c0-.12-.07-.24-.11-.35s-.07-.23-.11-.33a16.68,16.68,0,0,0-.7-1.84l-.16-.34a4.74,4.74,0,0,0-.28-.52l-.06-.1a2.71,2.71,0,0,0-.33-.47s-2.08-2.86-4.94-7.36c-.28-.45-.58-.91-.88-1.4l-.74-1.2-1.13-1.86c-1.49-2.5-3.07-5.28-4.59-8.21-.75-1.41-1.48-2.86-2.18-4.33-.81-1.71-1.59-3.44-2.31-5.18l-.51-1.25c-.28-.72-.56-1.44-.82-2.16-.12-.33-.24-.65-.35-1s-.23-.65-.34-1-.24-.69-.34-1-.19-.6-.28-.9c-.2-.64-.38-1.29-.54-1.93s-.3-1.15-.43-1.72-.27-1.29-.38-1.92c-.06-.32-.11-.63-.16-.95s-.09-.57-.12-.86c-.1-.7-.16-1.4-.2-2.08s0-1.07,0-1.59a21.07,21.07,0,0,1,.17-2.78c1.66-12.7,2.68-22,1.58-25.47a4.36,4.36,0,0,0-.2-.52c-.52-1.08-1.37-1.26-2.63-.38h0c-4.71,3.26-7.93,1-8.82,8.22s1.39,21.45-8.33,25l-.1-4.67s-9.87,11.45-17,7.65L907,608.55s-10.3,8.36-19.16,3c0,0,7.21-9.57,15.72-20,1.13-1.38,2.28-2.78,3.44-4.17,4.45-5.34,9-10.6,13-14.64,3.56-3.65,6.62-6.3,8.57-7.11,6.43-2.64,18.73-1.59,29.64,0,4.28.63,8.35,1.35,11.77,2,12.14,2.18,18.07-2.48,19.75,29.31.11,2.1.31,4.52.59,7.22.14,1.33.29,2.73.47,4.19,0,.49.11,1,.18,1.49.12,1,.25,2,.39,3.08s.29,2.13.44,3.23c.24,1.72.49,3.5.77,5.33v0c.16,1.09.33,2.19.5,3.31s.38,2.44.58,3.68c.24,1.55.5,3.14.77,4.76.15.95.32,1.92.48,2.9.11.68.23,1.38.35,2.07.22,1.3.44,2.6.67,3.92.58,3.35,1.19,6.78,1.82,10.26h0c.87,4.82,1.79,9.73,2.73,14.67.15.78.29,1.55.44,2.33l1,5.11.72,3.67c.24,1.26.49,2.52.74,3.77,1.23,6.16,2.47,12.27,3.7,18.21.61,3,1.23,5.89,1.84,8.75s1.21,5.67,1.81,8.4q.72,3.33,1.43,6.5c.15.67.3,1.33.44,2,.21.91.41,1.8.61,2.69,2.81,12.45,5.26,22.46,6.91,28.07,2.48,8.44,9.26,29.17,17.17,53.75,1.29,7.27,3.39,19.16,5.87,33.77C1046.33,863.14,1050.21,886.88,1053.78,911.09Z" style="fill:#f7ac84"></path>
    <path d="M920,572.71c-4,4-8.55,9.3-13,14.64-19.94,2.28-23.67-8.18-23.67-8.18Z" style="fill:#ec685b"></path>
    <path d="M904,633.77a17,17,0,0,1-4.89-.75l-1-.29L906,608.25c.2-.78,5.32-20.34,9.63-24.86,3.9-4.09,13.05-13.69,28.67-8a1,1,0,0,1-.69,1.88c-14.39-5.27-22.9,3.66-26.53,7.47-3.29,3.44-7.72,18.52-9.16,24l-7.22,22.56c10.43,2.44,14.62-6.94,14.8-7.35a1,1,0,0,1,1.84.79C917.3,624.91,913.37,633.77,904,633.77Z" style="fill:#222c38"></path>
    <path d="M895.24,614.75a14.84,14.84,0,0,1-8-2.39l-.95-.59.69-.87c1.2-1.53,29.54-37.54,35.25-41.83l.26-.2c5.72-4.31,10.66-8,38.75-4.24a1,1,0,1,1-.27,2c-27.27-3.68-31.91-.19-37.28,3.85l-.26.19c-5,3.77-29.63,34.82-34.16,40.56,9.07,4.78,16.6-3,16.93-3.35a1,1,0,0,1,1.45,1.37C907.62,609.31,902.39,614.75,895.24,614.75Z" style="fill:#222c38"></path>
    <path d="M900.5,589.07A22,22,0,0,1,888,585.49a17.43,17.43,0,0,1-5.58-5.86l-.62-1.21,38-6.69a1,1,0,0,1,.35,2l-35.2,6.2c2,2.8,8.37,9.33,21.82,6.48a1,1,0,0,1,.41,2A31.83,31.83,0,0,1,900.5,589.07Z" style="fill:#222c38"></path>
    <path d="M959.2,509.49h0a143.08,143.08,0,0,1-5.33,15.73c.17-13.74.2-67.91-8.91-92.54,0,0-62.6,3.24-103.17-44.76,0,0-22.32,1.54-31.84,48.5v-.1q.18-3,.5-5.86c0-.44.1-.88.16-1.32.29-2.32.66-4.56,1.08-6.72.11-.56.23-1.13.35-1.68.44-2.07,1-4.07,1.5-6,.11-.38.22-.76.34-1.14a77.94,77.94,0,0,1,13.74-26.44c.18-.23.36-.45.55-.67,1.18-1.44,2.37-2.77,3.54-4,.15-.17.31-.33.47-.49,1.54-1.59,3.06-3,4.49-4.22l.62-.52a61.46,61.46,0,0,1,6.37-4.7,16.33,16.33,0,0,0,1.58,2.06c11.81,13.12,50.9,51.07,107.74,50.7C953,425.35,958,464.09,959.2,509.49Z" style="fill:#ec685b"></path>
    <path d="M919.64,434.65s-11.91.34-21.29,6.74-18.67,11.05-21.19,6.15S897.37,430.46,919.64,434.65Z" style="fill:#222c38"></path>
    <path d="M945,643.72c.35,4.18-.2,7.26-1.19,9.2-.75-1.41-1.48-2.86-2.18-4.33-.81-1.71-1.59-3.44-2.31-5.18l-.51-1.25c-.28-.72-.56-1.44-.82-2.16-.12-.33-.24-.65-.35-1s-.23-.65-.34-1-.24-.69-.34-1-.19-.6-.28-.9c-.2-.64-.38-1.29-.54-1.93s-.3-1.15-.43-1.72-.27-1.29-.38-1.92c-.06-.32-.11-.63-.16-.95s-.09-.57-.12-.86c-.1-.7-.16-1.4-.2-2.08s0-1.07,0-1.59a21.07,21.07,0,0,1,.17-2.78c1.66-12.7,2.68-22,1.58-25.47l.77-.78s12.35-1.33,14.41,13.08S944,632.51,945,643.72Z" style="fill:#ec685b"></path>
    <path d="m915.56 630.51-.13-6.07c.34-10.76.66-28.36.06-30-.42-1.12.21-2.86 1.86-5.16 2.58-3.58 8.13-8.84 12.89-8.71a1 1 0 0 1 1 1 1 1 0 0 1-1 1c-3.21-.1-7.69 3.49-10.43 6.88-2 2.44-2.45 4-2.37 4.31.91 2.47.21 26 .06 30.72l.06 3.14c8.9-4.36 7.76-16.23 7.14-22.74a15.09 15.09 0 0 1-.14-3.76c.69-3.22 9.07-5.24 11.62-5.78a12.71 12.71 0 0 1 9.4 2.21c4.39 3.06 7.18 8.77 8.29 17a1 1 0 1 1-2 .27c-1-7.61-3.55-12.85-7.46-15.59a10.8 10.8 0 0 0-7.83-1.89c-4.65 1-9.81 2.93-10.09 4.25a19 19 0 0 0 .18 3.15c.65 6.83 2 21-9.75 25.36ZM947.81 638.59h-.17a1 1 0 0 1-.82-1.16l1.31-7.61a1 1 0 0 1 2 .34l-1.32 7.61A1 1 0 0 1 947.81 638.59Z" style="fill:#222c38"></path>
    <path d="M961.1,745.34H961a1,1,0,0,1-.94-1.05c2.75-53-.82-63.64-12.58-82.63-11.14-18-15.4-33.68-12.66-46.71,2.37-11.32.51-18.33.49-18.4a1,1,0,1,1,1.93-.53c.08.3,2,7.5-.47,19.34-2.62,12.51,1.55,27.73,12.41,45.25,12,19.39,15.66,30.17,12.88,83.79A1,1,0,0,1,961.1,745.34Z" style="fill:#222c38"></path>
    <path d="M1079.42,1018.57a11.21,11.21,0,0,1-8-.71c-10.74-4.79-19.2-23.19-19.9-24.55-.88-1.69-14.29-11.37-36.12-18.45s-43.85-30-43.85-30S884.39,954,815,956.82a380.37,380.37,0,0,1-54.11-1.67c-39.4-4-64.28-12.76-64.28-12.76s1.88-12.78,42.5-6.67,117.68,8,162.52,7,68.52-6.31,72.31-2.84,32.21,23.69,48.63,31S1053.43,986,1056,988.56,1063.94,1021.74,1079.42,1018.57Z" style="fill:#ec685b"></path>
    <path d="M938,695.51c-11,12-7.94,20.84-6.12,25.27s17.13,24-9,24.56-9.84-17.62-15.39-23.93-1.4-12,7.89-21.85-5.5-14.78-13.73-29.25,22.85-7.39,22.85-7.39C942.61,664.4,949,683.51,938,695.51Z" style="fill:#f7ac84"></path>
    <path d="M1053.78,911.09c-7-.76-15.66-2-21.89-3.67-12.31-3.38-43.07-15.61-63.06-11.81-.35-1.07-.68-2.26-1-3.56h0s26.73-11.33,45.32-4.77,9.61-107.42-2.48-170q.72,3.33,1.43,6.5c.15.67.3,1.33.44,2,.21.91.41,1.8.61,2.69,2.81,12.45,5.26,22.46,6.91,28.07,2.48,8.44,9.26,29.17,17.17,53.75,1.29,7.27,3.39,19.16,5.87,33.77C1046.33,863.14,1050.21,886.88,1053.78,911.09Z" style="fill:#ec685b"></path>
    <path d="M1059,913.35c-7.81,0-22-1-35.36-7.43-18.48-8.84-33.33-13.2-54.6-9.32a1,1,0,0,1-1.17-.81,1,1,0,0,1,.81-1.16c21.79-4,37,.47,55.82,9.49,19.13,9.15,40.09,7,40.3,7a1,1,0,0,1,.21,2C1064.93,913.12,1062.66,913.35,1059,913.35Z" style="fill:#222c38"></path>
    <path d="M1043.24,826.17q-2.88-11-6.19-21.83c-.38-1.22-2.31-.7-1.93.54a603.77,603.77,0,0,1,18.05,77.28q1.85,11.19,3.26,22.43c.16,1.26,2.16,1.28,2,0A604.14,604.14,0,0,0,1043.24,826.17Z" style="fill:#f7ac84"></path>
    <path d="M847.35 541.24a101.49 101.49 0 0 0-3.82 34.92c.08 1.28 2.08 1.29 2 0a99.59 99.59 0 0 1 3.75-34.38A1 1 0 0 0 847.35 541.24ZM871.66 713.25a93.1 93.1 0 0 1-17.21-41.85 90.36 90.36 0 0 1-.93-13.15 1 1 0 0 0-2 0 95.05 95.05 0 0 0 11.31 44.83 93.43 93.43 0 0 0 7.1 11.18C870.69 715.29 872.43 714.29 871.66 713.25ZM869.41 322.09c-5.64 6.83-13.31 11.41-20 17.11-6.07 5.19-11.22 12-12.37 20.08a17.52 17.52 0 0 0 2.36 12c.69 1.08 2.42.08 1.73-1-4.17-6.58-2-14.7 1.84-20.88 4.33-6.89 11.29-11.47 17.61-16.37a63.23 63.23 0 0 0 10.21-9.47C871.64 322.52 870.23 321.1 869.41 322.09Z" style="fill:#fff"></path>
    <path d="M605.09 2021.77c-7.53 15.08-27.3 53.55-43.71 75.61-19.93 26.79-46.4 22.08-48.42 21.68l-.12 0c23.15.79 36.32-9.27 46.13-31.52s26.89-58.74 13.63-62.53c-10.23-2.92-22.19-12.59-27.14-16.87l2-4.58C559.18 2011.43 580.25 2022.55 605.09 2021.77ZM1001.51 2038.91c-.19 5.25-.52 13.74-1 23.52-7.95 11.77-20.15 25.68-33.69 35.08 21.95-16.41 18.15-39.68-1.39-41s-34.19-20.32-34.19-20.32c.61-2.14 1.15-4 1.6-5.53C946.9 2036.58 976 2046.23 1001.51 2038.91Z" style="fill:#ec685b"></path>
    <path d="M929.77,1265.73c-13.39,52.42-89.33,196.2-133.79,275.66s-68.18,160.36-80,198.27c-10,32-66,208.43-83.12,262.3l-5,15.63a78.73,78.73,0,0,1-10.86,2.88,77.54,77.54,0,0,1-11.92,1.3,81.44,81.44,0,0,1-13.37-.7C609,1969.52,690.5,1727,706.87,1683.21c18.34-49,78.76-178.09,130.9-265.41S929.1,1255,929.77,1265.73Z" style="fill:#222c38"></path>
    <path d="M618,2003.69c-25,0-42.73-6.46-53.78-12.44-14.28-7.72-20.64-16.11-20.9-16.46a1,1,0,1,1,1.6-1.2c.25.34,25.77,33.37,87.79,27.38a1,1,0,0,1,1.1.89,1,1,0,0,1-.9,1.1C627.71,2003.46,622.74,2003.69,618,2003.69Z" style="fill:#3f7f8e"></path>
    <path d="M1117.07 1154.26c-18.43-7.27-39.55-25.71-44.5-67.12-8.31-69.59-64.12-102.6-65.86-103.62 14.69 5.34 26.4 11.5 33.36 16.94 9.08 7.09 22.22 15.42 32.5 21.65C1086.48 1074.05 1108.28 1131.72 1117.07 1154.26ZM963.18 852.72a46 46 0 0 1-5.24 11.1c-6.51 10-16.45 16.27-28 19.75C973.6 866.1 945.9 765 948.41 761.14l.05-.06 0 0q2.29-2.73 4.57-5.66 4.07-5.22 8-11c0 3.25 0 6.61 0 10.08 0 6.4 0 13.15 0 20.09 0 1.39 0 2.8 0 4.21 0 2.25 0 4.53.05 6.81 0 .73 0 1.47 0 2.2 0 .49 0 1 0 1.46 0 1 0 2.07 0 3.11 0 1.28 0 2.57.05 3.85l.06 4.17 0 1.9q.06 4 .15 7.9c0 1.52.07 3 .1 4.55s.09 3.26.13 4.88c.26 9.73.62 19.23 1.1 28.13C963 849.38 963.08 851.06 963.18 852.72ZM867.61 742.21a53.34 53.34 0 0 1-25.82-33.43c-1 4.06-.86 9.71-.18 15.31-.15-.25-.29-.51-.42-.76s-.26-.52-.39-.78a22.2 22.2 0 0 1-1.22-3.24c-.08-.27-.16-.54-.22-.81a.08.08 0 0 1 0 0c-.08-.28-.14-.55-.2-.83s-.18-.82-.24-1.23-.11-.66-.16-1-.1-.8-.14-1.2c0-.22 0-.43-.06-.65 0-.44-.06-.87-.08-1.3 0-.22 0-.43 0-.64-.26-11.28 4.68-22.31 4.68-22.31 2.27 16.52 9.53 26.38 18.14 32.2 1.32 4.85 3 10.46 5 16.6C866.68 739.45 867.14 740.82 867.61 742.21Z" style="fill:#c6c6c6"></path>
    <path d="M845.71,744.34C795.15,724,803.29,630.25,803.29,630.25c-14-16.55-11.7-42.51-9.48-55.27a85.27,85.27,0,0,1,10,1.2c0,1.11-.07,2.17-.1,3.21s-.08,2-.11,3c-.08,1.91-.16,3.67-.24,5.27-.43,8.46,2.29,24.93,10.88,38.27a173.57,173.57,0,0,0-3.58,36.3c0,.53,0,1,0,1.57s0,1.23.06,1.84,0,1.18.09,1.76c0,.79.1,1.57.16,2.34,0,.47.07.93.12,1.39s.09,1,.14,1.51c.06.66.14,1.31.22,2,.16,1.34.34,2.64.55,3.92.11.69.23,1.38.35,2,.08.46.16.91.26,1.36s.17.84.26,1.26.21,1,.33,1.5.2.86.3,1.28c.62,2.53,1.32,4.9,2.09,7.14l.33.95c.31.86.62,1.7,1,2.52.21.51.41,1,.63,1.51s.35.84.54,1.24q1.08,2.43,2.27,4.59c.19.36.38.71.58,1.05s.45.79.68,1.17c.49.83,1,1.63,1.51,2.4l.75,1.11c7.07,10.2,14.94,14.7,18,16.16A154.69,154.69,0,0,0,845.71,744.34Z" style="fill:#c6c6c6"></path>
    <path d="M1111.55 1183h0c-1.19-4.26-2.55-8.45-4.11-12.56-9 2.43-22.48 3.3-40.59-2.88-36.31-12.39-113-6.4-190 31.51-59.38 29.21-104.29 14.79-121.8 6.63-.77 2.91-1.77 6.66-3 11.16 6.26.21 14.42.52 23.35 1A107.23 107.23 0 0 1 748 1254.3c-1 .84.44 2.25 1.41 1.42A108.57 108.57 0 0 0 777.52 1218c21.39 1.19 46.56 3.31 60.38 7 14.21 3.79 43.18 7.06 74.51 4.75a53.31 53.31 0 0 0 12.43 33.71c.83 1 2.23-.43 1.41-1.41a51.29 51.29 0 0 1-11.88-32.45c28-2.28 57.73-9.09 80.27-24a105.94 105.94 0 0 1 12.19-6.92 92.13 92.13 0 0 1 22.53-4.88 129.91 129.91 0 0 0 15.45 34.69 133.14 133.14 0 0 0 28.85 32.41c1.62 1.3 3.27 2.57 4.95 3.79-7.24 88.67-31.83 252-31.77 347.28.06 83.41-32.75 345.24-43.18 426.32a54.3 54.3 0 0 0 20.87-12.4s34.27-287.53 38.66-328.83-10.12-123.23 5.53-215.49C1083.25 1395.8 1136.67 1273 1111.55 1183Zm-50.29 63.51a131.3 131.3 0 0 1-23.59-35.59 125.56 125.56 0 0 1-6.27-17.35c22.52-1.31 51.75 7 48 60.45-.18 2.66-.39 5.4-.61 8.21A128.92 128.92 0 0 1 1061.26 1246.55ZM688.8 1659a49.66 49.66 0 0 1-31.51-16.83c-.84-1-2.25.44-1.41 1.41A51.62 51.62 0 0 0 688.8 1661C690.07 1661.17 690.06 1659.16 688.8 1659Z" style="fill:#222c38"></path>
    <path d="M1016.33,1677.92a48.9,48.9,0,0,1-31.67-1.92c-1.19-.49-1.71,1.45-.53,1.93a50.63,50.63,0,0,0,32.73,1.92A1,1,0,0,0,1016.33,1677.92Z" style="fill:#222c38"></path>
  </g>
</svg>
