<svg xmlns="http://www.w3.org/2000/svg" id="freelancer-working-from-home" viewBox="0 0 2275.57 1673.591">
  <defs>
    <linearGradient id="linear-gradient" x1="1460.347" x2="990.099" y1="137.656" y2="1413.458" gradientUnits="userSpaceOnUse">
      <stop offset="0" stop-color="#f1ddd7" stop-opacity=".3"></stop>
      <stop offset=".262" stop-color="#d6d2d6" stop-opacity=".464"></stop>
      <stop offset=".836" stop-color="#91b5d2" stop-opacity=".877"></stop>
      <stop offset="1" stop-color="#7cadd1"></stop>
    </linearGradient>
  </defs>
  <path d="M1762.028 1508.645q-35.06 9.647-72.579 18.43-6.215 1.458-12.517 2.893c-127.761 29.156-275.658 50.932-440.432 64.765-117.662 9.885-229.388 12.237-333.95 8.072l-3.237-.13q-10.424-.42-20.718-.95c-1.403-.064-2.806-.129-4.208-.215-4.123-.194-8.244-.432-12.345-.647-1.014-.065-2.05-.108-3.065-.195-177.031-10.272-332.115-39.515-458.733-82.484-1.1-.366-2.18-.733-3.28-1.122q-13.046-4.435-25.682-9.107c-1.338-.497-2.654-.971-3.97-1.49a730.111 730.111 0 0 1-8.245-3.085 184.07 184.07 0 0 1-3.108-1.209q-17.286-6.669-33.753-13.704c-183.333-78.254-289.449-189.031-291.348-310.577-4.1-263.358 163.565-309.11 307.556-501.011 144.012-191.902-143.991-282.436-33.58-486.919 110.388-204.505 793.265-8.136 977.073 8.136 183.83 16.294 257.811-155.32 439.483-126.704 73.787 11.633 129.186 53.479 168.939 99.059 59.37 68.089 92.735 155.083 96.015 245.336 3.518 96.49-84.966 162.702-60.428 213.224 54.666 112.547 131.452 193.822 243.524 394.032 122.215 218.317-44.522 385.918-407.412 485.602Z" style="fill:url(#linear-gradient)"></path>
  <path d="M1762.028 1508.645q-35.06 9.647-72.579 18.43-6.215 1.458-12.517 2.893c-127.761 29.156-275.658 50.932-440.432 64.765-117.662 9.885-229.388 12.237-333.95 8.072l-3.237-.13q-10.424-.42-20.718-.95c-1.403-.064-2.806-.129-4.208-.215-4.123-.194-8.244-.432-12.345-.647-1.014-.065-2.05-.108-3.065-.195-177.031-10.272-332.115-39.515-458.733-82.484-1.1-.366-2.18-.733-3.28-1.122q-13.046-4.435-25.682-9.107c-1.338-.497-2.654-.971-3.97-1.49a730.111 730.111 0 0 1-8.245-3.085 184.07 184.07 0 0 1-3.108-1.209q-17.286-6.669-33.753-13.704a26.3 26.3 0 0 1 1.51-16.294c36.473-84.534 386.372-45.256 587.834-56.565 201.462-11.287 454.438-299.096 573.589-258.35s25.984 199.066 158.882 268.386c59.866 31.228 100.137 59.845 118.007 83.001Z" style="fill:#330c29;opacity:.2"></path>
  <path d="m1627.855 775.635-417.728-68.586a24.75 24.75 0 0 0-13.23 1.468L192.501 1113.512a7.52 7.52 0 0 0-.863 13.553c4.791 2.676 10.747 6.021 17.74 9.928 104.907 58.658 441.123 246.847 535.584 299.721a43.493 43.493 0 0 0 47.609-3.366l824.796-629.161 14.805-11.287a9.689 9.689 0 0 0-4.317-17.265Z" style="fill:#fcf2f0"></path>
  <path d="m911.883 709.685-14.125 152.839 70.429 27.484 69.712-36.026-68.009-17.524-2.64-137.628-55.367 10.855z" style="fill:#1c323f"></path>
  <path d="m836.617 992.741 363.674-174.8a47.928 47.928 0 0 1 29.922-3.847l270.046 52.581a7.202 7.202 0 0 1 2.95 12.826l-300.091 225.573a47.928 47.928 0 0 1-43.818 7.202l-321.82-106.205a7.202 7.202 0 0 1-.863-13.33Z" style="fill:#330c29"></path>
  <path d="m974.382 935.166 145.906 33.358a13.899 13.899 0 0 0 10.245-1.629l143.78-86.21a1.728 1.728 0 0 0-.586-3.185l-131.187-23.304a13.899 13.899 0 0 0-8.429 1.147l-160.09 76.579a1.728 1.728 0 0 0 .361 3.244Z" style="fill:#1c323f"></path>
  <path d="m965.741 922.37 154.5-73.692a7.676 7.676 0 0 0 3.79-9.861l-62.086-150.183a6.962 6.962 0 0 0-8.352-4.033l-166.53 47.7a7.676 7.676 0 0 0-4.96 10.36l74.225 176.128a6.962 6.962 0 0 0 9.413 3.58Z" style="fill:#77d5d8"></path>
  <path d="m1632.174 822.408-121.762 92.886-78.729 60.04-29.221 22.293-.237.172-61.097 46.616-56.586 43.163-41.717 31.832-137.085 104.54-216.957 165.486-37.768 28.811-58.442 44.587a43.452 43.452 0 0 1-47.609 3.367C644.201 1409.81 268.427 1199.5 191.64 1156.573a7.44 7.44 0 0 1-3.863-6.56v-30.3a7.44 7.44 0 0 0 3.863 6.56c4.791 2.676 10.748 6.021 17.74 9.928 104.907 58.658 441.123 246.847 535.584 299.721a43.493 43.493 0 0 0 47.609-3.366l57.147-43.595 16.165-12.322 229.064-174.745.777-.582 118.892-90.685v-.022l8.266-6.28 216.31-165.011 107.216-81.793 70.96-54.126 10.488 1.726a9.705 9.705 0 0 1 4.316 17.287Z" style="fill:#f1ddd7"></path>
  <path d="M1112.668 982.409c5.954 0 200.365-119.885 200.365-119.885l89.19 23.74-191.417 139.17Z" style="fill:#3d5d6b"></path>
  <path d="m974.382 930.021 145.906 33.359a13.899 13.899 0 0 0 10.245-1.63l143.78-86.21a1.728 1.728 0 0 0-.586-3.184l-131.187-23.304a13.899 13.899 0 0 0-8.429 1.146l-160.09 76.58a1.728 1.728 0 0 0 .361 3.243Z" style="fill:#2b4a5e"></path>
  <path d="m970.338 922.37 154.5-73.692a7.676 7.676 0 0 0 3.79-9.861l-62.086-150.183a6.962 6.962 0 0 0-8.352-4.033l-166.53 47.7a7.676 7.676 0 0 0-4.96 10.36l74.225 176.128a6.962 6.962 0 0 0 9.413 3.58ZM1014.076 920.912l118.51-59.407a18.375 18.375 0 0 1 11.661-1.625l51.392 9.758a1.702 1.702 0 0 1 .489 3.17l-114.676 61.718a18.375 18.375 0 0 1-12.733 1.748l-54.253-12.18a1.702 1.702 0 0 1-.39-3.182ZM1122.233 921.062l59.865-32.53a13.259 13.259 0 0 1 8.837-1.37l34.427 6.629a1.552 1.552 0 0 1 .486 2.866l-57.943 33.64a13.259 13.259 0 0 1-9.495 1.484l-35.769-7.84a1.552 1.552 0 0 1-.408-2.879Z" style="fill:#1c323f"></path>
  <path d="m1066.05 698.83-168.292 52.011-3.172-7.532 169.003-50.414 2.461 5.935z" style="fill:#1c323f"></path>
  <path d="m1124.103 838.72-158.644 72.708-67.701-160.587 168.292-52.011 58.053 139.89z" style="fill:#2b4a5e"></path>
  <path d="m1068.035 714.433-83.8 27.862-3.777-8.978 84.059-27.387 3.518 8.503z" style="fill:#1c323f"></path>
  <path d="m1077.186 736.554-82.398 30.84-3.669-8.741 82.937-29.674 3.13 7.575zM1117.672 834.188l-79.527 36.343-36.796-87.555 82.246-31.013 34.077 82.225z" style="fill:#fcf2f0"></path>
  <path d="M1066.071 698.83h-.021" style="fill:none;stroke-miterlimit:10;stroke:#ff3000"></path>
  <path d="m1074.056 728.979-82.937 29.674-6.884-16.358 83.8-27.862 6.021 14.546zM1083.595 751.963l-82.246 31.013-6.561-15.582 82.398-30.84 6.409 15.409z" style="fill:#f09b9b"></path>
  <path d="m1051.218 725.371 14.832-4.998 1.524 4.543-13.971 5.225-2.385-4.77zM1064.394 747.406l10.904-3.975 2.385 6.474-10.109 4.089-3.18-6.588z" style="fill:#fcf2f0"></path>
  <path d="m1008.226 788.354 7.156 16.775 17.889-7.575-8.008-16.697-17.037 7.497zM1069.221 765.353l6.304 13.8 13.801-5.622-6.304-14.878-13.801 6.7z" style="fill:#f09b9b"></path>
  <path d="m1015.041 789.717 6.815-2.726 4.089 8.008-7.497 2.215-3.407-7.497zM1075.184 767.394l2.499 4.774 5.912-2.387-3.299-5.11-5.112 2.723z" style="fill:#fcf2f0"></path>
  <path d="m909.349 759.765 63.608-20.31M962.28 748.712l11.813-4.032" style="fill:none;stroke-miterlimit:10;stroke:#d35e71;stroke-linecap:round"></path>
  <path d="m931.555 772.509 46.854-16.357M957.623 774.894l24.535-8.86" style="fill:none;stroke-miterlimit:10;stroke-linecap:round;stroke:#f1ddd7"></path>
  <path d="m954.982 770.464 24.535-8.86" style="fill:none;stroke-miterlimit:10;stroke:#d35e71;stroke-linecap:round"></path>
  <path d="M923.547 794.488c.512-.17 60.688-22.66 60.688-22.66" style="fill:none;stroke-miterlimit:10;stroke-linecap:round;stroke:#f1ddd7"></path>
  <path d="M936.906 817.179c.511-.17 60.687-24.819 60.687-24.819" style="fill:none;stroke-miterlimit:10;stroke:#d35e71;stroke-linecap:round"></path>
  <path d="M939.298 823.887c.511-.17 60.687-24.818 60.687-24.818M979.517 780.176l6.389-2.556M959.554 823.887l42.936-17.643" style="fill:none;stroke-miterlimit:10;stroke-linecap:round;stroke:#f1ddd7"></path>
  <path d="M944.788 838.275c.681 0 19.31-7.951 19.31-7.951l10.677 23.853-19.793 8.405Z" style="fill:#1c323f"></path>
  <path d="M988.405 833.731c.909-.227 22.526-9.844 22.526-9.844" style="fill:none;stroke-miterlimit:10;stroke:#d35e71;stroke-linecap:round"></path>
  <path d="M1004.534 836.458c.682-.455 9.541-4.317 9.541-4.317M984.235 855.994c.535-.454 33.93-15.22 33.93-15.22" style="fill:none;stroke-miterlimit:10;stroke-linecap:round;stroke:#f1ddd7"></path>
  <path d="M1161.055 963.73c1.023-1.42 152.66-96.406 152.66-96.406l65.766 19.6-35.268 24.504 10.052 4.305-125.058 90.535Z" style="fill:#1c323f"></path>
  <path d="m1229.548 960.266 27.897-17.719 30.031 8.859-10.692 7.688-13.331-4.05-8.349 5.222 12.608 4.36-7.986 6.285-30.178-10.645z" style="fill:#3d5d6b"></path>
  <path d="M1254.886 813.211a3.29 3.29 0 0 1-.064.647.846.846 0 0 1-.065.303 2.214 2.214 0 0 1-.151.54 7.309 7.309 0 0 1-.389.84c-.15.238-.302.454-.474.691a9.427 9.427 0 0 1-1.468 1.468c-5.395-4.424-18.56-7.554-33.969-7.554s-28.574 3.13-33.97 7.554c-1.682-1.381-2.61-2.892-2.61-4.489 0-6.647 16.38-12.02 36.58-12.02s36.58 5.373 36.58 12.02Z" style="fill:#a66664"></path>
  <path d="M1218.306 810.146c-15.41 0-28.574 3.13-33.97 7.554a15.278 15.278 0 0 0 1.792 1.252c.346.215.734.431 1.122.626.303.172.626.323.972.496a48.09 48.09 0 0 0 9.625 3.108 103.105 103.105 0 0 0 40.918 0 48.094 48.094 0 0 0 9.625-3.108c.346-.173.67-.324.972-.496.388-.195.777-.41 1.122-.626a15.267 15.267 0 0 0 1.791-1.252c-5.395-4.424-18.56-7.554-33.969-7.554Z" style="fill:#8a4e53"></path>
  <path d="M1254.822 813.858a.846.846 0 0 1-.065.303 2.522 2.522 0 0 1-.151.54 7.309 7.309 0 0 1-.389.84c-.15.238-.302.454-.474.691a9.427 9.427 0 0 1-1.468 1.468 15.267 15.267 0 0 1-1.791 1.252c-.345.215-.734.431-1.122.626-.302.172-.626.323-.972.496a48.094 48.094 0 0 1-9.625 3.108 103.105 103.105 0 0 1-40.918 0 48.09 48.09 0 0 1-9.625-3.108c-.346-.173-.67-.324-.972-.496-.388-.195-.776-.41-1.122-.626a15.278 15.278 0 0 1-1.791-1.252c-1.683-1.381-2.611-2.892-2.611-4.489v9.97h.15c1.533 6.173 17.266 11.007 36.43 11.007s34.897-4.834 36.45-11.006a4.082 4.082 0 0 0 .13-1.015v-8.956a3.29 3.29 0 0 1-.064.647Z" style="fill:#a66664"></path>
  <path d="m503.402 376.21 80.412 454.115s465.467-166.414 670.943-201.742V364.405s-657.325 7.705-751.355 11.805Zm743.305 239.898c-126.316 9.993-645.174 187.586-645.174 187.586L529.537 402.56c59.78-8.18 717.17-24.538 717.17-24.538Z" style="fill:#1c323f"></path>
  <path d="M1246.707 378.023v238.085c-126.316 9.993-645.174 187.586-645.174 187.586L529.537 402.56c24.517-3.345 149.473-8.071 288.392-12.496l35.307 317.462s240.05-67.226 270.867-78.146l-13.66-247.819c80.52-2.158 136.264-3.539 136.264-3.539Z" style="fill:#45acaf"></path>
  <path d="m821.382 417.279-261.89 12.734-1.575-9.28 262.602-11.805.863 8.351zM845.057 646.085l-238.064 63.6-12.129-71.369 244.02-51.795 6.173 59.564z" style="fill:#3d5d6b"></path>
  <path d="m838.884 586.521-244.02 51.795-35.372-208.303 261.89-12.734 17.502 169.242z" style="fill:#1c323f"></path>
  <path d="m1111.673 403.964-290.723 13.25-3.021-27.149c101.26-3.215 209.922-6.258 292.513-8.503Z" style="fill:#f09b9b"></path>
  <path d="M1124.103 629.381c-30.818 10.92-270.867 78.146-270.867 78.146L820.95 417.215l290.723-13.251Z" style="fill:#fcf2f0"></path>
  <path d="m805.045 445.227-110.821 9.885-1.359-9.841 105.511-7.748 5.784-.432.885 8.136z" style="fill:#1c323f"></path>
  <path d="m807.893 471.017-109.784 12.366-1.187-8.697 110.195-10.726.776 7.057zM820.519 585.657l-105.404 21.366-1.079-7.77-13.467-98 109.245-12.712 10.705 97.116z" style="fill:#fcf2f0"></path>
  <path d="m807.117 463.96-110.195 10.726-2.698-19.574 110.821-9.885 2.072 18.733zM809.814 488.541l-109.245 12.712-2.46-17.87 109.784-12.366 1.921 17.524z" style="fill:#f09b9b"></path>
  <path d="m796.615 458.878-21.979 2.158-1.012-7.549 21.979-2.158 1.012 7.549zM801.125 484.309l-21.978 2.158-1.013-7.549 21.979-2.158 1.012 7.549z" style="fill:#fcf2f0"></path>
  <path d="m708.189 506.888 19.423-1.874 3.578 19.764-18.572 1.533-4.429-19.423z" style="fill:#f09b9b"></path>
  <path d="m713.489 510.713 10.584-1.021 2.023 11.175-10.102.835-2.505-10.989z" style="fill:#fcf2f0"></path>
  <path d="m785.2 497.177 20.275-1.875 2.418 18.231-19.286 2.13-3.407-18.486z" style="fill:#f09b9b"></path>
  <path d="m790.302 501.039 11.439-1.057 1.293 9.745-10.909 1.205-1.823-9.893z" style="fill:#fcf2f0"></path>
  <path d="M797.556 432.494c-30.257 2.266-176.989 13.316-208.001 15.884l-1.317-8.114 208.433-13.273Z" style="fill:#d35e71"></path>
  <path d="m700.57 501.253 13.466 98-96.49 21.625-27.991-172.5c31.012-2.568 177.744-13.618 208.001-15.884l.82 5.029-105.511 7.748 1.36 9.84 2.697 19.575 1.187 8.697Z" style="fill:#2b4a5e"></path>
  <path d="m608.347 456.182 74.966-5.916M670.592 458.217l12.721-.909" style="fill:none;stroke-miterlimit:10;stroke:#d35e71;stroke-linecap:round"></path>
  <path d="M619.932 472.301c.682-.454 64.517-6.133 64.517-6.133" style="fill:none;stroke-miterlimit:10;stroke-linecap:round;stroke:#f1ddd7"></path>
  <path d="m650.828 476.845 34.984-3.173" style="fill:none;stroke-miterlimit:10;stroke:#d35e71;stroke-linecap:round"></path>
  <path d="m652.191 484.341 33.621-3.18M607.211 499.335l81.327-7.951M679.224 501.253l9.314-1.01" style="fill:none;stroke-miterlimit:10;stroke-linecap:round;stroke:#f1ddd7"></path>
  <path d="m617.206 529.549 76.759-9.996" style="fill:none;stroke-miterlimit:10;stroke:#d35e71;stroke-linecap:round"></path>
  <path d="m640.832 534.092 53.392-6.588" style="fill:none;stroke-miterlimit:10;stroke-linecap:round;stroke:#f1ddd7"></path>
  <path d="m617.206 547.782 4.089 27.201 25.227-5.175-3.781-26.375-25.535 4.349z" style="fill:#1c323f"></path>
  <path d="m679.224 538.863 15-2.272" style="fill:none;stroke-miterlimit:10;stroke-linecap:round;stroke:#f1ddd7"></path>
  <path d="m669.002 551.584 27.033-3.802" style="fill:none;stroke-miterlimit:10;stroke:#d35e71;stroke-linecap:round"></path>
  <path d="m659.46 563.482 39.755-5.991" style="fill:none;stroke-miterlimit:10;stroke-linecap:round;stroke:#f1ddd7"></path>
  <path d="m676.953 629.731 5.565 44.072 82.123-22.036-6.361-41.118-81.327 19.082zM764.641 610.649l4.543 35.439 33.85-7.772-5.478-35.391-32.915 7.724zM803.034 602.925l4.859 35.391 30.991-9.493-5.183-34.076-28.656 6.361" style="fill:#2b4a5e"></path>
  <path d="m820.95 417.215-1.295.065" style="fill:none;stroke-miterlimit:10;stroke:#ff3000"></path>
  <path d="m1073.148 395.855 25.208-.906M1032.929 397.301l28.248-1.015M995.08 398.661l27.615-.992M954.899 400.106l27.93-1.004M909.916 401.723l31.674-1.139M847.558 403.964l43.956-1.58" style="fill:none;stroke-miterlimit:10;stroke-linecap:round;stroke:#f1ddd7;stroke-width:2px"></path>
  <path d="m968.593 433.313 79.858-8.576M1033.933 435.411c1.362-.063 14.915-2.051 14.915-2.051M1019.586 450.057c.337-.356 29.842-4.102 29.842-4.102M1025.793 458.64c1.02-.046 24.09-2.814 24.09-2.814M1020.636 472.864l29.858-3.762M1031.314 482.265l19.666-2.611M1021.655 494.99l29.873-3.422M1032.364 505.071l18.288-2.888M1037.892 521.532l13.528-2.67M1020.61 538.701c1.67-.76 34.579-4.662 34.579-4.662M1024.413 554.9c1.018-.388 31.497-5.203 31.497-5.203M1025.055 568.856c2.395-.11 31.529-4.522 31.529-4.522M1046.279 592.439l12.857-2.297M1038.815 608.133l20.917-5.056" style="fill:none;stroke-miterlimit:10;stroke-linecap:round;stroke-width:2px;stroke:#3d5d6b"></path>
  <path d="m638.333 945.046 47.706 12.267 43.617-26.806-49.037-6.597-42.286 21.136z" style="fill:#1c323f"></path>
  <path d="m827.338 1069.986-4.618 8.827-4.187 8.028-23.459 44.89a15.971 15.971 0 0 1-14.33 8.567l-224.36-2.568-3.237-.043-3.647-.043a3.347 3.347 0 0 1-2.547-5.482l53.22-63.989Z" style="fill:#a66664"></path>
  <path d="m818.533 1086.84-23.459 44.89a15.971 15.971 0 0 1-14.33 8.568l-224.36-2.568-9.43 11.33a3.363 3.363 0 0 0 2.546 5.503l231.244 2.633a15.931 15.931 0 0 0 14.33-8.568l32.264-61.722v-16.92Z" style="fill:#8a4e53"></path>
  <path d="m675.334 947.122 30.633-15.832a4.947 4.947 0 0 0 2.244-6.414l-36.04-80.584a6.19 6.19 0 0 0-8.09-3.162l-34.168 14.644a4.947 4.947 0 0 0-2.506 6.697l39.51 81.843a6.19 6.19 0 0 0 8.417 2.808Z" style="fill:#2b4a5e"></path>
  <path d="M823.713 1078.597v9.107l-28.222 52.41a26.172 26.172 0 0 1-5.431 6.95 19.108 19.108 0 0 1-13.027 4.973l-223.886-1.963v-12.387l3.237.043 224.36 2.568a15.971 15.971 0 0 0 14.33-8.568l23.459-44.89 4.187-8.027Z" style="fill:#fffbfa"></path>
  <path d="M799.581 1146.207a2.158 2.158 0 0 1-2.158-2.158v-18.802l-248.157-1.757a2.158 2.158 0 0 1 .016-4.317h.014l250.3 1.773a2.158 2.158 0 0 1 2.143 2.158v20.945a2.158 2.158 0 0 1-2.158 2.158Z" style="fill:#eab32a"></path>
  <path d="M396.964 1517.062q-13.046-4.435-25.682-9.107-6.15-2.266-12.215-4.575a184.07 184.07 0 0 1-3.108-1.209l-11.373-260.034 40.702 22.769ZM899.313 1602.675q-10.424-.42-20.718-.95c-5.546-.258-11.05-.56-16.553-.863-1.014-.064-2.05-.107-3.065-.194l-7.963-182.427 37.767-28.811.691.388Z" style="fill:#ccb6b0"></path>
  <path d="M869.12 1498.804c.8 22.812 3 63.687 5.267 102.706-4.123-.194-8.244-.432-12.345-.648-1.014-.064-2.05-.107-3.065-.194l-7.963-182.427 37.767-28.811 3.022 50.651s-24.495 6.022-22.682 58.723ZM385.288 1264.906v36.71s-28.509-2.72-25.422 63.6c1.553 33.062 4.683 91.224 7.445 141.25a730.111 730.111 0 0 1-8.244-3.086 184.07 184.07 0 0 1-3.108-1.209l-11.373-260.034Z" style="fill:#330c29;opacity:.2"></path>
  <path d="m1744.298 1052.59-20.945 198.704 24.69-18.731 25.889-193.551-29.634 13.578z" style="fill:#421a39"></path>
  <path d="m1772.613 1048.87-28.917 12.958s-17.972 166.974-17.782 165.177 27.811-143.921 27.811-143.921 1.142-17.522 17.155-21.256l1.733-12.958" style="fill:#330c29"></path>
  <circle cx="1307.18" cy="1534.45" r="38.937" style="fill:#330c29"></circle>
  <path d="M1506.089 1314.935v74.627l26.96 1.935v-76.562h-26.96z" style="fill:#330c29"></path>
  <path d="M1772.625 1247.712c-12.452 53.305-80.455 67.225-80.455 67.225-146.143 38.863-315.675-12.974-369.687-31.962a26.13 26.13 0 0 1-17.46-24.663v-28.346a12.886 12.886 0 0 1 5.159-10.313l24.018-17.996s333.648-55.42 352.23-51.515c11.89 2.482 48.881 19.877 70.765 46.012 12.366 14.761 19.92 32.329 15.43 51.558Z" style="fill:#421a39"></path>
  <path d="M1619.7 1276.177c-123.494 12.703-244.944-26.075-293.059-44.041a12.887 12.887 0 0 1-3.235-22.392l10.794-8.087s333.648-55.42 352.23-51.515c11.89 2.482 48.881 19.877 70.765 46.012l.043.086s21.473 63.579-137.538 79.937ZM1315.906 1537.15l-11.77-5.397c.524-1.144 13.225-28.445 46.045-61.26 30.098-30.092 83.628-70.685 167.715-93.196 68.024-18.21 123.16-16.517 163.87 5.022 31.147 16.481 41.533 38.737 41.96 39.677l-11.79 5.358c-.077-.169-9.433-19.723-37.126-34.058-25.904-13.413-73.572-24.903-153.567-3.488-80.995 21.68-132.495 60.569-161.436 89.375-31.384 31.236-43.78 57.704-43.9 57.968Z" style="fill:#330c29"></path>
  <path d="M1689.45 1527.076q-6.216 1.457-12.518 2.892c-7.726-33.451-45.17-82.42-131.085-130.675q-7.834-4.403-15.603-7.985a233.946 233.946 0 0 0-5.417-2.44q-9.485-4.078-18.733-7.12a28.288 28.288 0 0 0-1.77-.584 241.924 241.924 0 0 0-78.47-11.502c-22.422.41-39.774 3.733-50.176 6.603-5.913 1.62-9.582 3.108-10.64 3.842a5.628 5.628 0 0 0 1.964-4.878l-12.905 1.036c-.173-1.964.388-4.769 3.97-7.078a34.426 34.426 0 0 1 6.28-2.87c20.546-7.532 78.514-17.762 141.747 1.899a227.716 227.716 0 0 1 19.704 7.057q3.626 1.457 7.251 3.107c4.015 1.77 8.007 3.712 12.021 5.784a229.473 229.473 0 0 1 7.122 3.842c104.432 58.68 130.826 112.287 137.257 139.07Z" style="fill:#330c29"></path>
  <circle cx="1354.065" cy="1389.436" r="25.305" style="fill:#330c29"></circle>
  <circle cx="1706.949" cy="1403.941" r="27.068" style="fill:#330c29"></circle>
  <path d="m1449.313 1010.076-47.09-12.28-72.578 55.378s123.052 40.27 130.448 15.326-10.78-58.424-10.78-58.424Z" style="fill:#2b4a5e"></path>
  <path d="M1439.577 1007.537c.617 18.453 2.043 41.898 5.34 50.674l8.324-.829c.777.432-37.336 2.806-65.22 4.446a121.064 121.064 0 0 0 34.056 3.734c24.107-1.036 60.471-9.712 90.728-18.129 30.063-8.352 54.083-16.402 54.083-16.402-.022.108-.065.216-.086.324a1.049 1.049 0 0 0-.065.151c-1.446 4.144-3.021 8.503-4.64 13.035-11.762 32.394-27.43 72.19-36.883 91.333-15.171 30.753-21.236 20.2-41.457 20.33 37.335 8.632 72.254 16.142 94.504 20.868a25.608 25.608 0 0 1 14.568 8.806c63.535-10.1 101.777-42.3 121.438-64.852 36.192-125.194 92.627-334.317 79.916-380.89-13.402-49.097-69.017-80.886-98.303-94.547-3.906 3.95-11.287 8.265-25.056 11.395-20.61 4.683-34.574 5.654-46.918 9.517a62.973 62.973 0 0 0-21.646 11.61c-19.51 15.69-69.104 42.948-69.104 42.948-25.207 9.539-41.565 31.336-41.565 31.336-27.257 14.999-29.308 67.485-32.027 85.872-1.273 8.546-3.583 21.69-6.431 35.264-1.77 8.481-3.777 17.157-5.87 24.991-1.77 6.604-3.583 12.604-5.417 17.438-3.95 10.402-3.755 17.243-2.655 23.35.971 5.504 2.655 10.425 2.655 16.877a20.018 20.018 0 0 1-10.92 18.388l.755.755 7.424 7.424s-2.72 22.488-4.77 22.488m18.369 32.3c-.399-18.254-.687-43.745.537-52.328 0 0-.524 30.962-.537 52.327Z" style="fill:#eab32a"></path>
  <path d="M1261.231 1421.654a36.896 36.896 0 0 1-3.755 3.021c-8.46 6.086-30.775 18.237-62.219 6.28a51.842 51.842 0 0 1-2.849-1.122l-6.82-27.257s21.582 4.985 65.435-4.1Z" style="fill:#2b4a5e"></path>
  <path d="M1631.977 396.648c-13.229 35.091-39.537 93.663-47.457 111.122a291.69 291.69 0 0 1-9.625-3.518q-4.986-1.942-9.712-3.992c-1.446-.626-2.87-1.273-4.252-1.9l-2.913-1.359-2.849-1.36a222.806 222.806 0 0 1-32.63-19.444 191.31 191.31 0 0 1-3.777-2.784 157.417 157.417 0 0 1-5.676-4.446c-.734-.604-1.446-1.187-2.137-1.77a135.42 135.42 0 0 1-3.626-3.129 65.481 65.481 0 0 1-1.251-1.1 186.283 186.283 0 0 1-11.546-11.288 168.434 168.434 0 0 1-5.482-6.129 139.647 139.647 0 0 1-5.762-7.143 78.176 78.176 0 0 1-2.094-2.784 133.848 133.848 0 0 1-2.61-3.67 77.78 77.78 0 0 1-1.145-1.682 183.236 183.236 0 0 1-2.46-3.799 147.344 147.344 0 0 1-3.669-6.194c-.324-.604-.647-1.187-.95-1.748a115.645 115.645 0 0 1-3.582-7.186c7.64-20.632 21.063-44.997 44.587-64.442 40.185-33.214 95.11-28.1 128.02-18.107v.022c.281.884 8.029 26.976-7.402 67.83Z" style="fill:#1c323f"></path>
  <path d="M1703.541 434.825q-.324 2.752-.647 5.374a78.744 78.744 0 0 1-24.236 1.424l-11.913 48.062s18.107.432 29.804-2.137c-2.784 18.56-4.36 25.358-4.575 26.222a.604.604 0 0 0-.022.108l-.971 1.122c-21.042 7.187-50.285 9.129-90.34-2.18a302.581 302.581 0 0 1-16.121-5.05c7.92-17.46 34.228-76.031 47.457-111.122 15.431-40.854 7.683-66.946 7.403-67.83a111.301 111.301 0 0 1 21.236 8.546c23.157 12.949 50.414 34.746 42.925 97.461Z" style="fill:#fff"></path>
  <path d="M1702.894 440.199c-2.525 20.848-4.662 36.213-6.345 47.35-11.697 2.568-29.804 2.136-29.804 2.136l11.913-48.062a78.744 78.744 0 0 0 24.236-1.424Z" style="fill:#1c323f"></path>
  <path d="M1536.717 648.308c-4.748-11.481-10.208-23.934-14.46-31.53l-15.818 2.784c7.834-8.568 17.308-24.776 22.617-34.358 3.95 13.121 7.79 33.516 7.661 63.104ZM1664.047 606.138l5.072 11.848c-44.393 11.697-103.008-81.491-107.842-89.303.345-.777.69-1.554 1.014-2.353s.626-1.575.907-2.395a11.935 11.935 0 0 0 .388-1.144c.13-.367.26-.734.367-1.122a52.2 52.2 0 0 0 .863-3c.022-.087.043-.195.065-.28a53.747 53.747 0 0 0 .885-4.165 12.157 12.157 0 0 0 .194-1.231c.065-.41.13-.82.173-1.209a.273.273 0 0 1 .021-.13c.087-.776.173-1.531.216-2.287a39.93 39.93 0 0 0-.216-8.676 272.13 272.13 0 0 0 18.366 7.08 302.655 302.655 0 0 0 16.121 5.05c40.055 11.308 69.298 9.366 90.34 2.179l-44.005 51.342Z" style="fill:#e06e7e"></path>
  <path d="M1672.27 625.367c-13.143 5.848-33.15 8.028-49.832 8.46-26.566.669-74.973 41.566-74.973 41.566s-4.813-12.777-10.748-27.085c.13-29.588-3.712-49.983-7.661-63.104-5.31 9.582-14.783 25.79-22.617 34.358l-.842.15a33.146 33.146 0 0 1-38.63-28.595c-2.202-17.74-4.425-39.623-5.05-59.025a220.475 220.475 0 0 1 .366-25.725c3.41-40.206 5.46-30.667-5.46-51.795 0 0 .993-19.056 9.95-43.227a115.645 115.645 0 0 0 3.582 7.186c.302.561.625 1.144.95 1.748 1.078 1.921 2.287 3.993 3.668 6.194.777 1.23 1.597 2.504 2.46 3.799.367.56.756 1.122 1.144 1.683.82 1.187 1.683 2.417 2.612 3.669.669.928 1.36 1.856 2.093 2.784a139.647 139.647 0 0 0 5.762 7.143 168.357 168.357 0 0 0 5.482 6.13 186.274 186.274 0 0 0 11.546 11.286c.41.367.82.734 1.252 1.101a135.42 135.42 0 0 0 3.625 3.13c.69.582 1.403 1.165 2.137 1.769a207.464 207.464 0 0 0 5.676 4.446 191.19 191.19 0 0 0 3.776 2.784 222.806 222.806 0 0 0 32.631 19.444l2.85 1.36 2.913 1.36c1.38.626 2.805 1.273 4.251 1.899.324.15.648.28.971.431a39.93 39.93 0 0 1 .216 8.676 90.31 90.31 0 0 1-.216 2.288.273.273 0 0 0-.021.13c-.043.388-.108.798-.173 1.208-.043.41-.13.82-.194 1.23a53.747 53.747 0 0 1-.885 4.165c-.022.086-.043.194-.065.28-.259.993-.54 2.008-.863 3a17.05 17.05 0 0 1-.367 1.123c-.13.388-.259.777-.388 1.144-.28.82-.583 1.597-.907 2.395s-.669 1.575-1.014 2.353c4.834 7.812 63.45 101 107.842 89.303Z" style="fill:#f09b9b"></path>
  <path d="M1252.75 1395.95a.067.067 0 0 0-.022.044l-1.705 2.482c-43.853 9.085-65.434 4.1-65.434 4.1s-11.676.497-21.452-35.35c38.48 27.451 64.442 23.61 48.493 18.992-11.2-3.238-35.954-22.531-52.335-35.696-.216-1.036-.41-2.072-.604-3.15 0 0-17.718-21.82-32.027-66.795-4.77-15.043-10.035-28.811-14.89-40.487a159.202 159.202 0 0 1 46.226-13.812c38.631-5.438 53.63 54.083 54.99 84.966 1.36 30.904 26.804 32.264 33.17 34.983 6.345 2.72-3.647 34.984-2.74 39.882.906 4.878 7.272-16.703 10.466-9.884 3.065 6.583-1.834 18.949-2.136 19.726Z" style="fill:#3d5d6b"></path>
  <path d="M1714.267 1121.026a6478.82 6478.82 0 0 1-20.2 68.413 67.678 67.678 0 0 1-33.084 40.292l-46.141 24.495a169.92 169.92 0 0 1-125.194 13.683l-288.391-80.024s26.588 34.767 32.717 98.152 21.128 48.385 19.769 68.823c-1.36 20.459 12.258 21.818 4.769 32.717-2.892 4.208-4.662 6.798-5.762 8.374.302-.777 5.201-13.143 2.136-19.726-3.194-6.82-9.56 14.762-10.467 9.885-.906-4.9 9.086-37.163 2.741-39.883-6.366-2.719-31.81-4.079-33.17-34.983-1.36-30.883-16.359-90.404-54.99-84.966a159.202 159.202 0 0 0-46.227 13.812 480.616 480.616 0 0 0-7.035-16.143l235.387-179.535a147.48 147.48 0 0 0 6.496 1.9c17.87 9.258 45.796 20.48 74.456 19.25 24.106-1.036 60.471-9.712 90.728-18.129 30.063-8.352 54.083-16.401 54.083-16.401-.022.108-.065.215-.086.323a1.048 1.048 0 0 0-.065.151c-1.446 4.144-3.021 8.503-4.64 13.036-11.762 32.393-27.43 72.19-36.883 91.332-15.171 30.753-21.236 20.2-41.457 20.33 37.335 8.632 72.254 16.142 94.504 20.869a25.608 25.608 0 0 1 14.568 8.805c63.535-10.1 101.777-42.3 121.438-64.852Z" style="fill:#2b4a5e"></path>
  <path d="M1452.744 459.693c1.022 0 16.015 7.156 22.83 12.268" style="stroke:#8a4e53;stroke-width:5px;stroke-linecap:round;fill:none;stroke-miterlimit:10"></path>
  <path d="M1466.033 482.865s-4.43 6.815-9.882 14.993-8.86 12.949-12.608 17.038 1.826 10.564 5.684 11.927 7.001-.675 12.585 2.388 8.31-5.115 7.288-10.567-5.793-4.1-4.94-12.273 1.873-23.506 1.873-23.506Z" style="fill:#e06e7e"></path>
  <ellipse cx="1474.147" cy="489.169" rx="4.835" ry="9.712" style="fill:#1c323f"></ellipse>
  <path d="M1529.078 548.3a9.508 9.508 0 0 1-4.144-.022c-16.402-3.884 1.079-59.111 1.079-59.111s19.423-23.221 30.753-5.201h.022c.173.302.367.626.561.95 11.244 19.768-5.115 58.938-28.271 63.384Z" style="fill:#f09b9b"></path>
  <path d="M1561.277 528.683c-5.611 12.474-15.323 22.984-26.653 25.163-5.115.972-8.115-1.36-9.69-5.568a9.508 9.508 0 0 0 4.144.022c18.624-3.582 32.846-29.61 31.854-49.94a30.124 30.124 0 0 0-3.583-13.444 53.263 53.263 0 0 1-.561-.95 16.141 16.141 0 0 1 6.108 6.496 27.526 27.526 0 0 1 3.258 10.23c1.209 8.74-.734 18.883-4.877 27.99Z" style="fill:#e06e7e"></path>
  <path d="M1534.526 506.371c2.008-.795 9.515 3.073 4.927-6.128s-3.714-14.752 5.295-17.378 16.016 17.038 8.86 33.735c0 0 1.022-16.357-1.704-22.49s-8.178-5.112-8.178-1.363.19 10.552 1.799 13.624 3.312 20.11-8.273 19.77-12.574-15.868-2.726-19.77Z" style="fill:#e06e7e"></path>
  <path d="M1544.724 518.626a9.524 9.524 0 0 1-9.517 9.538 9.047 9.047 0 0 1-3.065-.517 9.53 9.53 0 1 1 12.582-9.021Z" style="fill:#fcf8fd"></path>
  <path d="M1532.142 527.647c-6.13 5.87-14.222 14.848-14.222 14.848l-3.496-2.72c1.597-7.532 7.79-14.46 11.697-18.214a9.504 9.504 0 0 0 6.021 6.086Z" style="fill:#f5e9ef"></path>
  <path d="M1529.768 583.91q-.356.614-.712 1.294c-5.31 9.582-14.783 25.79-22.617 34.358a31.248 31.248 0 0 1-4.295 4.035c-11.568 8.525-38.156-8.524-41.911-30.321-2.957-17.309-2.72-45.127-2.503-55.875a5.583 5.583 0 0 1 4.186-5.309 4.809 4.809 0 0 1 1.77-.15 3.646 3.646 0 0 1 3.712 3.064c1.014 5.438-1.014 27.257 4.079 20.437 5.115-6.82 17.394-24.56 18.063-36.817.583-10.273 8.352-19.121 18.69-22.92a3.094 3.094 0 0 1 4.036 3.885c-3.432 9.992-8.762 31.81 2.158 50.069a614.61 614.61 0 0 0 6.258 10.208c3.734 5.978 6.475 9.992 8.396 12.668a10.64 10.64 0 0 1 .69 11.373Z" style="fill:#a66664"></path>
  <ellipse cx="1639.627" cy="328.818" rx="8.282" ry="12.178" style="fill:#2b4a5e" transform="rotate(-71.332 1639.627 328.818)"></ellipse>
  <path d="M1732.849 579.29s-15.668 16.36-66.104 14.33c-13.078-.517-26.07-7.768-38.134-18.192-23.395-20.265-43.336-52.55-53.716-71.176a291.673 291.673 0 0 0 9.625 3.518 302.655 302.655 0 0 0 16.121 5.05c40.055 11.309 69.298 9.367 90.34 2.18l.97-1.122a.604.604 0 0 1 .023-.108c13.035 24.603 40.875 65.52 40.875 65.52Z" style="fill:#3d5d6b"></path>
  <path d="M1628.61 575.428c-21.667-1.619-34.659-21.862-42.515-35.653-5.74-10.035-14.222-22.401-19.725-30.408a39.93 39.93 0 0 0-.216-8.675c-.324-.152-.647-.281-.97-.432q4.725 2.04 9.71 3.992c10.381 18.625 30.322 50.91 53.717 71.176Z" style="fill:#8a4e53"></path>
  <path d="m1686.406 610.066-.065.582c-.863 6.475-6.259 11.244-14.071 14.719l-3.151-7.38-5.072-11.85c9.15-3.215 20.913-5.804 22.272 1.49 0 .842.022 1.662.087 2.439Z" style="fill:#1c323f"></path>
  <path d="M1686.32 607.627a8.932 8.932 0 0 1 .086 2.439" style="fill:none;stroke-miterlimit:10;stroke:red;stroke-width:.5px"></path>
  <path d="M1695.88 645.589c-3.906 3.95-11.287 8.265-25.056 11.395-33.063 7.51-49.055 5.46-68.564 21.128-19.51 15.69-69.104 42.947-69.104 42.947l-2.071-7.403-4.187-15.02a11.157 11.157 0 0 1-.302-1.425 10.315 10.315 0 0 1 4.165-9.668l16.704-12.15s48.407-40.897 74.973-41.566c16.683-.432 36.689-2.612 49.832-8.46 7.812-3.475 13.208-8.244 14.07-14.719l.066-.582c1.208 19.035 13.725 25.12 13.725 25.12s1.274 4.856-4.251 10.403Z" style="fill:#3d5d6b"></path>
  <path d="M1686.32 607.627a33.108 33.108 0 0 1 .02-2.525" style="fill:none;stroke-miterlimit:10;stroke:red;stroke-width:.5px"></path>
  <path d="M1539.296 736.73s74.285 33.393 95.412 53.157 29.305 70.878 26.58 92.686-23.235-53.158-44.33-62.699-77.662-51.114-83.795-66.107-2.244-20.894 6.133-17.038ZM1557.016 732.64c1.901-1.014 66.107-9.111 87.915 2.941s-17.038-4.985-21.808 7.282 14.993 10.904 7.496 18.4-83.826-23.17-73.603-28.623ZM1751.929 851.224c-.682-7.497-25.216-77.391-40.891-88.787s-6.134-21.19 0-26.856 29.823 22.275 35.697 42.72 5.194 72.923 5.194 72.923ZM1727.226 857.357s-9.373-38.165-12.099-49.069a168.213 168.213 0 0 0-8.178-23.171s35.956 50.432 39.786 66.107-19.509 6.133-19.509 6.133Z" style="fill:#330c29;opacity:.2"></path>
  <path d="M1566.802 1031.355c.021-.108.064-.216.086-.323 0 0-24.02 8.05-54.083 16.401-30.257 8.417-66.622 17.093-90.728 18.129-28.66 1.23-56.586-9.992-74.456-19.25 49.335 13.574 96.253 6.862 96.253 6.862s5.115-9.992 5.353-38.782c.021-1.489.043-2.935.086-4.316.345-11.395 1.683-19.574 3.928-24.862 20.459 8.611 52.334 20.157 84.21 25.79a202.938 202.938 0 0 0 35.113 3.388c-1.619 4.986-3.583 10.726-5.762 16.963Z" style="fill:#e06e7e"></path>
  <path d="M1562.097 1044.542c-11.762 32.393-27.43 72.19-36.883 91.332-15.171 30.753-21.236 20.2-41.457 20.33-.993 0-2.007.043-3.065.107-13.769.82-48.666-9.344-83.65-21.322-.042 0-.064 0-.086-.022-22.768-7.812-45.558-16.38-62.564-23.178-22.898-9.172-51.407-23.437-73.16-34.832a1716.79 1716.79 0 0 1-15.626-8.288c-10.704-5.74-17.545-9.582-17.545-9.582s-34.056 4.532-49.055-6.366-37.724-18.02-37.724-18.02l-13.618-2.418c-10.898 6.367-21.365-.906-21.365-.906l.475-.324c2.87 1.122 9.129 2.288 18.193-3.15 0 0 18.603.582 28.142 6.797s30.667 20.977 46.335 19.165 22.725-7.964 31.573-5.676c2.676.69 12.086 5.071 25.121 11.2 1.9.907 3.863 1.835 5.913 2.785 2.18 1.035 4.446 2.093 6.777 3.194 1.532.712 3.13 1.467 4.726 2.223.022 0 .043.021.087.043h.021c16.013 7.51 34.53 16.078 51.946 23.459 1.252.54 2.482 1.057 3.734 1.597a683.969 683.969 0 0 0 14.503 5.848q1.715.68 3.366 1.295c5.072 1.92 9.885 3.626 14.287 5.029.69.237 1.36.453 2.029.647.669.216 1.338.41 1.985.604 41.566 12.258 101.886 45.666 110.734 43.961 8.87-1.704 9.216-14.308 33.754-8.87 0 0 36.515-58.161 52.097-96.662ZM1158.85 1017.004a49.788 49.788 0 0 1-9.28 3.431 1.869 1.869 0 0 0 .56-1.1 1.84 1.84 0 0 0-1.812-2.072l-27.02-.432c-25.855 16.445-29.07 3.626-29.07 3.626 2.266 1.057 6.949 2.309 13.121-.907 8.848-4.597 15.84-8.675 15.84-9.366.001-.67 42.603 4.273 37.66 6.82Z" style="fill:#e06e7e"></path>
  <path d="M1566.888 1031.032c-.022.107-.065.215-.086.323a1.048 1.048 0 0 0-.065.151c-1.446 4.144-3.021 8.503-4.64 13.036-15.582 38.5-52.097 96.662-52.097 96.662-24.538-5.438-24.884 7.165-33.754 8.87-8.848 1.705-69.168-31.703-110.734-43.96-.647-.195-1.316-.39-1.985-.605a43.805 43.805 0 0 1-2.029-.648c-4.402-1.402-9.215-3.107-14.287-5.028q-1.65-.615-3.366-1.295a683.969 683.969 0 0 1-14.503-5.849c-1.252-.54-2.482-1.057-3.733-1.597-17.417-7.38-35.933-15.948-51.947-23.458h-.021c-.043-.022-.065-.044-.087-.044-1.618-.755-3.194-1.51-4.726-2.223-2.33-1.1-4.597-2.158-6.777-3.194-2.028-.97-4.014-1.899-5.913-2.784-13.035-6.129-22.445-10.51-25.12-11.2-8.849-2.288-15.906 3.863-31.574 5.676s-36.796-12.95-46.335-19.165-28.142-6.798-28.142-6.798c-9.064 5.439-15.323 4.273-18.193 3.151l14.524-9.669 26.135-.41h.022l.863-.021a1.989 1.989 0 0 0 1.251-.518 49.788 49.788 0 0 0 9.28-3.431c4.943-2.547-37.659-7.49-37.659-6.82 0 .69-6.992 4.77-15.84 9.366-6.173 3.216-10.856 1.964-13.122.907l27.71-20.891 27.128.82h.086a3.618 3.618 0 0 0 3.087-5.547v-.021c-.67-6.734-31.617-12.41-31.617-12.41-6.237 5.633-15.733 7.748-20.589 8.504l21.474-20.33 12.128-1.252s24.128 11.892 31.811 6.432c0 0-17.89-8.244-26.825-11.136l10.121-9.583 25.898 6.367s18.171 7.726 31.81 14.524c13.619 6.82 39.516 38.458 39.516 38.458s27.15 5.655 72.212 21.301q7.64 2.622 15.948 5.676a186.54 186.54 0 0 0 15.496 4.942c17.869 9.258 45.795 20.48 74.455 19.25 24.107-1.035 60.471-9.71 90.728-18.128 30.063-8.352 54.083-16.401 54.083-16.401Z" style="fill:#f09b9b"></path>
  <path d="M1561.277 528.682c-.194-.345-.302-.518-.302-.518" style="fill:none;stroke-miterlimit:10;stroke:red;stroke-width:.5px"></path>
  <path d="M1164.137 1367.226c-1.338-4.856-2.633-10.402-3.842-16.704 16.38 13.165 41.134 32.458 52.335 35.695 15.949 4.619-10.014 8.46-48.493-18.991Z" style="fill:#2b4a5e"></path>
  <path d="M1236.5 1505.757c-29.071 12.452-61.314 25.207-66.234 26.976-8.525 3.065-20.46 1.36-27.948 0-7.51-1.36-18.064-12.603-17.373-20.437.67-7.834-.69-30.667 14.632-36.796 15.344-6.151 27.279-3.41 31.358-10.575 2.698-4.683 10.057-10.532 15.668-15.841 3.777 14.028 17.028 26.437 26.588 31.509 6.021 3.194 15.776 15.128 23.308 25.164ZM1283.05 1483.334c-3.69 2.719-12.452 7.143-23.567 12.258-5.309-7.619-16.984-20.092-16.984-20.092 29.674-3.67 36.99-24.754 37.292-25.64 10.877 9.69 15.69 24.28 3.26 33.474ZM1265.375 1437.754c-39.127 36.839-71.024-.022-71.024-.022a34.29 34.29 0 0 0 .906-6.776c31.444 11.956 53.76-.195 62.22-6.28a51.445 51.445 0 0 0 7.898 13.078Z" style="fill:#f1ddd7"></path>
  <path d="M1242.499 1475.5s11.675 12.474 16.984 20.092c-6.97 3.194-14.848 6.668-22.984 10.165-7.532-10.036-17.287-21.97-23.308-25.164-9.56-5.072-22.811-17.481-26.588-31.509 2.957-2.784 5.417-5.439 6.474-7.661a17.334 17.334 0 0 0 1.274-3.69s31.897 36.86 71.024.02a40.926 40.926 0 0 0 9.15 8.094 40.332 40.332 0 0 1 5.266 4.014c-.302.885-7.618 21.97-37.292 25.639Z" style="fill:#330c29"></path>
  <path d="M1453.133 873.53c-1.77 8.482-3.777 17.158-5.87 24.992-5.266-.842-11.676-1.748-16.338-2.093-9.301-.67-24.97 2.719-33.148 0s-21.129-6.583-33.862-2.504c-11.567 3.734-28.94-.992-29.437-6.517 3.453 1.683 11.719 4.92 19.79 2.33 10.554-3.41 26.243-8.438 34.077-3.215 7.834 5.244 14.309 10.359 26.567 6.95 12.28-3.41 22.941-5.44 28.639-4.058a38.78 38.78 0 0 0 5.438-16.25c1.532.172 2.914.301 4.144.366Z" style="fill:#e06e7e"></path>
  <path d="M1448.989 873.164a38.78 38.78 0 0 1-5.438 16.25c-5.698-1.38-16.36.648-28.639 4.058-12.258 3.41-18.733-1.705-26.567-6.95-7.834-5.222-23.523-.193-34.076 3.217-8.072 2.59-16.338-.648-19.79-2.331a2.792 2.792 0 0 1 .366-1.662c3.41-6.13 16.122-9.755 28.855-9.086 12.71.69 21.128-4.532 21.128-4.532l2.935-1.057a2.497 2.497 0 0 0 .431-4.51c-8.071-4.684-24.58-13.77-31.034-13.64l-11.934 6.474s-4.92 7.467-12.539 9.474a17.318 17.318 0 0 1-2.395-.388l10.682-13.165 18.343-9.805a4.58 4.58 0 0 1 3.435-.366c7.677 2.21 38.21 11.213 56.368 19.71a97.223 97.223 0 0 0 29.869 8.31Z" style="fill:#f09b9b"></path>
  <path d="m1387.763 871.07-2.935 1.058c-5.914-6.82-25.229-12.949-25.229-12.949s-2.72-1.597-10.683 5.223c-5.632 4.834-12.625 4.856-16.229 4.467 7.618-2.007 12.539-9.474 12.539-9.474l11.934-6.474c6.453-.13 22.963 8.956 31.034 13.64a2.497 2.497 0 0 1-.431 4.51Z" style="fill:#e06e7e"></path>
  <path d="m1339.272 882.8 5.967-.274a3.743 3.743 0 0 1 3.914 3.739h0a3.743 3.743 0 0 1-3.914 3.739l-5.967-.275M1337.951 860.296s2.428 1.023.383 3.45a44.758 44.758 0 0 1-3.28 3.578" style="fill:none;stroke-miterlimit:10;stroke-linecap:round;stroke-width:.5px;stroke:#e06e7e"></path>
  <path d="M1163.446 975.762c-7.683 5.46-31.81-6.432-31.81-6.432l4.985-4.704c8.934 2.892 26.825 11.136 26.825 11.136ZM1150.238 994.818a3.702 3.702 0 0 0-2.654-1.64c-8.525-.95-27.257-2.935-29.005-2.245-13.122 5.245-23.287 2.547-23.287 2.547l2.72-2.568h.021c4.856-.756 14.352-2.87 20.589-8.503 0 0 30.947 5.676 31.616 12.409Z" style="fill:#e06e7e"></path>
  <path d="M1597.016 1211.409c-6.475 16.747-20.093 33.731-48.623 29.868-45.084-6.107-214.692-43.68-267.63-55.507a15.7 15.7 0 0 1-11.33-20.826c8.61-22.725 32.09-57.709 91.634-39.969 10.877 3.237 23.005 6.604 35.89 9.992.021.022.043.022.086.022 27.192 7.187 57.687 14.524 86.714 21.214 37.335 8.633 72.254 16.143 94.504 20.87a25.712 25.712 0 0 1 18.755 34.336Z" style="fill:#330c29"></path>
  <path d="m1848.139 884.303-25.25 115.806a59.27 59.27 0 0 1-33.97 41.587c-19.682 8.676-46.421 20.416-68.262 29.696a24.325 24.325 0 0 1-24.085-2.742v.001l-.215-.151a24.348 24.348 0 0 1-9.755-22.488l8.05-71.002a129.562 129.562 0 0 1 88.225-108.447l33.386-11.006a24.403 24.403 0 0 1 20.178 2.115l.54.345a24.568 24.568 0 0 1 11.158 26.286Z" style="fill:#421a39"></path>
  <path d="M187.775 1119.709v-.647" style="fill:none;stroke-miterlimit:10;stroke:red;stroke-width:.5px"></path>
  <path d="M1529.768 583.91q-.356.614-.712 1.294c-5.31 9.582-14.783 25.79-22.617 34.358a31.248 31.248 0 0 1-4.295 4.035c-11.568 8.525-38.156-8.524-41.911-30.321-2.957-17.309-2.72-45.127-2.503-55.875a5.583 5.583 0 0 1 4.186-5.309 4.809 4.809 0 0 1 1.77-.15 3.646 3.646 0 0 1 3.712 3.064s-4.834-2.741-4.64 13.51c.216 16.25 2.482 42.062 21.56 45.277 16.553 2.784 32.458-23.869 36.364-33.926 3.734 5.979 6.475 9.993 8.396 12.669a10.64 10.64 0 0 1 .69 11.373Z" style="fill:#8a4e53"></path>
  <path d="M1624.534 877.893c-3.69 42.106-12.733 147.94-13.445 187.758-.907 50.22-50.889 122.021-125.41 110.195-56.953-9.021-185.728-40.767-242.854-56.436l41.716-31.832c14.892 8.2 30.862 16.618 49.853 24.214 43.163 17.265 123.575 45.882 146.3 44.523 22.704-1.36 28.617 11.826 44.523-20.438 9.452-19.143 25.12-58.939 36.882-91.332 1.619-4.532 3.194-8.892 4.64-13.035a1.064 1.064 0 0 1 .065-.151c2.18-6.237 4.144-11.978 5.762-16.963 0 0 13.078.28 19.445 0 0 0 25.811-90.707 32.523-136.503Z" style="opacity:.3;fill:#330c29"></path>
  <path d="M1672.27 643.366c-7.878 9.086-50.738 12.258-66.643 22.185-15.906 9.95-74.542 48.105-74.542 48.105l-4.187-15.02a11.157 11.157 0 0 1-.302-1.425c17.135-14.438 72.923-54.708 89.023-51.622 18.883 3.625 64.528-11.309 56.65-2.223Z" style="fill:#330c29;opacity:.2"></path>
  <path d="M1836.441 857.672a24.403 24.403 0 0 0-20.178-2.115l-33.386 11.006a129.562 129.562 0 0 0-88.225 108.447l-8.05 71.002a24.348 24.348 0 0 0 9.755 22.488l-24.754-16.186a24.527 24.527 0 0 1-15.474-25.66l8.072-71.003a129.506 129.506 0 0 1 88.203-108.446l33.386-11.007a24.406 24.406 0 0 1 21.517 2.979Z" style="fill:#330c29"></path>
  <path d="M1623.906 666.501a62.973 62.973 0 0 0-21.646 11.61c-19.51 15.69-69.104 42.948-69.104 42.948-25.207 9.539-41.565 31.336-41.565 31.336-27.258 14.999-29.308 67.485-32.027 85.872-1.273 8.546-3.583 21.69-6.431 35.264-1.77 8.481-3.777 17.157-5.87 24.991-1.77 6.604-3.583 12.604-5.417 17.438-3.95 10.402-3.756 17.243-2.655 23.35.971 5.504 2.655 10.425 2.655 16.877a20.018 20.018 0 0 1-10.92 18.388l.755.755 7.424 7.424s-2.72 22.488-4.77 22.488c0 0 2.205.987 5.248 2.096.244 6.917 1.717 45.44 4.291 45.836 0 0 5.493-8.086 5.439-43.098.345-11.395 1.683-19.574 3.928-24.862 20.459 8.611 52.334 20.157 84.21 25.79a202.94 202.94 0 0 0 35.113 3.388s-108.08-55.377-66.125-50.543c41.954 4.812 90.447-6.086 54.838-23.351-17.567-8.525-38.048-17.265-50.867-25.207-13.187-8.158-18.323-15.43-3.971-20.718 20.934-7.683 35.846-23.74 39.968-37.055 1.446-4.684 1.576-9.043.151-12.56-5.438-13.489-.453-69.018 37.293-45.494 33.063 20.61 58.442-105.663 40.055-132.963Z" style="fill:#330c29;opacity:.2"></path>
  <path d="m1442.805 1172.888-124.76-26.38c-1.29-.273-4.581 2.34-2.748 2.729l124.76 26.38c1.29.273 4.582-2.341 2.748-2.729ZM1510.57 1193.422a26.228 26.228 0 0 0-14.991-4.34 3.646 3.646 0 0 0-2.67 1.48c-.502.735-.153 1.306.717 1.292a23.832 23.832 0 0 1 13.573 4.072c1.17.781 4.664-1.64 3.37-2.504ZM1736.372 889.753c-.801-.382-2.241.608-2.764 1.104a128.009 128.009 0 0 0-38.65 77.027 122.409 122.409 0 0 0-.436 25.147c.134 1.578 4.028-.132 3.91-1.532-3.144-36.955 11.002-74.595 37.956-100.12.606-.575.778-1.247-.016-1.626ZM1745.657 1158.52l-8.446 61.3c-.188 1.37 3.711-.09 3.91-1.532l8.445-61.3c.189-1.369-3.71.091-3.91 1.533ZM1700.53 1289.679a153.703 153.703 0 0 1-79.836 16.055 3.556 3.556 0 0 0-2.764 1.104c-.347.387-1.035 1.552.015 1.625a160.556 160.556 0 0 0 83.599-16.957c2.31-1.17 1.288-2.992-1.013-1.827ZM1732.748 1272.979c-1.332 0-4.35 2.772-1.953 2.772 1.331 0 4.35-2.772 1.953-2.772ZM1444.96 1297.153l-83.736-20.813c-1.28-.319-4.59 2.27-2.748 2.729l83.735 20.814c1.28.318 4.591-2.272 2.748-2.73Z" style="fill:#f1ddd7;opacity:.44"></path>
  <path d="M1314.441 1512.146c-1.166-.784-4.664 1.635-3.37 2.504a31.014 31.014 0 0 1 13.7 25 29.449 29.449 0 0 1-13.98 25.347c-2.2 1.308-1.23 3.162 1.014 1.828 9.376-5.575 16.053-15.334 16.81-26.352a32.07 32.07 0 0 0-14.174-28.327ZM1289.528 1535.136c-.077-.312-.704-.348-.911-.34a3.464 3.464 0 0 0-1.483.472c-.685.4-1.602 1.067-1.381 1.96l2.026 8.183c.078.31.705.347.911.34a3.462 3.462 0 0 0 1.484-.473c.685-.4 1.602-1.067 1.38-1.96l-2.026-8.182ZM1354.535 1369.317a22.572 22.572 0 0 0-17.212 11.801c-.463.895.831.997 1.37.875a3.628 3.628 0 0 0 2.4-1.76 16.31 16.31 0 0 1 2.097-3.078 14.882 14.882 0 0 1 2.868-2.568c.116-.083.234-.163.352-.243l.08-.054.067-.04c.305-.185.613-.365.927-.535.156-.085.316-.165.473-.248l.114-.06a.426.426 0 0 0 .041-.018q.438-.2.886-.377a14.635 14.635 0 0 1 3.584-.923 3.836 3.836 0 0 0 2.67-1.48c.456-.668.19-1.402-.717-1.292ZM1710.247 1387.383a3.799 3.799 0 0 0-2.669 1.48c-.465.68-.185 1.386.716 1.292 7.849-.815 15.192 7.82 13.235 15.456-.478 1.865 3.44.41 3.771-.885 2.294-8.949-5.871-18.296-15.053-17.343ZM1513.095 1350.78v16.356c0 1.514 3.91-.1 3.91-1.533v-16.356c0-1.515-3.91.1-3.91 1.532ZM1660.107 584.854a103.785 103.785 0 0 1-53.8-49.15c-1.262-2.476-4.988-.294-3.728 2.178a108.242 108.242 0 0 0 56.381 51.134c2.583 1.024 3.704-3.149 1.147-4.162ZM1694.325 585.463a2.186 2.186 0 0 0-2.655-1.507 18.227 18.227 0 0 1-2.028.588q-.441.1-.887.177c-.137.024-.285.048-.43.067l-.192.022a18.078 18.078 0 0 1-4.066-.043 2.15 2.15 0 0 0-1.526.632 2.158 2.158 0 0 0 0 3.052 2.518 2.518 0 0 0 1.526.632 19.49 19.49 0 0 0 8.75-.965 2.2 2.2 0 0 0 1.508-2.655Z" style="fill:#f1ddd7"></path>
  <path d="M1603.087 784.198a127.729 127.729 0 0 0-17.744-18.516c-2.102-1.793-5.169 1.246-3.052 3.053a129.297 129.297 0 0 1 42.716 74.01 124.424 124.424 0 0 1 2.107 24.978c-.041 2.778 4.275 2.78 4.316 0a133.435 133.435 0 0 0-28.343-83.525ZM1544.338 749.51a93.561 93.561 0 0 0-25.998-12.867c-2.656-.836-3.792 3.33-1.148 4.162a89.81 89.81 0 0 1 24.968 12.432 2.176 2.176 0 0 0 2.952-.774 2.204 2.204 0 0 0-.774-2.953ZM1561.392 756.527c-2.777 0-2.782 4.316 0 4.316 2.778 0 2.782-4.316 0-4.316Z" style="fill:#330c29;opacity:.2"></path>
  <path d="M1571.392 1007.435a269.397 269.397 0 0 1-110.513-20.099 264.907 264.907 0 0 1-29.25-14.243c-2.424-1.365-4.602 2.362-2.18 3.727a273.523 273.523 0 0 0 109.343 33.982 269.407 269.407 0 0 0 32.6.95c2.77-.086 2.782-4.403 0-4.317Z" style="fill:#f1ddd7"></path>
  <path d="M1546.311 767.264c-10.333 9.957-16.915 23.14-20.007 37.069a96.873 96.873 0 0 0-2.229 21.751c.064 8.018.94 16.484-1.862 24.175-3.956 10.856-15.075 16.421-24.484 21.802-8.913 5.097-18.43 10.893-22.201 20.99-4.863 13.02 3.984 28.525 17.41 31.521 2.706.604 3.862-3.556 1.148-4.162-11.828-2.639-19.096-16.545-13.79-27.625 4.33-9.04 14.133-13.865 22.424-18.6 8.747-4.995 18.189-10.623 22.583-20.147 3.025-6.556 3.312-13.84 3.214-20.942-.099-7.156-.254-14.245.792-21.349 2.283-15.504 8.657-30.449 20.054-41.431 2.004-1.931-1.05-4.981-3.052-3.052ZM1497.728 945.539c-4.783 4.637-11.666 7.725-14.68 13.963-2.528 5.232-2.485 12.109 2.719 15.663 2.299 1.571 4.46-2.168 2.178-3.727-3.629-2.478-2.344-8.131-.35-11.22a24.73 24.73 0 0 1 5.95-5.779 80.09 80.09 0 0 0 7.235-5.848c1.997-1.937-1.056-4.988-3.052-3.052Z" style="fill:#330c29;opacity:.2"></path>
  <path d="M1716.397 1138.956a161.232 161.232 0 0 1-84.056 45.107 156.324 156.324 0 0 1-27.226 2.825c-2.775.047-2.784 4.363 0 4.316a165.233 165.233 0 0 0 93.038-30.915 162.842 162.842 0 0 0 21.296-18.281c1.945-1.987-1.104-5.041-3.052-3.052Z" style="fill:#eab32a"></path>
  <path d="M1696.871 460.836a2.179 2.179 0 0 0-4.022-1.09 31.01 31.01 0 0 0-1.19 1.73c-.044-.728-.055-1.457-.12-2.185a2.216 2.216 0 0 0-2.158-2.158 2.174 2.174 0 0 0-2.158 2.158 80.179 80.179 0 0 1 .125 12.17 32.6 32.6 0 0 0-.938 8.362 2.16 2.16 0 0 0 1.871 2.12 2.135 2.135 0 0 0 2.368-1.547c.453-2.672.74-5.36.937-8.054a28.558 28.558 0 0 1 1.308-3.968l.02.434c.124 2.766 4.44 2.781 4.316 0l-.359-7.972ZM1646.426 327.883l-5.429-1.45a2.243 2.243 0 0 0-1.663.218 2.159 2.159 0 0 0 .516 3.945l5.429 1.45a2.243 2.243 0 0 0 1.663-.218 2.159 2.159 0 0 0-.516-3.945ZM1260.329 1462.416a54.15 54.15 0 0 1-30.987 4.38 2.23 2.23 0 0 0-2.655 1.507 2.173 2.173 0 0 0 1.507 2.654 59.321 59.321 0 0 0 34.314-4.814c2.516-1.17.327-4.891-2.179-3.727ZM1244.53 825.368a2.188 2.188 0 0 0-2.656-1.507l-8.179 2.723a2.159 2.159 0 0 0 1.147 4.162l8.18-2.723a2.197 2.197 0 0 0 1.507-2.655ZM660.377 911.626a369.671 369.671 0 0 0-22.44-47.558c-1.362-2.421-5.092-.248-3.727 2.178a361.83 361.83 0 0 1 22.005 46.528c.994 2.562 5.169 1.448 4.162-1.148ZM670.12 929.899l-2.883-7.207a2.358 2.358 0 0 0-.992-1.29 2.158 2.158 0 0 0-2.952.775 2.093 2.093 0 0 0-.218 1.663l2.883 7.206a2.359 2.359 0 0 0 .992 1.29 2.158 2.158 0 0 0 2.953-.774 2.094 2.094 0 0 0 .217-1.663ZM2006.524 230.274a497.265 497.265 0 0 0-86.651-136.45 475.883 475.883 0 0 0-67.198-61.943c-2.214-1.678-4.367 2.068-2.179 3.727a478.379 478.379 0 0 1 109.195 116.807 493.59 493.59 0 0 1 65.63 145.59 470.25 470.25 0 0 1 14.772 89.047c.186 2.756 4.504 2.777 4.316 0a484.455 484.455 0 0 0-37.885-156.778ZM1670.034 1.297a607.432 607.432 0 0 0-96.87 32.235q-13.413 5.755-26.533 12.157c-2.497 1.216-.311 4.94 2.179 3.727a600.841 600.841 0 0 1 94.654-36.58q13.77-4.02 27.718-7.377c2.699-.652 1.556-4.815-1.148-4.162ZM1764.998 5.094l-36.666-5.07c-2.716-.376-3.891 3.783-1.147 4.162l36.666 5.07c2.717.375 3.891-3.783 1.147-4.162ZM531.523 29.394c-69.762 16.128-140.4 32.614-205.076 64.238-30.603 14.964-59.746 33.293-85.024 56.23a292.708 292.708 0 0 0-60.063 75.45c-15.054 27.44-25.236 57.705-27.9 88.978-2.709 31.817 3.49 62.87 15.047 92.452 11.507 29.455 27.043 57.068 40.855 85.453 13.591 27.928 26.05 57.435 28.613 88.722 2.57 31.363-5.976 61.733-22.965 88.068-17.491 27.112-42.205 49.174-68.772 67.146q-9.567 6.472-19.543 12.304c-2.393 1.407-.224 5.139 2.179 3.727 52.262-30.716 104.188-77.714 112.671-140.997 8.445-62.997-28.64-119.576-54.803-173.758-13.783-28.543-25.952-58.543-28.884-90.388-2.9-31.502 2.756-63.198 14.423-92.488 24.8-62.255 74.257-111.397 131.787-144.203 62.727-35.77 133.328-54.401 203.11-70.837q12.739-3 25.492-5.935c2.706-.625 1.56-4.788-1.147-4.162Z" style="fill:#f1ddd7"></path>
  <path d="M619.67 1638.714a839.736 839.736 0 0 1-139.402-24.178 871.48 871.48 0 0 1-133.561-46.803 888.995 888.995 0 0 1-123.65-67.152 874.359 874.359 0 0 1-112.038-86.5 845.448 845.448 0 0 1-96.064-103.329q-5.485-6.998-10.81-14.117c-1.646-2.197-5.395-.048-3.727 2.178a846.113 846.113 0 0 0 94.49 106.174 878.437 878.437 0 0 0 110.71 89.168 887.63 887.63 0 0 0 257.222 120.12 848.44 848.44 0 0 0 139.543 27.077q8.634.93 17.286 1.678c2.767.24 2.75-4.077 0-4.316ZM779.495 1669.38l-61.319-12.354c-2.712-.546-3.872 3.613-1.147 4.162l61.319 12.353c2.712.547 3.873-3.613 1.147-4.162ZM2275.469 1126.697a379.446 379.446 0 0 0-11.708-85.553c-.69-2.689-4.854-1.549-4.162 1.148a383.245 383.245 0 0 1 7.308 151.645 400.503 400.503 0 0 1-50.216 142.783 374.33 374.33 0 0 1-51.413 68.483c-1.913 2.014 1.134 5.07 3.052 3.052 35.56-37.445 62.99-82.179 81.194-130.456a403.837 403.837 0 0 0 25.945-151.102ZM2211.365 926.157l-16.167-24.658c-1.517-2.314-5.256-.154-3.727 2.178l16.167 24.659c1.517 2.314 5.256.153 3.727-2.179ZM2043.248 677.355a213.512 213.512 0 0 1-15.455-97.61 208.992 208.992 0 0 1 4.255-28.643c.594-2.708-3.567-3.864-4.162-1.148a217.396 217.396 0 0 0 1.957 101.004 213.229 213.229 0 0 0 9.242 27.544c1.045 2.533 5.222 1.423 4.163-1.147Z" style="fill:#7cadd1"></path>
  <path d="M1118.079 942.822a103.687 103.687 0 0 1-35.594-40.526c-1.23-2.49-4.953-.306-3.727 2.179a107.967 107.967 0 0 0 37.142 42.074c2.322 1.539 4.487-2.198 2.179-3.727ZM1119.112 891.237v36.802c0 2.777 4.316 2.782 4.316 0v-36.802c0-2.777-4.316-2.782-4.316 0ZM1160.42 910.841a2.175 2.175 0 0 0-3.052 0l-16.755 20.114a2.218 2.218 0 0 0 0 3.052 2.175 2.175 0 0 0 3.053 0l16.754-20.114a2.218 2.218 0 0 0 0-3.052ZM1319.574 1483.592a95.448 95.448 0 0 0-33.238-54.092c-2.143-1.727-5.216 1.308-3.052 3.052a91.734 91.734 0 0 1 32.128 52.188c.58 2.715 4.741 1.566 4.162-1.148ZM1331.511 1462.703l-14.76-29.424c-1.245-2.483-4.97-.3-3.726 2.179l14.76 29.424c1.245 2.483 4.97.3 3.726-2.179Z" style="fill:#fff"></path>
</svg>
