<svg xmlns="http://www.w3.org/2000/svg" viewBox="0 0 3217.65 2409.45" id="trading">
  <g id="Layer_9">
    <ellipse cx="1608.83" cy="1226.1" rx="666.52" ry="1377.58" style="opacity:.67;fill:#fff" transform="rotate(-69.44 1608.978 1226.111)"></ellipse>
    <path d="m557.63 1712.43 1645.66 402.11a158 158 0 0 0 153.3-46l529.93-570.45c20.48-22 7.72-58-22.08-62.21L1311.1 1226.52Z" style="fill:#2c4a5b"></path>
    <path d="m2637.78 1445.52-117.15 16.31-1254.23-168.59c-18.45-2.48-44.5 2-58.39 10.16l-591.9 345.8-73.46 6.42v44.11c-.62 5.66 4.36 10.4 15 12.7L2078.39 2042c31.29 6.78 69.2-1.43 84.28-18.2l472-524.9a10.46 10.46 0 0 0 3.08-7.18Z" style="fill:#9eacb2"></path>
    <path d="M2078.39 1996 557.63 1666.48c-20.09-4.36-20-17.39-.06-29l650.44-380c13.88-8.11 39.94-12.63 58.39-10.15l1337.84 179.82c26.37 3.55 40.11 15.07 30.45 25.82l-472 524.9c-15.1 16.72-53.01 24.94-84.3 18.13Z" style="fill:#e5e5e5"></path>
    <path d="m2533.66 1456.51-244.65 259.09-1371.22-241.14 329.72-196.9 1286.15 178.95z" style="fill:#9eacb2"></path>
    <path d="m2361.67 1618.39-35.89 37.67-236.23-39.6 38.49-35.97 233.63 37.9zM1731.05 1566.74l-43.53 34.82-399.69-69.85 46.88-31.95 396.34 66.98zM2274.57 1704.14l-101.97-17.82 19.45-19.36 101.38 17.42-18.86 19.76zM2039.66 1663.09l-96.07-16.79 20.68-18.49 95.57 16.43-20.18 18.85zM2069.68 1613.13l-94.35-15.81 39.67-35.16 93.37 15.14-38.69 35.83zM1956.85 1594.22l-91.64-15.36 40.76-34.39 90.74 14.72-39.86 35.03zM1847.26 1575.85l-89.05-14.93 41.78-33.64 88.2 14.31-40.93 34.26zM1907.97 1640.08l-92.85-16.23 42.32-35.74 91.93 15.54-41.4 36.43zM1796.12 1620.53l-90.15-15.75 43.35-34.94 89.31 15.09-42.51 35.6zM1740.77 1558l-86.57-14.51 42.71-32.93 85.79 13.92-41.93 33.52zM1637.23 1540.64l-84.18-14.11 43.59-32.23 83.46 13.54-42.87 32.8zM1536.55 1523.77l-81.9-13.73 44.4-31.57 81.23 13.17-43.73 32.13zM1438.59 1507.35l-79.71-13.37 45.16-30.92 79.08 12.82-44.53 31.47zM1343.25 1491.36l-77.6-13 45.85-30.31 77.03 12.49-45.28 30.82zM1250.43 1475.8l-75.58-12.67 46.5-29.71 75.04 12.18-45.96 30.2zM1160.02 1460.65l-73.64-12.34 47.11-29.14 73.14 11.87-46.61 29.61zM1071.93 1445.88l-71.76-12.03 47.66-28.57 71.3 11.57-47.2 29.03zM2235.14 1587.28l-95.92-15.44 37.01-34.62 94.91 14.78-36 35.28zM2114.72 1567.9l-93.06-14.97 38.22-33.82 92.11 14.34-37.27 34.45zM1997.89 1549.11l-90.31-14.53 39.34-33.06 89.43 13.92-38.46 33.67zM1884.51 1530.87l-87.68-14.1 40.38-32.34 86.86 13.53-39.56 32.91zM1774.42 1513.16l-85.16-13.7 41.34-31.63 84.41 13.15-40.59 32.18zM1667.48 1495.96l-82.75-13.32 42.24-30.94 82.05 12.77-41.54 31.49zM1563.57 1479.24l-80.45-12.94 43.07-30.3 79.79 12.43-42.41 30.81zM1462.54 1462.99l-78.23-12.59 43.84-29.66 77.63 12.09-43.24 30.16zM1364.29 1447.18l-76.11-12.24 44.55-29.06 75.55 11.76-43.99 29.54zM1268.7 1431.81l-74.07-11.92 45.21-28.48 73.56 11.46-44.7 28.94zM1175.6 1416.88l-116.9-18.8 46.11-27.64 116.13 18.08-45.34 28.36zM1262.24 1343.64l71.89 10.66 42.11-26.82-71.38-10.25-42.62 26.41zM1173.18 1330.43l70.05 10.39 42.74-26.3-69.58-10-43.21 25.91zM1227.04 1298.13l69.46 9.9 23.49-14.45-69.21-9.68-23.74 14.23zM1319.4 1311.3l71.34 10.16 23.12-14.74-71.07-9.94-23.39 14.52zM1414.26 1324.82l73.29 10.44 22.72-15.04-72.99-10.22-23.02 14.82zM1511.72 1338.71l75.33 10.73 22.29-15.35-75-10.5-22.62 15.12zM1611.89 1352.98l77.45 11.04 21.83-15.67-77.1-10.8-22.18 15.43zM1714.88 1367.66l79.67 11.36 21.33-16.02-79.28-11.1-21.72 15.76zM1820.83 1382.76l81.96 11.68 20.81-16.36-81.57-11.42-21.2 16.1zM1929.84 1398.3l84.38 12.03 20.22-16.73-83.94-11.75-20.66 16.45zM2042.06 1414.3l86.9 12.38 19.61-17.11-86.43-12.09-20.08 16.82zM2157.64 1430.77l89.52 12.76 18.95-17.5-89.02-12.46-19.45 17.2zM2276.72 1447.74l92.28 13.15 18.23-17.91-91.73-12.84-18.78 17.6zM2399.47 1465.23l95.16 13.57 17.46-18.34-94.57-13.24-18.05 18.01zM1353.65 1357.2l73.79 10.94 41.44-27.35-73.25-10.52-41.98 26.93zM1447.48 1371.12l75.78 11.24 40.72-27.9-75.2-10.81-41.3 27.47zM1543.85 1385.41l77.85 11.55 39.94-28.47-77.23-11.1-40.56 28.02zM1642.85 1400.1l80.01 11.87 39.11-29.07-79.35-11.4-39.77 28.6zM1744.6 1415.19l82.26 12.21 38.2-29.69-81.54-11.71-38.92 29.19zM1849.22 1430.71l84.59 12.55 37.24-30.32-83.83-12.04-38 29.81zM1956.81 1446.67l87.04 12.92 36.2-30.99-86.21-12.39-37.03 30.46zM2067.52 1463.1l89.6 13.29 35.08-31.68-88.71-12.74-35.97 31.13zM2181.48 1480l92.26 13.69 33.89-32.39-91.31-13.12-34.84 31.82zM2298.79 1497.46l156.25 23.18 31.93-33.52-154.56-22.21-33.62 32.55zM2254.48 1539.4l-94.05-14.53 35.9-33.17 93.06 13.91-34.91 33.79zM2134.98 1520.94l-91.26-14.09 37.08-32.43 90.34 13.51-36.16 33.01zM2019.03 1503.03l-88.59-13.68 38.17-31.71 87.74 13.12-37.32 32.27zM1906.46 1485.65l-86.04-13.29 39.19-31.02 85.25 12.75-38.4 31.56zM1797.13 1468.76l-83.59-12.91 40.13-30.35 82.86 12.39-39.4 30.87zM1690.9 1452.35l-81.25-12.55 41.01-29.71 80.57 12.05-40.33 30.21zM1587.64 1436.4l-79.01-12.2 41.83-29.09 78.37 11.72-41.19 29.57zM1487.23 1420.89l-76.86-11.87 42.58-28.49 76.27 11.4-41.99 28.96zM1389.55 1405.81l-74.79-11.55 43.28-27.93 74.24 11.11-42.73 28.37zM1294.49 1391.13l-72.81-11.25 43.93-27.37 72.3 10.81-43.42 27.81zM1201.88 1376.87l-85.71-13.24 44.63-26.75 85.15 12.74-44.07 27.25zM1272.81 1529.09l-75.19-13.14 47.56-31.33 74.63 12.62-47 31.85zM1182.21 1513.26l-73.26-12.8 48.19-30.72 72.74 12.3-47.67 31.22zM1093.94 1497.84l-71.4-12.48 48.76-30.13 70.92 11.99-48.28 30.62zM1008.75 1482.95l-69.63-12.17 49.29-29.56 69.19 11.7-48.85 30.03zM2156.22 1683.46l-98.98-17.3 20.08-18.92 98.44 16.92-19.54 19.3zM2175.76 1664.16l-98.44-16.92 19.77-18.62 97.89 16.54-19.22 19zM2366.95 1517.24l-21.34-3.19-24.66-3.69-34.57 34 24.93 3.85-44.43 44.23 103.62 16.68 76.16-79.96-79.71-11.92z" style="fill:#284151"></path>
    <path d="m1526.56 1842.94-497.74-105.55c-10.9-2.31-12.45-9.15-3.54-15.26l233.26-159.73c7.74-5.31 22.48-8.08 33-6.21l476.36 84.86c12 2.14 16.11 8.67 9.08 14.61l-212.68 179.61c-8.2 6.9-25.12 10.35-37.74 7.67Z" style="fill:#9eacb2"></path>
    <path d="m2615.08 1408.84-1332.69-180c-19.36-2.62-32.89-22.62-30.29-44.67l101.11-855.93c2.56-21.71 20.32-38.64 39.72-37.84l1334.17 55.35c24.92 1 43.1 21.92 40.5 46.66l-102.51 976.89a44.18 44.18 0 0 1-50.01 39.54Z" style="fill:#607c90"></path>
    <path d="m2601.3 1419.18-1332.7-180c-19.36-2.62-32.89-22.62-30.28-44.67l101.1-855.94c2.57-21.7 20.32-38.63 39.73-37.83l1334.16 55.34c24.92 1 43.1 21.92 40.51 46.66l-102.52 976.9a44.18 44.18 0 0 1-50 39.54Z" style="fill:#2c4a5b"></path>
    <path d="m1304.77 1171.12 93.86-798.54 1270.94 61.55-95.06 899.31-1269.74-162.32z" style="fill:#fff"></path>
    <path d="m2173.5 516.07-758.23-44.04 3-25.64 758.27 42.13-3.04 27.55z" style="fill:#607c90"></path>
    <path d="m1913.75 981.96-551.63-56.79 3.64-31.02 551.66 55.09-3.67 32.72zM2570.52 1049.56l-619.33-63.75 3.67-32.83 619.34 61.84-3.68 34.74z" style="fill:#ec685b"></path>
    <path d="m1497.12 995.08-87.18-9.45 3.94-33.81 87.19 9.16-3.95 34.1zM1491.84 1043.76l-87.18-9.87 3.95-33.85 87.18 9.58-3.95 34.14z" style="fill:#607c90"></path>
    <path d="m1486.16 1092.7-87.17-10.28 3.95-33.88 87.18 10-3.96 34.16z" style="fill:#ffb523"></path>
    <path d="m1882.29 1036.55-53.68-5.82 3.97-35.22 53.69 5.64-3.98 35.4zM1876.59 1087.3l-53.68-6.08 3.97-35.25 53.69 5.9-3.98 35.43zM1870.88 1138.09l-53.68-6.33 3.98-35.28 53.69 6.15-3.99 35.46zM2536.07 1107.38l-60.43-6.55 3.99-37.38 60.44 6.35-4 37.58zM2530.35 1161.27l-60.44-6.84 4-37.41 60.43 6.63-3.99 37.62zM2524.61 1215.22l-60.43-7.13 4-37.46 60.44 6.93-4.01 37.66z" style="fill:#e5e5e5"></path>
    <path d="m2106.17 1060.8-97.75-10.59 3.99-35.82 97.74 10.27-3.98 36.14zM2100.45 1112.63l-97.74-11.06 3.99-35.85 97.74 10.73-3.99 36.18z" style="fill:#607c90"></path>
    <path d="m2094.73 1164.5-97.73-11.53 3.99-35.88 97.73 11.2-3.99 36.21z" style="fill:#ffb523"></path>
    <path d="m1697.77 1171.82-180.36-22.21 4.31-37.33 180.37 21.55-4.32 37.99zM2330.25 1249.7l-202.52-24.94 4.35-39.56 202.52 24.19-4.35 40.31z" style="fill:#607c90"></path>
    <path d="M1751.87 215.26h2.11v692.5h-2.11z" style="fill:#e5e5e5" transform="rotate(-86.3 1752.884 561.527)"></path>
    <path d="M1743.76 286.31h2.11v692.74h-2.11z" style="fill:#e5e5e5" transform="rotate(-85.91 1744.827 632.671)"></path>
    <path d="M1735.5 358.65h2.11v693.02h-2.11z" style="fill:#e5e5e5" transform="matrix(.08 -1 1 .08 897.79 2381.27)"></path>
    <path d="M1727.23 431.07h2.11v693.33h-2.11z" style="fill:#e5e5e5" transform="rotate(-85.12 1728.296 777.73)"></path>
    <path d="M1306.72 679.86h278.31v2.1h-278.31z" style="fill:#e5e5e5" transform="rotate(-83.33 1445.794 680.933)"></path>
    <path d="M1366.17 684.57h279.94v2.1h-279.94z" style="fill:#e5e5e5" transform="rotate(-83.38 1506.17 685.613)"></path>
    <path d="M1426.32 689.35h281.59v2.1h-281.59z" style="fill:#e5e5e5" transform="rotate(-83.41 1567.101 690.406)"></path>
    <path d="M1487.18 694.18h283.26v2.1h-283.26z" style="fill:#e5e5e5" transform="rotate(-83.44 1628.758 695.255)"></path>
    <path d="M1548.78 699.07h284.95v2.1h-284.95z" style="fill:#e5e5e5" transform="rotate(-83.47 1691.143 700.163)"></path>
    <path d="M1611.12 704.02h286.66v2.1h-286.66z" style="fill:#e5e5e5" transform="rotate(-83.49 1754.517 705.042)"></path>
    <path d="M1674.21 709.02h288.39v2.1h-288.39z" style="fill:#e5e5e5" transform="rotate(-83.52 1818.424 710.07)"></path>
    <path d="M1738.07 714.09h290.14v2.11h-290.14z" style="fill:#e5e5e5" transform="rotate(-83.58 1883.204 715.117)"></path>
    <path d="M1802.72 719.22h291.91v2.11h-291.91z" style="fill:#e5e5e5" transform="rotate(-83.61 1948.682 720.267)"></path>
    <path d="M1868.16 724.42h293.71v2.11h-293.71z" style="fill:#e5e5e5" transform="rotate(-83.64 2014.96 725.487)"></path>
    <path d="M1934.41 729.68h295.52v2.11h-295.52z" style="fill:#e5e5e5" transform="rotate(-83.67 2082.063 730.771)"></path>
    <path d="m2206.55 649.29 377.41 26.42M2288.41 619.38l299.41 19.99M2280.97 687.66l299.4 21.85M2274.51 746.88l299.39 23.47M2271.28 776.52l299.39 24.27M2189.17 807.64l377.38 31.9M2184.7 848.42l377.37 33.31" style="fill:none;stroke-miterlimit:10;stroke:#365973;stroke-width:2px"></path>
    <path d="M1662.12 845.22h2.1v333.04h-2.1z" style="fill:#e5e5e5" transform="rotate(-83.82 1663.225 1011.725)"></path>
    <path d="M1656.44 894.84h2.1v333.18h-2.1z" style="fill:#e5e5e5" transform="rotate(-83.55 1657.488 1061.43)"></path>
    <path d="M1650.87 943.45h2.1v333.33h-2.1z" style="fill:#e5e5e5" transform="rotate(-83.28 1652.004 1110.107)"></path>
    <path d="M2290.19 892.63h2.1v374.17h-2.1z" style="fill:#e5e5e5" transform="rotate(-83.82 2291.304 1079.704)"></path>
    <path d="M2284.47 945.25h2.1v374.36h-2.1z" style="fill:#e5e5e5" transform="rotate(-83.55 2285.514 1132.436)"></path>
    <path d="M2278.86 996.8h2.1v374.55h-2.1z" style="fill:#e5e5e5" transform="rotate(-83.28 2280.018 1184.05)"></path>
    <path d="m1411.07 585.28-8.4 71.64M1428.43 602.45l-8.4 71.8M1446.34 615.64l-5.56 47.56M1469.16 587.41l-11.14 95.46M1479.02 670.95l-5.68 48.8M1493.92 712.09l-2.79 23.99M1513.19 716.27l-4.82 41.58M1532.85 717.86l-4.5 38.83M1556.91 682.04l-8.69 75.07M1576.9 681.99l-9.02 78.06M1594.15 706.32l-4.14 35.89M1613.34 714.57l-3.38 29.3M1633.52 714.82l-3.53 30.71M1662.28 641.1l-4.78 41.67M1684.09 628.45l-2.23 19.5M1705.38 620.97l-3.26 28.47M1726.01 619.96l-9.72 85.1M1752.07 574l-14.62 128.19M1769.28 602.3l-15.07 132.35M1788.41 616.57l-4.42 38.87M1809.58 613.5l-2.2 19.42M1831.02 608.8l-2.89 25.6M1855.69 576.29l-6.2 54.86M1876.6 577.66l-5.92 52.48M1891.1 636.67l-5.1 45.31M1913.62 625.29l-5.97 53.08M1937.94 598.62l-16.79 149.57M1959.18 600.04l-7.58 67.7M1980.54 601.25l-4.89 43.63M2001.56 606.14l-5.7 51.06M2022.53 612.36l-15.92 142.76M2036.28 673.96l-8.71 78.18M2064.25 629.01l-4.6 41.38M2087.53 616.76l-4.53 40.85" style="fill:none;stroke-miterlimit:10;stroke:#284151"></path>
    <path d="m1415 613.38-14.31-1.02 3.59-30.67 14.31.98-3.59 30.71zM1429.34 656.67l-14.36-1.09 4.9-41.84 14.36 1.03-4.9 41.9z" style="fill:#ffb523"></path>
    <path d="m1448.65 658.14-14.41-1.09.64-5.51 14.42 1.09-.65 5.51zM1536.63 749.21l-14.68-1.24 3.96-34.15 14.69 1.18-3.97 34.21zM1596.82 748.19l-14.86-1.24 4.15-35.93 14.86 1.19-4.15 35.98zM1639.06 732.42l-14.97-1.23.88-7.66 14.98 1.21-.89 7.68zM1660.01 727.01l-15.03-1.22 9.18-79.87 15.03 1.1-9.18 79.99zM1690.18 641.76l-15.09-1.1 1.95-17.01 15.09 1.08-1.95 17.03zM1745.36 698.45l-15.27-1.19 6.93-60.72 15.27 1.1-6.93 60.81zM1790.14 669.6l-15.38-1.15 4.8-42.24 15.39 1.08-4.81 42.31zM1838.31 613.56l-15.51-1.07 4.13-36.48 15.51 1.02-4.13 36.53zM1915.81 676.51l-15.75-1.17 5.09-45.25 15.75 1.1-5.09 45.32zM1941.97 633.77l-15.81-1.11 1.33-11.84 15.81 1.1-1.33 11.85zM1982.38 656.66l-15.94-1.15 3.72-33.3 15.95 1.1-3.73 33.35zM2038.12 740.78l-16.13-1.28 10.08-90.55 16.13 1.15-10.08 90.68zM2068.54 663.9l-16.19-1.16 3.22-29.04 16.2 1.13-3.23 29.07zM2093.37 638.05l-16.26-1.13 1.61-14.54 16.26 1.11-1.61 14.56zM1960.4 660.64l-15.88-1.16.67-5.93 15.88 1.15-.67 5.94zM1772.55 641.53l-15.33-1.11.98-8.63 15.33 1.1-.98 8.64zM1814.86 635.64l-15.44-1.1.49-4.33 15.44 1.09-.49 4.34z" style="fill:#ec685b"></path>
    <path d="m1467.38 665.24-14.47-1.11 1.3-11.13 14.47 1.09-1.3 11.15zM1481.78 710.25l-14.52-1.17 4.69-40.33 14.53 1.12-4.7 40.38zM1498.96 732.07l-14.58-1.21 2.35-20.21 14.58 1.18-2.35 20.24zM1516.87 748.32l-14.64-1.23 2.32-19.97 14.64 1.2-2.32 20zM1559.77 721.64l-14.74-1.2.77-6.71 14.75 1.19-.78 6.72zM1576.87 746.95l-14.8-1.24 2.91-25.24 14.81 1.2-2.92 25.28zM1619 730.78l-14.91-1.22 1.95-16.94 14.91 1.19-1.95 16.97zM1711.45 634.7l-15.15-1.09.98-8.52 15.15 1.08-.98 8.53zM1729.88 653.27l-15.21-1.12 1.95-17.07 15.21 1.09-1.95 17.1zM1861.6 593.5l-15.57-1.04 1.37-12.18 15.57 1.03-1.37 12.19zM1875.73 655.25l-15.63-1.13 6.83-60.48 15.63 1.04-6.83 60.57zM1894.7 674.94l-15.68-1.17 2.34-20.81 15.69 1.14-2.35 20.84zM2004.38 653.21l-16.01-1.15 3.33-29.82 16.01 1.1-3.33 29.87zM2016.96 734.97l-16.06-1.28 8.94-80.09 16.06 1.15-8.94 80.22zM1396.85 775.61l-16.68-1.47-4.69 40.01 16.67 1.54 4.7-40.08z" style="fill:#ffb523"></path>
    <path d="m1435.84 784.79-16.81-1.49-4.03 34.49 16.81 1.54 4.03-34.54zM1537.01 787.93l-17.14-1.5-4.7 40.56 17.13 1.58 4.71-40.64zM1640.18 791.03l-17.48-1.53-5.39 46.88 17.48 1.61 5.39-46.96zM1658.23 816.36l-17.55-1.57-2.69 23.49 17.54 1.61 2.7-23.53zM1681.07 800.6l-17.61-1.55-4.72 41.14 17.61 1.62 4.72-41.21zM1744.73 800.16l-17.83-1.55-5.4 47.35 17.83 1.64 5.4-47.44zM1767.23 790.19l-17.89-1.55-6.75 59.25 17.9 1.65 6.74-59.35z" style="fill:#ec685b"></path>
    <path d="m1784.1 830.66-17.97-1.62-2.37 20.8 17.97 1.65 2.37-20.83z" style="fill:#ffb523"></path>
    <path d="m1828.54 819.54-18.12-1.6-4.06 35.82 18.12 1.66 4.06-35.88zM1915.75 821.24l-18.41-1.62-4.73 42.06 18.41 1.69 4.73-42.13zM1939.25 808.48l-18.49-1.6-6.38 56.8 18.49 1.7 6.38-56.9zM1979.56 845.16l-18.64-1.67-2.71 24.22 18.64 1.71 2.71-24.26zM2024.33 845.22l-18.79-1.68-3.14 28.23 18.79 1.73 3.14-28.28zM2049.88 818.06l-18.87-1.64-6.38 57.4 18.86 1.73 6.39-57.49zM2072.66 816.52l-18.94-1.63-6.77 60.98 18.94 1.74 6.77-61.09zM1595.91 813.75l-17.34-1.55-2.36 20.4 17.34 1.6 2.36-20.45z" style="fill:#ec685b"></path>
    <path d="m1422.13 730.33-16.74-1.39-10.19 87.03 16.74 1.54 10.19-87.18zM1458.85 760.2l-16.87-1.45-7.1 60.87 16.87 1.54 7.1-60.96zM1478.45 765.54l-16.93-1.46-6.69 57.37 16.94 1.55 6.68-57.46zM1497.57 775.77l-17-1.48-5.7 49 17 1.56 5.7-49.08zM1518.74 769.01l-17.07-1.47-6.69 57.6 17.06 1.57 6.7-57.7zM1556.68 795.48l-17.2-1.52-4.04 34.9 17.2 1.58 4.04-34.96zM1576.62 801.46l-17.27-1.54-3.56 30.81 17.26 1.58 3.57-30.85zM1616.48 815.61l-17.4-1.57-2.36 20.45 17.41 1.6 2.35-20.48zM1700.4 816.3l-17.69-1.58-3.13 27.38 17.68 1.63 3.14-27.43zM1721.39 818.18l-17.76-1.59-3.13 27.44 17.75 1.63 3.14-27.48zM1806.63 821.91l-18.04-1.61-3.57 31.49 18.04 1.66 3.57-31.54zM1848.85 832l-18.19-1.63-2.87 25.36 18.19 1.67 2.87-25.4zM1869.94 838.39l-18.27-1.64-2.36 20.95 18.26 1.68 2.37-20.99zM1893.98 819.29l-18.33-1.61-4.74 42.01 18.34 1.68 4.73-42.08zM1957.96 839.29l-18.56-1.65-3.15 28.05 18.56 1.71 3.15-28.11zM2002.88 836.36l-18.71-1.65-3.91 35.03 18.71 1.72 3.91-35.1z" style="fill:#ffb523"></path>
    <path d="m1418.9 501.45 1.75-14.89 2.83.17-1.74 14.89ZM1433.6 502.35l-5.24-10.11-1.14 9.72-2.84-.17 1.75-14.9 2.92.17 5.1 9.74 1.09-9.37 2.85.17-1.75 14.91ZM1439 502.68l1.75-14.93 9.48.57-.33 2.8-6.63-.4-.37 3.16 6.49.39-.33 2.8-6.49-.4-.72 6.18ZM1450.71 495.88c.52-4.5 3.86-7.55 7.9-7.31s6.66 3.65 6.13 8.15-3.87 7.56-7.94 7.31-6.62-3.65-6.09-8.15Zm11.09.67c.33-2.81-1-5-3.52-5.16s-4.31 1.86-4.64 4.67 1 5 3.49 5.15 4.34-1.88 4.67-4.66ZM1473.51 504.78l-2-5.48-2.1-.13-.62 5.32-2.86-.17 1.74-15 6.3.38c2.81.17 4.29 2.31 4 5.1a4.56 4.56 0 0 1-3.47 4.26l2.37 5.89Zm1.46-10.13a1.8 1.8 0 0 0-1.78-2.14l-3-.18-.47 4 3 .18a2 2 0 0 0 2.28-1.86ZM1490.63 505.82l1.23-10.5-5 10.27-1.25-.08-2.61-10.72-1.23 10.49-2.87-.17 1.75-15 4 .24 2.23 9.25 4.34-8.86 4 .24-1.75 15ZM1505.56 506.73l-.53-2.59-5.81-.36-1.15 2.5-3.29-.2 7-14.7 3.62.22 3.48 15.33Zm-2.36-12-2.86 6.33 4.22.25ZM1512 507.12l1.42-12.21-4-.24.33-2.81 10.83.64-.33 2.82-4-.24-1.42 12.22ZM1520.68 507.65l1.75-15 2.9.18-1.75 15ZM1526.5 500.44c.52-4.53 3.9-7.6 8-7.36s6.76 3.68 6.23 8.22-3.91 7.61-8 7.36-6.73-3.66-6.23-8.22Zm11.25.68c.33-2.82-1.06-5.05-3.57-5.2s-4.38 1.88-4.7 4.7 1 5 3.55 5.19 4.4-1.89 4.72-4.69ZM1551.35 509.52l-5.35-10.23-1.14 9.84-2.91-.18 1.75-15.07 3 .17 5.24 9.86 1.1-9.48 2.91.17-1.75 15.09ZM1418.3 527.24l.77-6.61-2.13-.13.18-1.52 5.81.36-.18 1.52-2.12-.13-.77 6.61ZM1423.67 520.07a.94.94 0 0 1 .94-.86.82.82 0 0 1 .72 1 .94.94 0 0 1-.94.87.83.83 0 0 1-.72-1.01Zm-.73 7.47.69-5.89 1.39.08-.69 5.9ZM1432.26 528.13l.43-3.73c.07-.54-.11-.95-.68-1a1.46 1.46 0 0 0-1.17.62l-.47 4-1.4-.09.44-3.72c.06-.55-.11-1-.68-1a1.49 1.49 0 0 0-1.17.62l-.47 4-1.39-.09.7-5.89 1.38.09-.09.77a2.37 2.37 0 0 1 1.84-.81 1.33 1.33 0 0 1 1.34 1.17 2.31 2.31 0 0 1 1.94-1c1 .06 1.49.67 1.35 1.88l-.5 4.26ZM1435 525.33a3.07 3.07 0 0 1 3.1-2.92c1.57.1 2.49 1.49 2.27 3.42v.34l-3.94-.25a1.41 1.41 0 0 0 1.37 1.47 2.31 2.31 0 0 0 1.48-.5l.5 1a3.29 3.29 0 0 1-2.28.68 2.68 2.68 0 0 1-2.5-3.24Zm3-1.69a1.44 1.44 0 0 0-1.45 1.23l2.6.16a1.22 1.22 0 0 0-1.15-1.39ZM1441.09 528.69l1-8.15 1.39.09-1 8.15ZM1444.6 521.39a.94.94 0 0 1 .94-.87.83.83 0 0 1 .73 1 1 1 0 0 1-1 .88.84.84 0 0 1-.67-1.01Zm-.73 7.48.69-5.91 1.39.09-.69 5.9ZM1450.22 529.27l.42-3.57c.1-.82-.25-1.13-.85-1.17a1.61 1.61 0 0 0-1.29.63l-.46 4-1.39-.09.69-5.9 1.39.08-.09.77a2.5 2.5 0 0 1 2-.8c1.17.08 1.64.85 1.51 2l-.49 4.17ZM1453 526.46a3.08 3.08 0 0 1 3.11-2.92c1.59.1 2.51 1.49 2.28 3.42v.35l-3.94-.25a1.39 1.39 0 0 0 1.36 1.47 2.33 2.33 0 0 0 1.49-.5l.5 1a3.24 3.24 0 0 1-2.28.68 2.69 2.69 0 0 1-2.52-3.25Zm3-1.68a1.43 1.43 0 0 0-1.46 1.22l2.61.17a1.21 1.21 0 0 0-1.15-1.39ZM1487.5 527.52a4.2 4.2 0 0 1 4.35-4c2.23.14 3.66 2 3.37 4.48a4.2 4.2 0 0 1-4.36 4c-2.23-.14-3.65-2-3.36-4.48Zm6.1.38c.18-1.53-.57-2.74-1.93-2.83s-2.37 1-2.55 2.55.56 2.74 1.92 2.83a2.57 2.57 0 0 0 2.56-2.55ZM1495.82 532.16l.69-5.93 1.41.09-.1.81a2.35 2.35 0 0 1 1.82-.85l-.17 1.52a1.78 1.78 0 0 0-.39-.06 1.87 1.87 0 0 0-1.4.59l-.45 3.92ZM1503.5 532.65l.08-.76a2.15 2.15 0 0 1-1.76.8c-1.35-.08-2.24-1.28-2-3.26s1.38-3.06 2.74-3a1.88 1.88 0 0 1 1.55 1l.35-3 1.42.09-.95 8.2Zm.22-1.92.24-2.1a1.38 1.38 0 0 0-1.14-.75c-.8 0-1.43.61-1.55 1.64s.35 1.76 1.15 1.81a1.58 1.58 0 0 0 1.3-.6ZM1506.32 529.83a3.1 3.1 0 0 1 3.14-2.94c1.6.1 2.53 1.5 2.31 3.45v.34l-4-.25a1.4 1.4 0 0 0 1.38 1.47 2.23 2.23 0 0 0 1.5-.5l.51 1.05a3.33 3.33 0 0 1-2.31.69 2.71 2.71 0 0 1-2.53-3.31Zm3-1.69a1.44 1.44 0 0 0-1.47 1.23l2.64.17a1.23 1.23 0 0 0-1.18-1.4ZM1512.47 533.22l.69-6 1.41.09-.1.82a2.4 2.4 0 0 1 1.83-.86l-.18 1.53a1.78 1.78 0 0 0-.38-.06 1.88 1.88 0 0 0-1.41.59l-.45 3.93ZM1516.47 533.47l1-8.21 1.42.09-.35 3a2.12 2.12 0 0 1 1.76-.81c1.37.09 2.25 1.33 2 3.28s-1.39 3-2.75 3a1.92 1.92 0 0 1-1.55-1l-.09.76Zm2.77-1.07c.82.05 1.45-.61 1.57-1.64s-.34-1.77-1.17-1.82a1.61 1.61 0 0 0-1.29.61l-.25 2.1a1.44 1.44 0 0 0 1.14.75ZM1523 530.88a3.08 3.08 0 0 1 3.2-2.93 2.72 2.72 0 0 1 2.49 3.29 3.07 3.07 0 0 1-3.21 3 2.72 2.72 0 0 1-2.48-3.36Zm4.22.27c.11-.92-.3-1.76-1.18-1.81s-1.46.71-1.57 1.64.29 1.77 1.17 1.82 1.47-.71 1.58-1.65ZM1529.4 531.29a3.08 3.08 0 0 1 3.21-2.94 2.72 2.72 0 0 1 2.49 3.3 3.1 3.1 0 0 1-3.22 3 2.73 2.73 0 0 1-2.48-3.36Zm4.23.27c.1-.93-.31-1.76-1.19-1.82s-1.46.72-1.57 1.64.29 1.77 1.17 1.83 1.48-.72 1.59-1.65ZM1539.3 534.92l-1.16-2.38-.74.72-.18 1.53-1.41-.09 1-8.23 1.42.09-.57 4.92L1540 529l1.74.11-2.44 2.57 1.82 3.4ZM1576.27 537.27l-.66-5.76-2 5.59-1.61-.1-1.19-8.39 1.79.12.62 6 2.12-5.88 1.25.08.73 6 2-5.88 1.8.11-3.09 8.13ZM1583.65 537.74l.07-.62a2.28 2.28 0 0 1-1.81.66 1.79 1.79 0 0 1-1.66-2.11 1.93 1.93 0 0 1 2.11-1.81 2 2 0 0 1 1.64.84l.1-.8c.07-.61-.36-1-1.08-1.08a2.28 2.28 0 0 0-1.67.6l-.42-1.08a3.55 3.55 0 0 1 2.49-.8 2 2 0 0 1 2.11 2.42l-.45 3.87Zm.17-1.44.08-.74a1.27 1.27 0 0 0-1.08-.6 1 1 0 0 0-1.13.84c-.07.56.36.91.92 1a1.46 1.46 0 0 0 1.21-.5ZM1586.51 537.92l1-8.27 1.43.09-1 8.27ZM1589.36 538.1l1-8.27 1.43.09-1 8.27ZM1592.22 535.26a3.12 3.12 0 0 1 3.18-3c1.63.1 2.58 1.51 2.35 3.47v.35l-4-.26a1.43 1.43 0 0 0 1.41 1.49 2.3 2.3 0 0 0 1.52-.5l.52 1a3.31 3.31 0 0 1-2.34.69 2.73 2.73 0 0 1-2.64-3.24Zm3-1.71a1.46 1.46 0 0 0-1.5 1.24l2.69.17a1.25 1.25 0 0 0-1.15-1.41ZM1598.92 537.21l.36-3.13-.9-.06.16-1.38.9.06.19-1.64 1.45.09-.19 1.64 1.11.07-.16 1.38-1.11-.07-.31 2.71c0 .37.1.67.42.69a.83.83 0 0 0 .52-.15l.17 1.21a1.74 1.74 0 0 1-1.25.31c-1-.06-1.48-.67-1.36-1.73ZM1373.61 878.64l1.43-12.19-3.9-.38.33-2.8 10.63 1-.33 2.81-3.88-.37-1.43 12.19ZM1389.71 880.22l-2-5.59-2.08-.21-.62 5.34-2.84-.28 1.75-15 6.25.6c2.78.27 4.25 2.49 3.92 5.28s-2 3.93-3.45 4.17l2.34 6Zm1.48-10.15a1.89 1.89 0 0 0-1.77-2.22l-3-.29-.47 4.05 3 .29a2 2 0 0 0 2.24-1.83ZM1404.28 881.65l-.52-2.63-5.74-.56-1.14 2.46-3.25-.32 6.93-14.52 3.57.35 3.41 15.54Zm-2.31-12.2-2.84 6.27 4.17.41ZM1408.79 882.09l1.76-15 5.29.51c4.21.41 6.78 3.69 6.25 8.23s-3.8 7.24-8 6.82Zm10.38-6.58c.31-2.67-.9-4.86-3.66-5.13l-2.43-.24-1.1 9.41 2.43.24c2.66.26 4.46-1.73 4.76-4.28ZM1423.26 883.52l1.76-15.07 2.86.27-1.76 15.08ZM1438.08 885l-5.28-10.47-1.14 9.84-2.87-.28 1.76-15.08 3 .29 5.14 10.08 1.1-9.48 2.87.28-1.76 15.09ZM1443.77 877.91c.55-4.78 4.15-7.5 8.09-7.12a6.12 6.12 0 0 1 5.21 3.92l-2.56 1.22a3.69 3.69 0 0 0-3-2.28c-2.45-.24-4.48 1.69-4.81 4.54s1.2 5.14 3.66 5.38a4.38 4.38 0 0 0 3-.88l.21-1.81-3.57-.35.33-2.81 6.45.63-.68 5.8a7.33 7.33 0 0 1-6.09 2.29c-3.92-.38-6.8-3.78-6.24-8.53ZM1371.09 915.57l1-8.2 3.83.39a2 2 0 0 1 1.85 2.3 1.86 1.86 0 0 1-1.48 1.76 1.92 1.92 0 0 1 1.16 2.15 2.08 2.08 0 0 1-2.37 2Zm5-5.36a.81.81 0 0 0-.75-1l-1.94-.2-.21 1.78 2 .2a.84.84 0 0 0 .92-.78Zm-.25 3.35a.89.89 0 0 0-.83-1l-2-.2-.22 1.9 2 .21a.89.89 0 0 0 1.07-.91ZM1381.85 916.66l.09-.75a2.39 2.39 0 0 1-2 .71c-1.16-.12-1.62-.89-1.48-2l.49-4.22 1.38.14-.42 3.61c-.09.82.26 1.13.85 1.19a1.58 1.58 0 0 0 1.28-.55l.47-4 1.39.15-.7 5.93ZM1384.54 917.87a1 1 0 0 0 .42.14.69.69 0 0 0 .78-.35l.26-.49-1.44-6.24 1.49.15.89 4.27 1.86-4 1.5.15-3.29 6.66a2 2 0 0 1-2.17 1.24 3.51 3.51 0 0 1-.68-.16ZM1393.45 914.53l.58-4.93 1.58.16-.57 4.87a1.67 1.67 0 0 0 1.49 2.11c1.13.11 1.8-.62 1.94-1.76l.57-4.88 1.59.16-.58 4.93c-.24 2-1.48 3.33-3.7 3.1s-3.13-1.74-2.9-3.76ZM1400.75 917.42l1-1.25a3 3 0 0 0 2.19 1.35c.86.08 1.33-.32 1.38-.79.17-1.45-4.16-.88-3.79-4a2.6 2.6 0 0 1 3.06-2.22 3.77 3.77 0 0 1 2.72 1.43l-1 1.2a3 3 0 0 0-2-1.12c-.67-.06-1.08.23-1.14.72-.15 1.31 4.15.86 3.8 3.93-.18 1.5-1.27 2.54-3.24 2.34a3.92 3.92 0 0 1-2.98-1.59ZM1407.69 919.3l1-8.22 2.89.29a3.75 3.75 0 0 1 3.41 4.51 3.88 3.88 0 0 1-4.37 3.71Zm5.67-3.58a2.26 2.26 0 0 0-2-2.81l-1.33-.14-.6 5.14 1.33.14a2.41 2.41 0 0 0 2.6-2.33Z"></path>
    <path d="m1449.83 976.19.67-5.79-2.76 5.57-.68-.07-1.41-6-.67 5.78-1.58-.16 1-8.27 2.2.24 1.21 5.18 2.38-4.8 2.22.23-1 8.27ZM1458 977.07l-.29-1.45-3.17-.34-.63 1.35-1.8-.19 3.83-8 2 .21 1.89 8.58Zm-1.28-6.73-1.57 3.43 2.31.25Z" style="fill:#fff"></path>
    <path d="m1465.31 977.85-1.51-3.23-2.21 2.83-1.88-.2 3.18-4-2.05-4.3 1.88.2 1.37 3 2-2.65 1.9.2-3 3.76 2.2 4.54ZM1432.29 1023.26l1-8.27 3.45.39a2.46 2.46 0 0 1 2.17 2.94 2.49 2.49 0 0 1-2.79 2.39l-1.88-.21-.35 2.94Zm5-5.12a1 1 0 0 0-1-1.24l-1.67-.18-.26 2.23 1.67.18a1.06 1.06 0 0 0 1.24-.99ZM1443.38 1024.5l-1.11-3.1-1.15-.13-.35 2.94-1.57-.18 1-8.27 3.46.38a2.45 2.45 0 0 1 2.17 3 2.36 2.36 0 0 1-1.9 2.27l1.29 3.34Zm.8-5.59a1 1 0 0 0-1-1.24l-1.65-.18-.26 2.23 1.65.18a1.06 1.06 0 0 0 1.26-.99ZM1446.33 1024.83l1-8.28 1.57.18-1 8.28ZM1449.49 1021a4 4 0 0 1 4.44-3.85 3.36 3.36 0 0 1 2.86 2.37l-1.44.59a2 2 0 0 0-1.6-1.39 2.49 2.49 0 0 0-2.64 2.46 2.46 2.46 0 0 0 2 3 2 2 0 0 0 1.89-1l1.27.89a3.44 3.44 0 0 1-3.34 1.69 4 4 0 0 1-3.44-4.76ZM1457 1026l1-8.28 5.25.58-.18 1.55-3.67-.41-.21 1.76 3.59.4-.18 1.55-3.59-.4-.22 1.88 3.67.41-.18 1.55Z" style="fill:#fff"></path>
    <path d="m1428.83 1072.25 1-8.27 1.57.18-.78 6.72 3.12.37-.19 1.55ZM1434.62 1072.93l1-8.28 1.57.18-1 8.28ZM1444.09 1074l.67-5.8-2.76 5.56-.68-.08-1.41-6-.68 5.8-1.57-.19 1-8.28 2.21.26 1.21 5.21 2.38-4.8 2.22.26-1 8.29ZM1447.14 1074.39l1-8.29 1.57.18-1 8.29ZM1451.9 1074.94l.78-6.74-2.16-.25.18-1.55 5.91.68-.18 1.56-2.16-.25-.78 6.74Z" style="fill:#284151"></path>
    <path d="m2051 1040.54.68-6.13-3 5.88-.77-.09-1.65-6.37-.68 6.13-1.76-.19 1-8.76 2.47.27 1.42 5.5 2.6-5.08 2.48.27-1 8.76ZM2060.11 1041.52l-.35-1.54-3.55-.38-.69 1.42-2-.21 4.17-8.42 2.22.23 2.22 9.11Zm-1.53-7.15-1.71 3.64 2.59.27Z" style="fill:#fff"></path>
    <path d="m2068.32 1042.39-1.73-3.43-2.45 3-2.1-.23 3.51-4.17-2.35-4.57 2.1.22 1.58 3.2 2.21-2.8 2.13.23-3.3 4 2.52 4.83ZM2032 1090.31l1-8.75 3.87.42a2.84 2.84 0 0 1-.63 5.65l-2.1-.23-.35 3.11Zm5.51-5.39a1.15 1.15 0 0 0-1.09-1.32l-1.87-.21-.26 2.36 1.87.21a1.15 1.15 0 0 0 1.3-1.04ZM2044.37 1091.7l-1.28-3.3-1.29-.14-.35 3.11-1.76-.19 1-8.77 3.87.43a2.68 2.68 0 0 1 2.44 3.16 2.5 2.5 0 0 1-2.1 2.4l1.49 3.55Zm.83-5.92a1.16 1.16 0 0 0-1.11-1.32l-1.85-.21-.26 2.37 1.85.2a1.15 1.15 0 0 0 1.37-1.04ZM2047.68 1092.07l1-8.77 1.76.2-1 8.77ZM2051.17 1088a4.36 4.36 0 0 1 4.92-4 3.78 3.78 0 0 1 3.23 2.53l-1.6.62a2.25 2.25 0 0 0-1.82-1.49 2.91 2.91 0 0 0-.63 5.76 2.2 2.2 0 0 0 2.09-1.06l1.43 1a3.83 3.83 0 0 1-3.71 1.77 4.37 4.37 0 0 1-3.91-5.13ZM2059.64 1093.41l1-8.78 5.88.65-.18 1.65-4.12-.46-.2 1.86 4 .44-.18 1.65-4-.45-.22 2 4.11.46-.18 1.64Z" style="fill:#fff"></path>
    <path d="m2028.71 1142.22 1-8.76 1.76.2-.79 7.12 3.5.41-.18 1.64ZM2035.2 1143l1-8.77 1.76.2-1 8.77ZM2045.81 1144.22l.68-6.15-3 5.87-.77-.09-1.65-6.41-.69 6.14-1.76-.21 1-8.77 2.48.29 1.42 5.53 2.6-5.07 2.49.29-1 8.78ZM2049.23 1144.61l1-8.78 1.76.21-1 8.78ZM2054.56 1145.24l.79-7.14-2.43-.29.19-1.64 6.62.77-.18 1.64-2.42-.28-.79 7.14Z" style="fill:#284151"></path>
    <path d="m1567.36 1143.06 1.65-14.27 6.79.82a3.54 3.54 0 0 1 3.29 4.09 3.11 3.11 0 0 1-2.6 3 3.46 3.46 0 0 1 2.07 3.82 3.57 3.57 0 0 1-4.2 3.4Zm8.87-9.17a1.48 1.48 0 0 0-1.33-1.74l-3.45-.42-.35 3.1 3.44.42a1.45 1.45 0 0 0 1.69-1.36Zm-.42 5.86a1.61 1.61 0 0 0-1.48-1.87l-3.53-.43-.39 3.31 3.54.44a1.53 1.53 0 0 0 1.86-1.45ZM1586.46 1145.39l.15-1.31a4.21 4.21 0 0 1-3.47 1.17c-2.06-.25-2.88-1.61-2.65-3.63l.84-7.35 2.46.3-.72 6.28c-.17 1.43.46 2 1.51 2.12a2.7 2.7 0 0 0 2.26-.92l.81-7 2.47.3-1.2 10.36ZM1591.23 1147.6a1.87 1.87 0 0 0 .76.27 1.2 1.2 0 0 0 1.38-.59l.46-.84-2.6-11 2.64.32 1.62 7.5 3.27-6.91 2.67.32-5.8 11.53a3.41 3.41 0 0 1-3.84 2.08 6.69 6.69 0 0 1-1.21-.3ZM1607.05 1142.11l1-8.62 2.8.34-1 8.51c-.23 2 .66 3.5 2.67 3.75s3.2-1 3.43-3l1-8.52 2.83.35-1 8.6c-.41 3.57-2.6 5.77-6.56 5.28s-5.57-3.17-5.17-6.69ZM1620.05 1147.43l1.77-2.14a5.51 5.51 0 0 0 3.91 2.44c1.53.19 2.36-.49 2.46-1.31.29-2.54-7.42-1.71-6.8-7.11.28-2.39 2.38-4.14 5.45-3.77a7 7 0 0 1 4.85 2.61l-1.8 2.06a5.37 5.37 0 0 0-3.61-2c-1.2-.15-1.93.35-2 1.21-.27 2.28 7.39 1.66 6.78 7-.3 2.63-2.23 4.41-5.75 4a7.15 7.15 0 0 1-5.26-2.99ZM1632.43 1151l1.64-14.36 5.15.62c4.1.49 6.61 3.7 6.11 8s-3.66 6.83-7.75 6.33Zm10.06-6c.29-2.54-.89-4.67-3.58-5l-2.37-.28-1 9 2.37.29c2.56.23 4.3-1.63 4.58-4.07ZM2186.2 1216.24l1.94-2.25a6.33 6.33 0 0 0 4.38 2.6c1.69.21 2.61-.51 2.7-1.37.3-2.68-8.24-1.85-7.62-7.55.28-2.52 2.59-4.36 6-4a8 8 0 0 1 5.42 2.8l-2 2.15a6.2 6.2 0 0 0-4-2.17c-1.33-.16-2.13.37-2.23 1.28-.27 2.4 8.23 1.8 7.61 7.45-.3 2.78-2.42 4.64-6.33 4.16a8.25 8.25 0 0 1-5.87-3.1ZM2199.85 1214.49a5.44 5.44 0 0 1 6.07-5.09c3.13.38 5 3.09 4.61 6.69l-.07.63-7.82-1a2.94 2.94 0 0 0 2.75 2.92 4.36 4.36 0 0 0 2.93-.75l1 2a6.36 6.36 0 0 1-4.5 1 5.55 5.55 0 0 1-4.97-6.4Zm5.82-2.8a2.57 2.57 0 0 0-2.86 2.12l5.18.63a2.54 2.54 0 0 0-2.32-2.75ZM2212 1221.54l1.66-15.17 2.77.33-1.66 15.18ZM2217.49 1222.21l1.66-15.18 2.77.34-1.66 15.18ZM2229.34 1217.52l1-9.14 3.15.38-1 9a3.29 3.29 0 0 0 3 4c2.26.28 3.58-1 3.81-3.16l1-9 3.18.38-1 9.12c-.42 3.79-2.85 6.11-7.29 5.56s-6.25-3.41-5.85-7.14ZM2244 1223.27l2-2.26a6.45 6.45 0 0 0 4.42 2.62c1.72.21 2.64-.51 2.74-1.38.29-2.69-8.34-1.87-7.72-7.59.28-2.54 2.61-4.38 6.06-4a8.15 8.15 0 0 1 5.48 2.81l-2 2.17a6.28 6.28 0 0 0-4.08-2.18c-1.33-.16-2.15.36-2.25 1.28-.26 2.42 8.33 1.81 7.71 7.5-.3 2.79-2.44 4.65-6.4 4.17a8.32 8.32 0 0 1-5.96-3.14ZM2257.93 1227.14l1.65-15.24 5.79.7c4.6.56 7.46 4 7 8.58s-4 7.23-8.62 6.67Zm11.21-6.35c.29-2.7-1.07-5-4.08-5.33l-2.67-.32-1 9.53 2.66.32a4.45 4.45 0 0 0 5.09-4.2Z" style="fill:#fff"></path>
    <path d="m2352.1 569.65-135.88-8.42 3.01-27.44 135.88 8.07-3.01 27.79zM2266.72 612.35l-55.71-3.69 1.99-18.08 55.71 3.6-1.99 18.17zM2263.5 641.86l-55.71-3.84 1.99-18.09 55.7 3.75-1.98 18.18zM2585.68 633.5l-103.46-6.86 1.98-18.53 103.47 6.69-1.99 18.7zM2582.45 663.86l-103.46-7.14 1.99-18.54 103.46 6.97-1.99 18.71zM2575.01 733.88l-103.46-7.78 1.99-18.56 103.46 7.6-1.99 18.74zM2571.78 764.29l-103.46-8.05 1.99-18.57 103.46 7.88-1.99 18.74zM2568.79 792.44l-103.46-8.32 1.99-18.58 103.46 8.14-1.99 18.76zM2259.03 682.72l-55.7-4.05 1.99-18.11 55.7 3.96-1.99 18.2zM2255.81 712.26l-55.71-4.2 1.99-18.11 55.71 4.1-1.99 18.21zM2252.58 741.82l-55.7-4.35 1.98-18.12 55.71 4.25-1.99 18.22zM2249.35 771.4l-55.71-4.5 2-18.14 55.7 4.41-1.99 18.23zM2246.11 800.99l-55.7-4.65 2-18.14 55.7 4.55-2 18.24zM2241.64 841.97l-55.7-4.86 1.99-18.16 55.7 4.77-1.99 18.25z" style="fill:#607c90"></path>
    <ellipse cx="885.69" cy="1924.11" rx="206.29" ry="57.4" style="fill:#2c4a5b"></ellipse>
    <path d="M872.35 460.13c-2.67 10.48-10.65 17.51-17.83 15.68a9.51 9.51 0 0 1-1.42-.49s2.36-10.16 4.85-22.09c.36-1.72.72-3.48 1.08-5.25.06-.3.12-.62.19-.92.64-3.18 1.27-6.39 1.84-9.47a9.73 9.73 0 0 1 1.79 0 7.23 7.23 0 0 1 1.3.23c7.2 1.83 10.85 11.81 8.2 22.31ZM717 462.17a9.1 9.1 0 0 1-1.48.21c-7.4.42-13.89-8-14.5-18.8-.59-10.37 4.46-19.17 11.39-20.22a8.85 8.85 0 0 1 .9-.11 9.72 9.72 0 0 1 3.09.34c-.37 3.2-.62 6.24-.79 9.1-.05.72-.08 1.41-.11 2.11-.2 4.32-.2 8.22-.1 11.62a95.06 95.06 0 0 0 1.6 15.75Z" style="fill:#ec685b"></path>
    <path d="M734.56 493.15h94.52v75.86h-94.52z" style="fill:#f7ac84"></path>
    <path d="M861.12 436.1v1.46c-.57 3.08-1.2 6.29-1.84 9.47-.07.3-.13.62-.19.92-.36 1.77-.72 3.53-1.08 5.25-2.49 11.93-4.85 22.09-4.85 22.09a102.45 102.45 0 0 1-17.92 30q-2.94 3.36-6.1 6.33l-.63.58q-1.4 1.29-2.85 2.49l-1 .79c-.34.28-.69.57-1 .83s-.61.47-.91.71c-.5.37-1 .74-1.5 1.1s-1 .72-1.51 1.06-1 .67-1.5 1c-1.22.79-2.45 1.54-3.7 2.24-.42.25-.85.47-1.28.7l-1.34.7c-1.08.55-2.16 1.06-3.24 1.54l-1.65.7q-2.46 1-5 1.79a.3.3 0 0 1-.11 0l-1.62.47c-.5.14-1 .28-1.52.41s-1 .25-1.52.36c-.91.21-1.81.4-2.73.55l-1.29.21-1.36.2c-1.82.23-3.65.37-5.5.43h-1.76c-1.82 0-3.64-.09-5.48-.26-17.77-1.72-33.26-11.59-44.53-26.58-8.61-11.25-14.74-25.55-17.61-41.47a95.06 95.06 0 0 1-1.6-15.75c-.1-3.4-.1-7.3.1-11.62 0-.7.06-1.39.11-2.11.17-2.86.42-5.9.79-9.1v-.32a117.73 117.73 0 0 1 7.08-26.55c.24-.63.5-1.26.75-1.88a103.44 103.44 0 0 1 14.42-24.51A82.61 82.61 0 0 1 757 353.26l.06-.05c12.12-8.16 26-12.23 40.23-10.85 1.23.11 2.43.28 3.63.47a55.06 55.06 0 0 1 7.26 1.68c14.24 4.27 26.53 14 35.67 27.31.41.59.81 1.19 1.2 1.78 10.89 16.75 16.95 38.73 16.07 62.5Z" style="fill:#f7ac84"></path>
    <path d="M782.23 500.28a32.92 32.92 0 0 1-24-10.33 1.05 1.05 0 0 1 1.62-1.34c.63.76 15.75 18.48 42.08 3.94a1.05 1.05 0 1 1 1 1.84c-7.8 4.33-14.75 5.89-20.7 5.89ZM783.88 473.48a.78.78 0 0 1-.22 0c-6.51-1.34-10.59-4.69-10.91-8.94-.29-3.85 2.63-7.49 7.44-9.28 8-3 5.81-11.23 5.71-11.58a1.05 1.05 0 0 1 .73-1.3 1 1 0 0 1 1.3.72c0 .1 2.89 10.46-7 14.14-3.91 1.45-6.29 4.25-6.07 7.14.25 3.27 3.7 5.9 9.24 7a1.06 1.06 0 0 1-.21 2.09Z" style="fill:#222c38"></path>
    <path d="M739.69 430s13.28-5.45 24.88 2.4M812.09 437s13.28-5.45 24.88 2.41" style="fill:none;stroke-miterlimit:10;stroke:#365973;stroke-width:2px;stroke-linecap:round"></path>
    <path d="M759 433.52a7 7 0 0 1-14-1.35 7.09 7.09 0 0 1 1.59-3.82 28.18 28.18 0 0 1 11.45.9 7 7 0 0 1 .96 4.27ZM831.36 440.51a7 7 0 1 1-14-1.35 7 7 0 0 1 1.6-3.82 28.13 28.13 0 0 1 11.44.9 7 7 0 0 1 .96 4.27Z" style="fill:#365973"></path>
    <path d="M729.65 416.81s16.63-9.18 38.56.54a4.43 4.43 0 0 0 6.26-3.48c.2-2.22-1.28-4.68-7.35-6.28-13.45-3.54-30.21 3.82-37.47 9.22ZM847.76 428.22s-14.57-12.2-38-6.85a4.43 4.43 0 0 1-5.48-4.62c.23-2.21 2.16-4.34 8.41-4.75 13.94-.91 28.97 9.53 35.07 16.22ZM714.16 452.06H714c-.07 0-7-.89-7.44-10.05-.14-3.06.66-5.43 2.37-7.06 2.75-2.61 6.78-2.25 6.95-2.24a1.05 1.05 0 0 1-.2 2.1 7.58 7.58 0 0 0-5.31 1.67c-1.24 1.2-1.82 3-1.71 5.43.34 7.39 5.52 8 5.57 8a1.05 1.05 0 0 1-.11 2.1ZM858.51 466h-.22a1.05 1.05 0 0 1-1-1.14 1 1 0 0 1 1.13-1c.2 0 5.28.28 7-6.84.57-2.34.36-4.24-.64-5.65a7.58 7.58 0 0 0-4.89-2.66 1 1 0 0 1-.94-1.15 1.06 1.06 0 0 1 1.14-.95c.17 0 4.2.44 6.4 3.53 1.37 1.93 1.7 4.41 1 7.38-1.92 8.05-7.77 8.48-8.98 8.48Z" style="fill:#222c38"></path>
    <circle cx="733.65" cy="456.82" r="10.38" style="fill:#ec685b"></circle>
    <circle cx="836.62" cy="466.77" r="10.38" style="fill:#ec685b"></circle>
    <ellipse cx="751.73" cy="441" rx="19.32" ry="22.84" style="fill:#365973;opacity:.18" transform="rotate(-84.48 751.758 440.989)"></ellipse>
    <ellipse cx="822.03" cy="447.79" rx="19.32" ry="22.84" style="fill:#365973;opacity:.18" transform="rotate(-84.48 822.063 447.772)"></ellipse>
    <ellipse cx="751.73" cy="441" rx="19.32" ry="22.84" style="fill:none;stroke-miterlimit:10;stroke-width:2px;stroke-linecap:round;stroke:#eee" transform="rotate(-84.48 751.758 440.989)"></ellipse>
    <ellipse cx="822.03" cy="447.79" rx="19.32" ry="22.84" style="fill:none;stroke-miterlimit:10;stroke-width:2px;stroke-linecap:round;stroke:#eee" transform="rotate(-84.48 822.063 447.772)"></ellipse>
    <path d="M774.6 441.76s14.72-10.24 24.7 3.83M729 438.8l-15.08-18.62M844.76 449.98l18.17-15.41" style="fill:none;stroke-miterlimit:10;stroke-width:2px;stroke-linecap:round;stroke:#eee"></path>
    <path d="m862.92 437.36-.06.23c-1.24 4.32-2.14 7.27-2.32 8-.07.28-.17.64-.29 1.07s-.38 1.25-.62 2a70.93 70.93 0 0 1-1.67 4.56c-1.51 3.65-3.16 6.31-3.57 2.37a54.49 54.49 0 0 0 2.15-15.59 35 35 0 0 0-1.91-11.59c-4.47-12.44-8.74-24.68-2.19-33.74 0 0 1.18-19.45-20.74-17.88-12.64.9-26.06-1.63-36.57-4.26-7.72-1.94-13.88-3.92-17-4.6-7.42-1.64-21.77 29.29-48.38 30.41 0 0-7.26 16.95-9.8 29.27a33.68 33.68 0 0 0-.86 7.56c.34 11.11 1.73 16.32 1.73 16.32s-3.26 1.22-5.44-5.06a37.76 37.76 0 0 1-1.68-9.43c-.05-.68-.11-1.34-.15-2s-.11-1.42-.19-2.11c-.28-3.38-.62-6.46-1-9.49 0-.41-.09-.81-.13-1.22-1.11-9.28-2.44-18.49-3.67-35.09 0 0-13-13.25 13.09-37.52 19.09-17.77 14.62-28 42.66-30 0 0 13.77-27.17 64.78.71C868 341.46 861.42 363 861.42 363s9-.51 11.63 16.82c1.95 13.31-5.96 42.97-10.13 57.54Z" style="fill:#222c38"></path>
    <path d="M856.51 363.41a21.92 21.92 0 0 1-13.06 8.52c-1.27.27-.93 2.27.35 2a24 24 0 0 0 14.35-9.32 1 1 0 0 0-1.64-1.2ZM729.12 395.82a55 55 0 0 1-18.12-6.2 1 1 0 0 0-1.42.23 1 1 0 0 0 .23 1.41 58.24 58.24 0 0 0 19.11 6.58c1.29.16 1.48-1.84.2-2.02ZM824.68 374a34.39 34.39 0 0 0-16.22-17.16 27.83 27.83 0 0 0-22.76-.67 24.5 24.5 0 0 0-10.24 7.83c-.79 1 .86 2.22 1.64 1.18a24.07 24.07 0 0 1 18.66-9.18 27.75 27.75 0 0 1 19.87 8.29 33.73 33.73 0 0 1 7.22 10.49 1 1 0 0 0 1.83-.78Z" style="fill:#fff"></path>
    <path d="M824.65 362.42c-2.29-7.63-8.83-12.87-15.23-17.1a49 49 0 0 0-11.65-5.87 33 33 0 0 0-12.77-1.52c-8.61.63-16.68 4.33-23.64 9.28a89.92 89.92 0 0 0-9.83 8.22c-3.06 2.9-5.92 6-9 8.91-5.65 5.4-13.22 10.7-21.49 8.82a13.51 13.51 0 0 1-2.74-1c-1.18-.56-1.89 1.34-.72 1.89 7.59 3.56 16.2.13 22.31-4.74a102.8 102.8 0 0 0 9-8.57 127 127 0 0 1 9.32-8.65c6.45-5.32 13.8-9.73 22.06-11.49a33.43 33.43 0 0 1 12.41-.37 36.74 36.74 0 0 1 11.92 4.5 66.49 66.49 0 0 1 10 6.93 26.81 26.81 0 0 1 7 8.59 18.21 18.21 0 0 1 1 2.48 1 1 0 0 0 1.17.82 1 1 0 0 0 .88-1.13Z" style="fill:#fff"></path>
    <path d="M829.08 511.66v10.83c-5.5 11.69-13.4 20.77-24.77 23.13-39.34 8.22-69.75-40.13-69.75-41.88 11.27 15 26.76 24.86 44.53 26.57 18.29 1.77 35.83-5.4 49.99-18.65Z" style="fill:#ec685b"></path>
    <path d="M760.48 1949.22c-21.75 8-58.08.12-76.05-14.07 3.9-2.46 9.88-3.34 17.24.54 14.49 7.64 40.06 9.19 45.91-.56s-23.36-20.57-34.9-36.27 7.14-21-2.9-35.23c-9.52-13.48-40.74-15.92-42.71-13.29a76.25 76.25 0 0 1 .84-12c3.55-15.32 36.9-26.43 61.65 0s58.13 100.82 30.92 110.88Z" style="fill:#222c38"></path>
    <path d="M747.58 1935.13c-5.85 9.75-31.42 8.2-45.91.56-7.36-3.88-13.34-3-17.24-.54-4.51-3.56-7.85-7.5-9.54-11.7-6.47-16.14-8.2-53.33-7.82-73.11 2-2.63 33.19-.19 42.71 13.29 10 14.18-8.63 19.53 2.9 35.23s40.76 26.51 34.9 36.27ZM958.56 1890.78c-14.23 30.38-82.78 21.4-102.55 10.16s-28.8-12.46-52.89-13.52a173.45 173.45 0 0 1-43.7-7.76 83.44 83.44 0 0 1-2.27-15.55c11.85.94 51.54 4.6 64.27 9.71 14.83 5.94 33.68 21.27 51.22 27.73 16.6 6.11 71.65 5.72 84.82-15.14a18.24 18.24 0 0 1 1.1 4.37Z" style="fill:#2c4a5b"></path>
    <path d="M957.46 1886.41c-13.17 20.86-68.22 21.25-84.82 15.14-17.54-6.46-36.39-21.79-51.22-27.73-12.73-5.11-52.42-8.77-64.27-9.71-1.61-24.91 3.33-56.77 3.33-56.77 1.95-7.45 53.66-9.11 83.92-1.5-5.27 3.89-7.81 9.26-5.17 16.15 9.14 23.79 41.77 56.69 72.09 61.61 19.73 3.19 31.34-4.12 37-9.64a28.57 28.57 0 0 1 9.14 12.45Z" style="fill:#222c38"></path>
    <path d="M948.36 1874c-5.7 5.52-17.31 12.83-37 9.64-30.32-4.92-63-37.82-72.09-61.61-2.64-6.89-.1-12.26 5.17-16.15 10.55 2.67 18.48 6.45 20.82 11.5 9 19.58 29.7 42.2 60.72 47.41 10.44 1.72 17.55 5.21 22.38 9.21Z" style="fill:#2c4a5b"></path>
    <path d="M883 1491.41c-26 136.07-12.74 326.33-12.74 326.33-31.89 20.33-68.66 13.33-91.83 5.18 1.15-58.2 3.91-209.15 2.51-237.45-1.73-35.21 6.06-258.41.83-266.3-.59-.89-1.16-1.3-1.7-1.31-2.57-7-13.75 14.44-22.18 105-9.48 102.37-20.07 383.14-22.59 401.14a33.26 33.26 0 0 1-5.74 14.33c-4.86-48.78-16.67-171.63-18.27-230.38-2-74.28 38.16-271.84 23.42-324.09-15.22-54-83.36-75.35-109.63-81.67.57-11.67.95-18.36.95-18.36l230.35-141.07s59.86 95 61.37 147.25-8.75 165.34-34.75 301.4Z" style="fill:#222c38"></path>
    <path d="M939.16 1198.73c-26 11-65.16 3.56-65.16 3.56-18.74-25.57-30.76-123.39-30.76-123.39-1 10.51-4.28 26.29-8.22 42.92-37.56 57.44-133.33 48.48-166.84-2.67-35.33-53.91-17.69-84.52-4.11-121.81s13.33-124.46 2.24-239.73c-6.8-70.58-27.74-113.69-42.94-136.51-6.11-12.81-13.63-23.57-22.81-31.78C642.88 560 693 546.56 693 546.56s153 16.68 203.45 65.35c11.13 10.74 20 22.33 28.84 33.35 5.85 29.59 6.5 64.33 4 96.53-3 38.61-9.19 112.3-11 133.56v.14a84.94 84.94 0 0 0-.36 4.28v.64c-.05.54-.07.82-.07.82-2 37.28 8.42 117.41 17.64 169.6 9.67 55.22 3.66 147.9 3.66 147.9Z" style="fill:#2c4a5b"></path>
    <path d="m722.43 528.32-9.28 5.23s-7 13.05-7 15.66 59.66 163.38 59.66 163.38L815.09 807l25.47 49.37 28.12-103.53V652.32l-15-62.66-21.2-23.66-23.34 1.64-5.63-1.64-13.84 6.45Z" style="fill:#e5e5e5"></path>
    <path d="M901.47 637.12c-6.93 104.21-59.58 225.29-59.58 225.29l-1.34-6.08-1.9-8.56a516.09 516.09 0 0 0 20-83.23l.3-2a403.61 403.61 0 0 0 4.79-58c.29-55.71-15.31-105.88-24.81-127.41-3-6.72-5.34-10.65-6.46-11.1v-10.5l48.26 48.85-14.9 8.15Z" style="fill:#222c38"></path>
    <path d="M1228.8 679.23c-11 11.44-17.93 31.22-29.54 41.84s-29.11 21.13-45.79 24.32-31-27.16-31-27.16a58.19 58.19 0 0 1-8-15.56 2 2 0 0 1-.12-.34.76.76 0 0 1 0-.11v-.09c-2-6.33-3-13.78-.31-20.87 6.5-17.41 16.51-39.89 17.42-50.89a16.72 16.72 0 0 1 8.18 3.43c2.75 2.16 5.33 5.7 6.13 11.45 1.93 13.91-9.81 21.49-1.82 31.57.54-.41 17.8-13.76 34.9-24.37 17.38-10.77 29.66-24.66 37.26-17.62 0 0 8-9.12 13.17-4.46s1.7 11.58-1.91 14.86c.51-.44 6.14-5.1 10-1.71 4.08 3.57-.62 10.08-2.37 11.68a4.17 4.17 0 0 1 5.38 1.95 4.93 4.93 0 0 1 .59 1.77c.46 3.92-2.72 10.57-12.17 20.31Z" style="fill:#f7ac84"></path>
    <path d="M781 1585.47c1.4 28.3-1.36 179.25-2.51 237.45a142.68 142.68 0 0 1-23-10.28c-1.8-49.38 25.38-475.14 25.22-490.69a13.16 13.16 0 0 0-.54-4.09c.54 0 1.11.42 1.7 1.31 5.13 7.89-2.62 231.09-.87 266.3ZM711.29 1608c1.6 58.75 13.41 181.6 18.27 230.38-7.37 10.6-20.33 16.81-32.07 10.73a39 39 0 0 0-31.79-1.59c-36.51-56.44-35.88-259.29-42.52-378.71-5.31-95.41-.32-220.22 1.9-266.57 26.27 6.32 94.41 27.67 109.63 81.67 14.74 52.21-25.43 249.77-23.42 324.09Z" style="fill:#2c4a5b"></path>
    <path d="m838 625.78-17.33-29.47-5.33-9L804 568s-4.93 11.26-11.34 24.33c-1 2-2 4-3 6.09-7.16 14.08-15.37 28.62-20.68 32.62 0 0-38.41-83.39-52-99.22a17.14 17.14 0 0 0-1.2-1.28s7.1-11.21 17.84-16.73c0 0 25.48 47.46 68.82 52.17 0 0 16.78-3.37 26.61-27.22 0 0 8.1 9.47 9.37 22 .2 2 .33 5 .4 8.56.4 19.23-.82 56.46-.82 56.46Z" style="fill:#f9f9f9"></path>
    <path d="m674.47 615.17 21.7-28.69-28-14.84s19.69-29 47.64-43.31l1.6 4c9.1 22.95 55.31 139.64 89.94 230.4.67 1.75 1.33 3.5 2 5.22 12.11 31.79 22.64 60 29.44 79.39 3.44 9.82 5.92 17.35 7.17 21.92-1.24-2.1-80.19-137.5-171.49-254.09Z" style="fill:#222c38"></path>
    <path d="m633 964.86 3.46 100.49a61.56 61.56 0 0 1-10.79 18.38 47.09 47.09 0 0 1-14.91 11.54 51.81 51.81 0 0 1-13.72 4.44c-3.44.62-6 .78-7 1-4.31 1-2.35 4.78-4.6 1.14C559 1059.14 518.53 947.21 507 905.71s12.82-216.2 50.93-274.63c10.72-16.43 26.09-30.3 42.64-41.76 25.65 23 38.37 65.74 43.22 117.82 3.17 34-9.7 82.8-22.1 121.26-9.16 28.46-18.07 51.27-20 58.31-2.94 10.56 10.62 39.43 20.83 59 5.76 11.07 10.48 19.15 10.48 19.15Z" style="fill:#2c4a5b"></path>
    <path d="M835 1121.82c-8.51 35.74-20.27 75.45-20.27 75.45-44.36 24-159 17.79-179.14 7.78s-34.06-7.19-34.06-7.19 4.4-48.65 9.21-102.59c9.13-4.49 19.18-13.09 25.7-29.92L633 964.86s-4.72-8.08-10.52-19.19c1.09-40.13.14-86.54-.8-117.27 12.4-38.46 25.27-87.24 22.1-121.26-3.12-33.45-9.47-63-20.41-86 15.2 22.82 36.14 65.93 42.94 136.51 11.09 115.27 11.34 202.44-2.24 239.73s-31.22 67.9 4.11 121.81c33.51 51.11 129.28 60.07 166.82 2.63ZM1030.24 895.13l-.28.21C969.12 942 938.9 933 917.79 881.28c0-.29 0-.58.05-.87v-.64c.08-1 .21-2.42.36-4.28v-.14c1.65-19.55 7-83.43 10.2-123.6-.54 41.2 0 106.83 13.64 128.68 15.62 24.92 52.42 30.57 88.2 14.7Z" style="fill:#222c38"></path>
    <path d="M1149.43 788.81s-58.43 59.65-119.19 106.32c-35.78 15.89-72.58 10.22-88.14-14.7-13.64-21.85-14.18-87.48-13.64-128.68.27-3.52.54-6.85.78-10 2.51-32.2 1.86-66.94-4-96.53C957.86 686 978.82 729.14 981 815.59l121.58-90s.32.53.92 1.49c4 6.41 20.2 32.12 33.6 48.77 4.64 5.85 8.98 10.56 12.33 12.96Z" style="fill:#2c4a5b"></path>
    <path d="M667 1850.81a.52.52 0 0 1 .05-.47" style="stroke:#fc0019;fill:none;stroke-miterlimit:10"></path>
    <path d="m628.93 1133.89-8.49 2.62s-15.77-26-23.4-36.8a51.81 51.81 0 0 0 13.72-4.44 47.09 47.09 0 0 0 14.91-11.54Z" style="fill:#f9f9f9"></path>
    <path d="M589.55 887.39a82.82 82.82 0 0 0-41.74 2.44c-1.25.41-.72 2.41.55 2a80.67 80.67 0 0 1 40.64-2.45c1.3.26 1.85-1.73.55-1.99ZM581.15 895.89a66.16 66.16 0 0 0-18.93 10.28c-1.05.81.42 2.27 1.46 1.46a63 63 0 0 1 18-9.75c1.32-.43.74-2.43-.53-1.99ZM976.25 818.05A45.16 45.16 0 0 0 962.69 856c.17 1.3 2.24 1.31 2.07 0a43.22 43.22 0 0 1 13-36.47c.92-.94-.55-2.4-1.51-1.48ZM849.21 919.06q-1.77-20.77-4.52-41.46c-.17-1.3-2.24-1.32-2.07 0q4.86 36.55 6.66 73.44t.51 73.74q-.72 20.84-2.43 41.64c-.11 1.32 1.95 1.32 2.06 0q3-36.76 3-73.68t-3.21-73.68Z" style="fill:#222c38"></path>
    <path d="M1157.45 747.77s-9.72 16.22-20.38 28.13c-13.4-16.65-29.61-42.35-33.61-48.77l12.4-13.79s1.89.85 4.9 2.45c8.64 4.57 26.49 15.21 35.07 29.09.59.95 1.17 1.91 1.62 2.89Z" style="fill:#f9f9f9"></path>
    <path d="M1176.1 673.15a1 1 0 0 1-.57-1.9c21-13.59 39.46-36.83 39.65-37.06a1 1 0 1 1 1.62 1.28c-.19.24-18.88 23.74-40.14 37.52a1.06 1.06 0 0 1-.56.16ZM1191.93 678.05a1 1 0 0 1-.76-.34 1 1 0 0 1 .07-1.46l35.27-31.76a1 1 0 1 1 1.38 1.53l-35.26 31.77a1 1 0 0 1-.7.26ZM1204.76 686.73a1 1 0 0 1-.72-.3 1 1 0 0 1 0-1.46l30.15-30.5a1 1 0 0 1 1.47 0 1 1 0 0 1 0 1.46l-30.15 30.51a1 1 0 0 1-.75.29ZM1151.2 709.51a1 1 0 0 1-.6-1.88c4.62-3.32 7.9-12.1 7.93-12.19a1 1 0 0 1 1.94.72c-.14.38-3.53 9.46-8.67 13.15a1 1 0 0 1-.6.2Z" style="fill:#222c38"></path>
    <circle cx="830.08" cy="876.13" r="8.79" style="fill:#222c38"></circle>
    <circle cx="831.85" cy="996.68" r="8.79" style="fill:#222c38"></circle>
    <path d="M816.22 1200.5c-11.17 4-23 5.48-34.77 6-12.2.58-24.46.48-36.67.36q-37.46-.37-74.84-3.25-21-1.62-42-4c-1.32-.15-1.31 1.91 0 2.06q37.48 4.3 75.18 6.08c24.85 1.18 49.85 1.83 74.72 1 13.17-.45 26.45-1.81 38.93-6.27 1.23-.43.7-2.43-.55-1.98ZM842.17 1075q-6.79 47.44-17.62 94.19-3.09 13.26-6.48 26.45a1 1 0 0 0 2 .55q12-46.41 19.92-93.72 2.26-13.44 4.19-26.92c.17-1.31-1.82-1.87-2.01-.55Z" style="fill:#2c4a5b"></path>
    <path d="M616.47 611.77A94.56 94.56 0 0 0 599 591.66c-1-.87-2.47.59-1.46 1.46a92.94 92.94 0 0 1 17.11 19.69c.76 1.11 2.55.08 1.82-1.04ZM928.3 695.58q-.7-18.23-1.92-36.43c-.09-1.32-2.15-1.33-2.06 0q2.14 32.43 2.7 64.93t-.51 65q-.6 18.24-1.7 36.44c-.08 1.33 2 1.32 2.07 0q1.95-32.44 2.32-64.94t-.9-65ZM1125.13 804.81a26.39 26.39 0 0 1-6.15-2.87q2.82-3.16 5.6-6.37c.86-1-.6-2.47-1.46-1.46q-2.89 3.36-5.84 6.66a43.84 43.84 0 0 1-11.06-12.6c-5.18-8.45-8.89-17.93-11.85-27.35a156.5 156.5 0 0 1-4.34-17.28c-.25-1.31-2.24-.75-2 .55a154.49 154.49 0 0 0 9.6 31.53c3.61 8.5 7.92 17.1 14.61 23.63a35.29 35.29 0 0 0 3.63 3.07 500.09 500.09 0 0 1-105.73 89q-17.79 11.18-36.46 20.83c-1.18.61-.14 2.4 1 1.79a502.44 502.44 0 0 0 121-87.61q11.31-11.08 21.88-22.87a29.15 29.15 0 0 0 7 3.29c1.29.45 1.84-1.54.57-1.94ZM621.93 1043.15c-9.95 11.56-20.55 23.83-35.35 29.09a39.44 39.44 0 0 1-12.35 2.33 1 1 0 0 0 0 2.06c16-.32 29.31-10.39 39.84-21.53 3.22-3.4 6.27-6.94 9.32-10.48.86-1.01-.59-2.48-1.46-1.47ZM578.12 621.53q-13 26.38-23.33 54t-17.93 56.28q-7.59 28.68-12.33 58-4.68 29-6.51 58.45a587.64 587.64 0 0 0-.68 59.06q.15 3.7.33 7.41c.07 1.32 2.14 1.33 2.07 0q-1.5-29.37-.08-58.8c1-19.58 2.88-39.12 5.77-58.51s6.73-38.64 11.51-57.66 10.48-37.8 17.11-56.26a587.28 587.28 0 0 1 22.61-54.27c1.07-2.24 2.15-4.46 3.24-6.68.59-1.17-1.19-2.22-1.78-1.02ZM572.76 1045.84a278.58 278.58 0 0 1-19.47-42.79c-.44-1.24-2.44-.71-2 .55a280.64 280.64 0 0 0 19.71 43.28 1 1 0 0 0 1.76-1.04Z" style="fill:#222c38"></path>
    <path d="M629.14 1101.16q-.85-7.77-1.88-15.51c-.18-1.3-2.25-1.32-2.07 0q3.63 27.3 5 54.82.39 7.8.61 15.61c0 1.33 2.11 1.34 2.07 0q-.74-27.52-3.73-54.92ZM642.72 1097.56q-1.87-9.33-4.1-18.6c-.31-1.29-2.3-.74-2 .55a501.61 501.61 0 0 1 11.22 65.65q1 9.35 1.57 18.73c.08 1.32 2.15 1.33 2.06 0a503.9 503.9 0 0 0-8.75-66.33ZM645.76 1162.29a1 1 0 0 0-1.27-.72 21.73 21.73 0 0 1-13.58-2.41c-1.16-.64-2.21 1.14-1 1.78a24 24 0 0 0 15.17 2.62 1 1 0 0 0 .68-1.27Z" style="fill:#2c4a5b"></path>
    <path d="M690.45 737.15h59.38v11.75h-59.38z" style="fill:#222c38"></path>
    <path d="M807.21 1249.35a148 148 0 0 0-32.87 50.65 146.49 146.49 0 0 0-5.27 16.37 1 1 0 0 0 2 .55 145.12 145.12 0 0 1 37.61-66.08 1 1 0 0 0-1.47-1.49Z" style="fill:#2c4a5b"></path>
    <path d="M952.42 1888.18a1 1 0 0 0-1.41-.37l-6.8 3.06a1 1 0 0 0-.37 1.41 1.06 1.06 0 0 0 1.41.37l6.8-3.06a1 1 0 0 0 .37-1.41Z" style="fill:#365973"></path>
    <path d="M752.76 1896.49c-6.72-.21-14.33-.65-20-4.75-3.32-2.4-5-5.94-6.16-9.77-1.39-4.57-2.66-9.17-4-13.75l-4.62-16a1 1 0 0 0-2 .55c2.87 9.91 5.61 19.87 8.61 29.75 1.18 3.9 2.87 7.59 6.08 10.22a23.16 23.16 0 0 0 9.31 4.38 61.17 61.17 0 0 0 12.73 1.43 1 1 0 0 0 .05-2.06Z" style="fill:#2c4a5b"></path>
    <path d="M702.1 1880.32c-.13-4.17-.42-8.35-.64-12.52q-.37-7.23-.76-14.46c-.07-1.33-2.14-1.33-2.07 0l.8 15.22c.27 5 .85 10.11.58 15.1-.49 9.09-7.54 14.6-14.41 19.46-1.08.76-.05 2.55 1 1.78 5.23-3.69 10.87-7.74 13.65-13.71a23.6 23.6 0 0 0 1.85-10.87Z" style="fill:#222c38"></path>
    <path d="M845.89 1828.23a101.61 101.61 0 0 1-51.4.09 99.84 99.84 0 0 1-14-4.76c-1.24-.53-2.25 1.32-1 1.85a103 103 0 0 0 67 4.83c1.33-.35.71-2.36-.6-2.01ZM770.78 1914.5c-2.32-11-8.32-20.8-11.27-31.62a1.05 1.05 0 0 0-2 .56c2.52 9.24 7.19 17.69 10 26.82 2.52 8.11 3.55 17.63-.6 25.4-7.88 14.77-28.57 15-42.92 13a93 93 0 0 1-30.31-9.85c-1.2-.63-2.26 1.18-1.06 1.82a95 95 0 0 0 28 9.62c8.72 1.51 17.85 2.07 26.6.41 7.47-1.42 14.88-4.72 19.57-10.92 5.44-7.22 5.78-16.74 3.99-25.24Z" style="fill:#2c4a5b"></path>
    <path d="M813.26 768h-3.91c-34.82-91.44-82.65-212.23-91.93-235.62 13.91 17 51.57 98.73 51.57 98.73 5.31-4 13.52-18.54 20.68-32.62 3.55 8 10.37 19.86 18.55 21.48-1.48 1.81-3.71 3-6.87 1.16 0 0-7.36-2.45-13-10.87l-15.61 33.23 36.1 105.43Z" style="fill:#c6c6c6"></path>
    <path d="m859 762.54-.3 2a518.52 518.52 0 0 1-19.86 82.83C832 828 821.46 799.76 809.35 768c-.66-1.72-1.32-3.47-2-5.22-1.63-9.68-2.86-19.47-3.77-29.15-4.74-50.45-.73-98.17 1-115 .43-4.15.72-6.43.72-6.43l7.87-.22c.3.53.62 1.08.93 1.67.51.95 1 2 1.55 3.07l.86 1.84c13.55 29.67 32.54 103.84 41.33 139.72.43 1.44.78 2.89 1.16 4.26Z" style="fill:#ec685b"></path>
    <path d="M820.69 596.31c-.19 2.55-.48 5.2-.89 7.76-.79 4.93-2 9.55-4.08 12.55a9.56 9.56 0 0 1-.85 1.11 6.17 6.17 0 0 1-4.77 2.37 9.06 9.06 0 0 1-1.87-.19 11.94 11.94 0 0 1-3.58-1.38c-6.57-3.71-12-13.31-15-20.1 1-2.05 2.05-4.09 3-6.09C799.11 579.3 804 568 804 568l11.32 19.23Z" style="fill:#ec685b"></path>
    <path d="M863.74 704.52a403.61 403.61 0 0 1-4.79 58c-.33-1.37-.68-2.82-1.05-4.33 2.51-25.78 2.07-64.76-.44-90.61-2.66-27.24-18.54-71.78-18.54-71.78v42.87l-18.23-30.57a29.06 29.06 0 0 1-4.12 10.37l-.86-1.84c3.09-4.58 4.42-12.92 5-20.34L838 625.78s.93-28.66.91-48.67c9.52 21.53 25.09 71.7 24.83 127.41Z" style="fill:#c6c6c6"></path>
    <path d="m859 762.54-.3 2-1.19-2.21c.16-1.32.3-2.69.44-4.11.32 1.5.67 2.95 1.05 4.32Z" style="fill:#c6c6c6"></path>
    <path d="M820.69 596.31c-.19 2.55-.48 5.2-.89 7.76-1.52-5.09-15.15-27-15.15-27l-10 21.81c-.22 6.88 10 19.64 10 19.64-6.57-3.71-12-13.31-15-20.1 1-2.05 2.05-4.09 3-6.09C799.11 579.3 804 568 804 568l11.32 19.23ZM804.64 618.56s6.49 4.64 9.51 0c0 0 16 38.5 12 41.74-4.37 3.52-8.13-14.54-12.35-37.81a14.68 14.68 0 0 1-3.6.8s6.22 33.22 5.56 36.51-5.61 7-6.28-4.49-1.48-32.15-1.48-32.15-1.6-2.26-3.36-4.6ZM859 762.54l-.3 2a518.52 518.52 0 0 1-19.86 82.83C832 828 821.46 799.76 809.35 768c-.66-1.72-1.32-3.47-2-5.22-1.63-9.68-2.86-19.47-3.77-29.15l36.14 86.22S857 770.1 857.9 758.21c.37 1.51.72 2.96 1.1 4.33Z" style="fill:#cc5650"></path>
    <path d="M795.13 372.52c-7.92-.64-12.9 1.07-27.3 15.26s-38.09 10.55-38.09 10.55c26.61-1.12 41-32.05 48.38-30.41 3.13.68 9.29 2.66 17.01 4.6ZM1143.82 676.83s-11.52 1.74-8.2-8.56 10.42-25.4 3.89-34.46c2.75 2.16 5.33 5.7 6.13 11.45 1.93 13.91-9.81 21.49-1.82 31.57ZM1228.8 679.23c-11 11.44-17.93 31.22-29.54 41.84-11.07 10.11-27.48 20.14-43.43 23.81-8.58-13.88-26.43-24.52-35.07-29.09a58.94 58.94 0 0 1-6.36-13.12c.75 1.88 4.27 8.49 18.56 15.79 17 8.64 19.4 20.82 40.22 13.95s28.58-21.27 36.39-32.23 29.91-32.31 31.32-41.25c.54 3.91-2.64 10.56-12.09 20.3Z" style="fill:#ec685b"></path>
  </g>
</svg>
